<svg width="581" height="529" viewBox="0 0 581 529" fill="none" xmlns="http://www.w3.org/2000/svg">
<g clip-path="url(#clip0_147_65)">
<path d="M241.678 468.572L248.024 446.723C240.389 437.839 230.818 431.059 220.142 426.973C230.572 445.242 220.465 469.074 224.677 489.943C226.038 496.441 228.764 502.532 232.654 507.765C236.545 512.998 241.499 517.238 247.149 520.171L256.779 532.785C261.827 523.461 264.904 513.09 265.796 502.387C266.688 491.685 265.375 480.905 261.947 470.79C259.97 465.136 257.328 459.768 254.083 454.812C248.361 461.924 241.678 468.572 241.678 468.572Z" fill="#F2F2F2"/>
<path d="M206.786 462.363L203.249 439.815C192.667 435.464 181.241 433.909 169.962 435.285C187.004 446.719 188.011 472.815 200.584 489.507C204.543 494.682 209.553 498.848 215.242 501.698C220.932 504.547 227.154 506.006 233.45 505.967L247.39 512.717C247.975 501.991 246.353 491.258 242.637 481.258C238.92 471.258 233.198 462.229 225.863 454.792C221.709 450.664 217.08 447.104 212.084 444.198C209.963 453.262 206.786 462.363 206.786 462.363Z" fill="#F0726C"/>
<path d="M414.475 527.178L404.7 527.178L400.05 487.319L414.476 487.319L414.475 527.178Z" fill="#FFB6B6"/>
<path d="M416.967 537.195L385.45 537.194V536.772C385.451 533.333 386.743 530.034 389.044 527.602C391.344 525.17 394.464 523.803 397.718 523.803H397.718L403.475 519.186L414.217 523.804L416.968 523.804L416.967 537.195Z" fill="#2F2E41"/>
<path d="M572.369 480.485L565.705 488.045L534.954 464.465L544.79 453.308L572.369 480.485Z" fill="#FFB6B6"/>
<path d="M581 485.387L559.511 509.762L559.219 509.474C556.839 507.129 555.438 503.88 555.324 500.443C555.209 497.005 556.391 493.661 558.609 491.144L558.61 491.144L559.34 483.543L569.859 478.384L571.735 476.257L581 485.387Z" fill="#2F2E41"/>
<path d="M557.906 467.084L547.575 489.929L484.133 445.52L474.904 432.225L444.642 388.634L432.341 409.27L423.781 430.842C420.992 432.765 418.641 435.32 416.899 438.321C415.157 441.322 414.068 444.695 413.709 448.195L413.317 452.015L418.726 503.42L398.168 510.093L386.361 441.037L390.221 426.074L394.194 405.069L414.2 338.693H467.736L498.442 407.793L500.687 421.873L509.393 432.436L557.906 467.084Z" fill="#2F2E41"/>
<path d="M380.008 171.37C380.758 172.28 381.31 173.354 381.625 174.514C381.941 175.675 382.011 176.894 381.833 178.087C381.654 179.28 381.23 180.416 380.591 181.417C379.952 182.418 379.113 183.258 378.133 183.879L383.812 212.609L370.398 206.995L367.062 180.572C366.185 178.763 365.965 176.677 366.446 174.708C366.926 172.74 368.073 171.026 369.669 169.892C371.264 168.758 373.198 168.282 375.104 168.554C377.009 168.826 378.754 169.828 380.008 171.37H380.008Z" fill="#FFB6B6"/>
<path d="M437.04 218.104C446.885 218.104 454.866 209.666 454.866 199.258C454.866 188.849 446.885 180.411 437.04 180.411C427.195 180.411 419.214 188.849 419.214 199.258C419.214 209.666 427.195 218.104 437.04 218.104Z" fill="#FFB6B6"/>
<path d="M419.342 186.629C420.808 182.12 428.105 178.993 439.936 178.558C451.767 178.123 454.767 192.863 454.767 192.863C462.665 199.636 446.334 217.77 445.544 217.117L445.899 213.71C446.487 208.067 448.987 203.664 445.808 197.782L442.756 197.819C438.813 198.621 434.871 199.422 430.929 200.224L435.596 195.879L435.464 195.664C433.479 196.757 431.319 197.45 429.093 197.709C426.585 197.865 423.842 196.809 422.641 194.476C422.32 193.835 422.124 193.132 422.064 192.409C418.682 193.838 417.135 198.247 417.135 198.247C417.135 198.247 417.876 191.138 419.342 186.629Z" fill="#2F2E41"/>
<path d="M71.8214 187.76C71.5795 187.435 71.3191 187.127 71.0415 186.837C71.1093 186.738 71.1772 186.631 71.245 186.532L71.8214 187.76Z" fill="#2F2E41"/>
<path d="M75.2883 263.559C72.3723 269.034 66.5488 272.09 60.7762 273.587C54.2922 275.383 47.4643 275.243 41.0508 273.184C40.2371 272.906 39.4233 272.583 38.635 272.225C39.014 271.161 39.3144 270.067 39.5335 268.954C39.8286 267.447 39.9763 265.913 39.9743 264.374C39.332 265.699 38.5 266.912 37.5076 267.968C36.7421 268.818 35.8726 269.557 34.9222 270.164C31.9743 268.272 29.4218 265.766 27.4203 262.797C27.5474 262.465 27.6746 262.134 27.7933 261.802C28.4088 260.07 28.8963 258.291 29.2513 256.479C29.7329 254.029 29.9744 251.534 29.9718 249.032C28.9266 251.188 27.5711 253.159 25.9538 254.875C25.4689 255.423 24.9538 255.941 24.4111 256.425C23.5707 253.727 23.2458 250.879 23.4553 248.046C23.6649 245.214 24.4046 242.454 25.6317 239.926C28.9885 233.366 35.4986 229.468 41.2967 225.229C47.1032 220.99 52.9098 215.255 53.4014 207.807C53.732 202.78 51.5281 197.743 52.4097 192.796C52.7804 190.71 53.6856 188.772 55.0265 187.192C56.3674 185.612 58.0927 184.452 60.0144 183.837C61.9361 183.222 63.9805 183.177 65.9249 183.706C67.8692 184.235 69.639 185.318 71.0415 186.837C67.7525 191.766 64.4805 196.865 63.1497 202.726C61.7934 208.695 62.9039 215.694 67.3541 219.646C68.8799 221.008 70.7533 221.976 71.9316 223.679C73.4997 225.937 73.5082 228.948 73.7625 231.726C74.2711 237.13 75.941 242.328 76.8396 247.678C77.7466 253.02 77.7974 258.818 75.2883 263.559Z" fill="#2F2E41"/>
<path d="M15.5121 485.798L23.2487 492.117L49.9862 463.576L38.5676 454.249L15.5121 485.798Z" fill="#A0616A"/>
<path d="M15.8412 479.623L28.6346 488.842L24.586 494.381L30.0081 512.369C30.276 513.257 30.2683 514.213 29.9861 515.096C29.7039 515.979 29.162 516.744 28.4395 517.279C27.717 517.814 26.8517 518.09 25.97 518.068C25.0883 518.046 24.2363 517.727 23.5384 517.157L8.97891 505.263L10.474 497.734L5.4895 502.412L0 497.928L15.8412 479.623Z" fill="#2F2E41"/>
<path d="M54.7621 203.681C54.761 206.877 55.5019 210.024 56.9197 212.847C58.3376 215.669 60.3891 218.08 62.8942 219.868C65.3992 221.657 68.2812 222.768 71.2872 223.103C74.2931 223.439 77.3311 222.99 80.1344 221.795C82.9378 220.6 85.4207 218.695 87.3654 216.249C89.31 213.802 90.6569 210.888 91.2877 207.763C91.9186 204.638 91.8141 201.397 90.9835 198.324C90.1529 195.251 88.6215 192.441 86.5238 190.14L86.4352 190.047C86.2875 189.883 86.1397 189.719 85.9846 189.562C85.9836 189.562 85.9827 189.562 85.9818 189.562C85.9809 189.562 85.9801 189.561 85.9794 189.56C85.9787 189.559 85.9781 189.559 85.9778 189.558C85.9774 189.557 85.9772 189.556 85.9773 189.555C85.7852 189.367 85.5931 189.18 85.3937 189C82.1437 185.986 77.5758 182.714 72.9149 182.714C62.7142 182.714 54.7621 192.897 54.7621 203.681Z" fill="#2F2E41"/>
<path d="M160.016 193.656C160.105 194.697 159.976 195.746 159.639 196.729C159.303 197.712 158.766 198.605 158.068 199.345C157.37 200.086 156.526 200.655 155.597 201.013C154.668 201.372 153.676 201.51 152.691 201.419L106.964 245.069L99.0955 231.929L146.518 193.155C146.772 191.415 147.621 189.835 148.903 188.713C150.186 187.591 151.814 187.005 153.477 187.067C155.141 187.128 156.726 187.833 157.931 189.048C159.136 190.262 159.878 191.902 160.016 193.656V193.656Z" fill="#A0616A"/>
<path d="M87.4216 258.243C87.4216 258.243 89.123 261.565 94.9346 256.436C99.5873 252.329 121.878 234.5 126.68 227.195C127.777 227.654 128.986 227.715 130.119 227.367C131.252 227.019 132.243 226.283 132.936 225.274L119.779 213.092C115.842 213.571 115.926 216.367 116.336 217.954L106.411 222.708L80.782 240.024L86.1515 255.865L87.4216 258.243Z" fill="#EF5533"/>
<path d="M62.5928 288.851L61.6343 293.676L60.8206 311.475L96.6496 313.557L95.537 286.181L92.0641 280.149L62.5928 288.851Z" fill="#A0616A"/>
<path d="M77.7777 224.569C86.3297 224.569 93.2624 217.24 93.2624 208.199C93.2624 199.157 86.3297 191.828 77.7777 191.828C69.2258 191.828 62.2931 199.157 62.2931 208.199C62.2931 217.24 69.2258 224.569 77.7777 224.569Z" fill="#A0616A"/>
<path d="M50.2865 268.581L50.1913 254.973C50.1891 250.077 51.7564 245.324 54.6374 241.491C57.5185 237.657 61.5433 234.969 66.0552 233.864L66.1137 233.85L69.1756 229.488L81.6155 230.804L83.8956 235.73L92.9098 241.405L96.3803 253.2C97.8857 254.261 99.1686 255.638 100.149 257.245C101.13 258.852 101.788 260.655 102.082 262.542C103.26 270.499 97.9903 278.461 97.3635 279.374L95.7484 288.99L60.6138 295.544L60.3285 295.583L50.2865 268.581Z" fill="#EF5533"/>
<path d="M96.726 205.28C94.9198 206.489 93.0458 207.582 91.1144 208.551C89.154 209.547 87.1035 210.33 84.9942 210.89C84.3907 209.49 83.6521 208.16 82.7903 206.92C83.012 208.389 83.0177 209.885 82.8072 211.356C79.3109 211.952 75.7299 211.642 72.3723 210.451L69.4564 205.28L69.236 211.051C66.8201 211.517 64.4127 211.957 61.9969 212.414C61.8528 212.432 61.7087 212.467 61.573 212.494C60.0726 205.343 62.2003 197.465 66.9303 192.698C69.2788 190.355 72.2083 188.766 75.3778 188.116C78.5472 187.465 81.8263 187.78 84.8331 189.023C85.2146 189.185 85.6045 189.364 85.9775 189.552C85.9774 189.553 85.9777 189.554 85.9781 189.556C85.9785 189.557 85.9791 189.558 85.9799 189.559C85.9807 189.559 85.9816 189.56 85.9827 189.56C85.9837 189.561 85.9848 189.561 85.986 189.561C86.2064 189.678 86.3928 189.955 86.6387 189.928C97.2176 188.683 97.5567 197.358 96.726 205.28Z" fill="#2F2E41"/>
<path d="M70.9659 464.689L78.7144 470.991L105.398 442.393L93.9619 433.092L70.9659 464.689Z" fill="#A0616A"/>
<path d="M71.9858 459.084L84.7967 468.276L80.7587 473.824L86.2152 491.8C86.4848 492.688 86.4789 493.643 86.1984 494.527C85.9179 495.411 85.3774 496.177 84.6559 496.714C83.9344 497.25 83.0697 497.528 82.1879 497.508C81.3062 497.488 80.4536 497.17 79.7546 496.602L65.1725 484.739L66.6532 477.206L61.6776 481.896L56.1796 477.423L71.9858 459.084Z" fill="#2F2E41"/>
<path d="M45.8224 429.786L45.822 429.679L49.4943 422.989L45.7445 414.279L45.632 391.904L46.2398 388.545C47.0574 384.028 46.8195 379.368 45.5468 374.969L45.4783 361.349C45.3466 357.938 50.346 354.937 49.1801 352.093C38.1604 325.207 60.433 304.697 60.5835 304.533L61.0386 304.032L63.5081 306.01L65.8586 306.013L97.5772 312.123L97.8062 312.575C99.0538 315.049 101.461 323.576 101.604 327.435C103.185 329.369 121.192 351.398 122.792 352.929C133.609 363.276 139.802 380.402 142.531 389.69C143.209 391.985 143.345 394.421 142.929 396.785C142.512 399.149 141.556 401.369 140.142 403.253L99.1927 450.672L88.173 439.918L110.33 397.232L108.732 392.901C105.866 392.342 103.271 390.748 101.392 388.393L96.9051 382.762C95.6628 381.208 94.8735 379.306 94.6325 377.287L91.9116 376.94L82.1653 366.122L75.4035 430.861L73.5652 435.975L41.551 475.766L27.9883 466.804L45.8224 429.786Z" fill="#2F2E41"/>
<path d="M40.9332 151.804C40.3182 152.623 39.8804 153.574 39.6506 154.591C39.4209 155.608 39.4049 156.665 39.6037 157.689C39.8024 158.714 40.2112 159.679 40.8011 160.518C41.391 161.357 42.1478 162.049 43.0181 162.546L32.8383 194.408L41.1507 228.173L54.5545 221.767L46.2833 196.298L52.4714 159.227C53.1633 157.626 53.2756 155.813 52.7871 154.13C52.2987 152.447 51.2433 151.013 49.8211 150.097C48.3988 149.182 46.7085 148.851 45.0705 149.165C43.4324 149.48 41.9603 150.419 40.9332 151.804Z" fill="#A0616A"/>
<path d="M53.2025 255.994C53.2025 255.994 50.0543 257.781 47.8649 250.119C46.1121 243.985 34.1834 210.68 33.9684 201.786C32.8135 201.533 31.7712 200.881 31.0056 199.932C30.24 198.983 29.7946 197.793 29.7396 196.547L47.0646 194.012C50.1048 196.7 48.5811 198.987 47.4135 200.075L53.3142 210.642L65.6477 239.169L55.4998 254.744L53.2025 255.994Z" fill="#EF5533"/>
<path d="M61.9934 212.412C63.7726 206.74 66.9628 201.678 71.2295 197.758C75.4962 193.838 80.6821 191.204 86.2432 190.133C86.2653 190.125 86.3392 190.094 86.4352 190.047C86.4943 190.008 86.5682 189.969 86.642 189.93C86.4204 189.797 86.2062 189.68 85.9846 189.563C85.9836 189.563 85.9827 189.562 85.9818 189.562C85.9809 189.562 85.9801 189.561 85.9794 189.56C85.9787 189.56 85.9781 189.559 85.9778 189.558C85.9774 189.557 85.9772 189.556 85.9773 189.555C85.7852 189.367 85.5932 189.18 85.3937 189L84.8323 189.024C84.8323 189.024 65.1031 185.721 61.9934 212.412Z" fill="#FD6584"/>
<path d="M316.572 403.84C318.725 400.418 317.45 395.52 313.725 392.899C310 390.279 305.234 390.929 303.081 394.35C300.928 397.772 302.202 402.67 305.928 405.29C309.653 407.911 314.419 407.261 316.572 403.84Z" fill="#F2F2F2"/>
<path d="M272.862 276.13C275.015 272.708 273.741 267.81 270.016 265.19C266.29 262.569 261.525 263.219 259.371 266.64C257.218 270.062 258.493 274.96 262.218 277.581C265.943 280.201 270.709 279.551 272.862 276.13Z" fill="#F2F2F2"/>
<path d="M455.647 463.736C457.801 460.314 456.526 455.416 452.801 452.795C449.075 450.175 444.31 450.825 442.157 454.246C440.003 457.668 441.278 462.566 445.003 465.186C448.729 467.807 453.494 467.157 455.647 463.736Z" fill="#F2F2F2"/>
<path d="M86.1035 52.8791C88.2567 49.4574 86.9822 44.5594 83.2568 41.939C79.5315 39.3187 74.7659 39.9683 72.6126 43.39C70.4594 46.8116 71.7339 51.7097 75.4593 54.33C79.1847 56.9504 83.9502 56.3008 86.1035 52.8791Z" fill="#F2F2F2"/>
<path d="M258.557 21.5497C260.711 18.1281 259.436 13.23 255.711 10.6097C251.985 7.98932 247.22 8.6389 245.067 12.0606C242.913 15.4823 244.188 20.3803 247.913 23.0007C251.639 25.621 256.404 24.9714 258.557 21.5497Z" fill="#F2F2F2"/>
<path d="M176.94 350.909C179.093 347.488 177.818 342.59 174.093 339.969C170.368 337.349 165.602 337.999 163.449 341.42C161.295 344.842 162.57 349.74 166.295 352.36C170.021 354.981 174.786 354.331 176.94 350.909Z" fill="#E6E6E6"/>
<path d="M112.062 205.742C107.715 205.729 103.525 204.022 100.293 200.949C97.0607 197.875 95.0136 193.65 94.5426 189.081L84.4534 90.0157C83.9577 85.0971 85.3277 80.1714 88.2628 76.3194C91.198 72.4674 95.4586 70.0036 100.11 69.4686L399.682 35.3668C404.335 34.8424 408.994 36.2907 412.637 39.3938C416.281 42.4968 418.612 47.0013 419.118 51.9188L429.207 150.983C429.703 155.902 428.333 160.828 425.397 164.68C422.462 168.532 418.202 170.996 413.55 171.531L413.507 171.114L413.55 171.531L113.978 205.633C113.342 205.706 112.702 205.742 112.062 205.742Z" fill="#E6E6E6"/>
<path d="M396.382 39.9656C395.82 39.9658 395.257 39.9979 394.698 40.0616L105.926 72.9339C103.907 73.1638 101.95 73.8118 100.168 74.8411C98.3859 75.8704 96.8129 77.2607 95.5388 78.9327C94.2648 80.6048 93.3147 82.5257 92.7429 84.5859C92.1711 86.6461 91.9887 88.8052 92.2061 90.9399L97.3073 141.028C98.1319 149.125 100.457 156.972 104.15 164.119C107.843 171.267 112.831 177.575 118.83 182.684C124.829 187.793 131.721 191.603 139.112 193.897C146.504 196.19 154.251 196.921 161.91 196.049L364.964 172.935C372.6 172.065 379.999 169.615 386.739 165.722C393.479 161.83 399.427 156.572 404.245 150.249C409.063 143.927 412.656 136.662 414.819 128.871C416.981 121.081 417.671 112.916 416.849 104.843L411.728 54.5669C411.32 50.5622 409.529 46.8577 406.697 44.1633C403.865 41.4689 400.192 39.9742 396.382 39.9656Z" fill="white"/>
<path d="M335.571 92.0932L174.173 110.466C173.712 110.519 173.245 110.476 172.8 110.338C172.354 110.2 171.938 109.971 171.577 109.663C171.215 109.356 170.914 108.976 170.692 108.545C170.469 108.115 170.329 107.642 170.279 107.154C170.229 106.666 170.271 106.172 170.402 105.701C170.533 105.23 170.75 104.791 171.042 104.41C171.333 104.028 171.693 103.71 172.101 103.475C172.508 103.24 172.956 103.093 173.417 103.041L334.815 84.668C335.277 84.6148 335.744 84.6583 336.189 84.796C336.635 84.9338 337.05 85.163 337.412 85.4706C337.774 85.7783 338.074 86.1583 338.297 86.5889C338.52 87.0195 338.66 87.4924 338.71 87.9803C338.759 88.4683 338.718 88.9618 338.587 89.4327C338.456 89.9036 338.239 90.3426 337.947 90.7246C337.656 91.1066 337.296 91.4241 336.888 91.6589C336.48 91.8938 336.033 92.0414 335.571 92.0932Z" fill="black"/>
<path d="M337.892 114.882L176.494 133.255C175.563 133.361 174.63 133.071 173.9 132.45C173.171 131.829 172.705 130.926 172.605 129.942C172.504 128.957 172.778 127.971 173.366 127.199C173.953 126.428 174.807 125.935 175.738 125.829L337.136 107.457C338.068 107.351 339.001 107.64 339.73 108.261C340.46 108.883 340.926 109.785 341.026 110.769C341.126 111.754 340.852 112.74 340.265 113.512C339.677 114.283 338.824 114.776 337.892 114.882Z" fill="black"/>
<path d="M197.624 144.901L178.815 147.042C177.884 147.148 176.951 146.859 176.221 146.238C175.492 145.616 175.026 144.714 174.925 143.73C174.825 142.745 175.099 141.758 175.687 140.987C176.274 140.216 177.128 139.723 178.059 139.617L196.868 137.476C197.329 137.423 197.796 137.466 198.242 137.604C198.687 137.742 199.103 137.971 199.464 138.279C199.826 138.586 200.127 138.966 200.349 139.397C200.572 139.828 200.712 140.3 200.762 140.788C200.812 141.276 200.77 141.77 200.639 142.241C200.508 142.712 200.291 143.151 199.999 143.533C199.708 143.915 199.348 144.232 198.94 144.467C198.533 144.702 198.085 144.849 197.624 144.901Z" fill="black"/>
<path d="M105.712 85.1958C109.223 85.1958 112.069 82.1865 112.069 78.4743C112.069 74.762 109.223 71.7527 105.712 71.7527C102.2 71.7527 99.3539 74.762 99.3539 78.4743C99.3539 82.1865 102.2 85.1958 105.712 85.1958Z" fill="#3F3D56"/>
<path d="M390.221 60.5879C393.732 60.5879 396.578 57.5786 396.578 53.8664C396.578 50.1541 393.732 47.1448 390.221 47.1448C386.709 47.1448 383.863 50.1541 383.863 53.8664C383.863 57.5786 386.709 60.5879 390.221 60.5879Z" fill="#3F3D56"/>
<path d="M304.267 198.579C303.682 198.037 303.22 197.364 302.912 196.608C302.605 195.853 302.46 195.035 302.49 194.214C302.809 184.451 301.288 174.718 298.015 165.583C297.738 164.815 297.626 163.991 297.687 163.172C297.749 162.352 297.982 161.557 298.37 160.845C298.742 160.16 299.251 159.57 299.862 159.116C300.473 158.662 301.17 158.354 301.906 158.215C309.295 153.501 316.871 152.177 324.426 154.282C325.645 154.093 326.887 154.368 327.93 155.06C328.974 155.751 329.75 156.814 330.119 158.055C333.178 168.555 334.88 179.443 335.177 190.424C335.206 191.742 334.784 193.026 333.989 194.041C333.194 195.055 332.079 195.733 330.849 195.949L308.491 199.854C307.742 199.986 306.974 199.941 306.243 199.72C305.512 199.5 304.837 199.11 304.267 198.579Z" fill="#EB8358"/>
<path d="M306.252 170.134L325.071 166.847C325.225 166.82 325.374 166.762 325.507 166.674C325.64 166.587 325.756 166.473 325.847 166.338C325.939 166.204 326.004 166.051 326.04 165.89C326.076 165.728 326.081 165.561 326.055 165.398C326.03 165.234 325.974 165.078 325.891 164.937C325.808 164.796 325.7 164.674 325.572 164.578C325.445 164.481 325.3 164.413 325.148 164.375C324.995 164.338 324.837 164.333 324.682 164.36L305.864 167.647C305.552 167.702 305.275 167.886 305.091 168.157C304.907 168.429 304.833 168.766 304.885 169.095C304.936 169.425 305.109 169.719 305.365 169.914C305.622 170.108 305.941 170.187 306.252 170.134Z" fill="white"/>
<path d="M307.807 180.081L326.625 176.794C326.937 176.74 327.216 176.557 327.4 176.285C327.584 176.013 327.658 175.675 327.607 175.345C327.555 175.016 327.382 174.721 327.125 174.526C326.868 174.332 326.548 174.253 326.236 174.307L307.418 177.594C307.263 177.621 307.115 177.68 306.982 177.767C306.849 177.854 306.733 177.968 306.642 178.103C306.55 178.238 306.485 178.39 306.449 178.551C306.413 178.713 306.408 178.88 306.434 179.044C306.459 179.207 306.515 179.364 306.598 179.504C306.681 179.645 306.789 179.767 306.917 179.864C307.044 179.96 307.188 180.029 307.341 180.066C307.494 180.103 307.652 180.109 307.807 180.081Z" fill="white"/>
<path d="M309.361 190.029L328.18 186.742C328.491 186.688 328.77 186.504 328.954 186.233C329.138 185.961 329.213 185.623 329.161 185.293C329.11 184.963 328.936 184.669 328.679 184.474C328.422 184.279 328.103 184.201 327.791 184.255L308.973 187.542C308.818 187.569 308.67 187.628 308.537 187.715C308.404 187.803 308.289 187.917 308.198 188.051C308.107 188.186 308.042 188.338 308.006 188.499C307.971 188.661 307.965 188.828 307.991 188.991C308.016 189.154 308.072 189.311 308.155 189.451C308.237 189.592 308.346 189.714 308.473 189.81C308.6 189.906 308.744 189.975 308.896 190.013C309.049 190.05 309.207 190.056 309.361 190.029Z" fill="white"/>
<path d="M367.194 190.569L372.619 243.381L372.811 243.481C372.969 243.563 379.842 247.127 388.277 251.371C389.7 252.087 389.496 255.188 390.984 255.929C392.008 256.44 394.714 254.587 395.749 255.099C404.969 259.658 414.293 264.091 418.009 265.292C423.025 266.972 428.434 266.788 433.338 264.77L433.456 264.713L433.518 264.591C434.771 262.11 435.187 259.251 434.696 256.487C434.206 253.722 432.84 251.216 430.822 249.383C421.036 240.586 409.45 234.315 396.978 231.063L389.882 229.223L380.793 191.602L367.194 190.569Z" fill="#EB8358"/>
<path d="M446.649 221.096L455.661 228.351L466.53 231.882C466.53 231.882 471.023 298.702 475.071 302.982C479.12 307.262 475.469 307.377 476.282 312.938C477.096 318.498 479.073 329.896 479.073 329.896C451.745 345.19 428.185 345.6 409.261 327.704C409.019 326.597 409.142 325.435 409.609 324.412C410.077 323.389 410.862 322.566 411.833 322.079C415.355 320.103 408.586 310.881 411.464 309.339C414.343 307.797 410.294 294.422 410.294 294.422L412.95 266.514L410.852 262.053L415.972 234.756L424.857 231.326L428.406 222.285L446.649 221.096Z" fill="#EF5533"/>
<path d="M452.294 339.857C452.254 338.65 452.464 337.449 452.911 336.337C453.357 335.226 454.028 334.232 454.878 333.424C455.727 332.617 456.733 332.016 457.826 331.664C458.918 331.312 460.07 331.218 461.201 331.388L473.902 305.288L480.978 318.58L467.832 341.327C467.436 343.316 466.364 345.083 464.818 346.292C463.273 347.502 461.361 348.069 459.446 347.888C457.531 347.707 455.745 346.789 454.427 345.309C453.109 343.829 452.35 341.889 452.294 339.857H452.294Z" fill="#FFB6B6"/>
<path d="M473.684 333.473L500.925 288.835L500.836 288.63C500.733 288.394 494.564 274.309 488.587 261.407C487.666 259.421 486.75 257.462 485.862 255.586C485.478 254.777 485.1 253.984 484.728 253.208C482.218 247.976 480.024 243.651 478.715 241.596C475.819 236.952 471.507 233.494 466.496 231.797L466.37 231.762L466.25 231.816C463.798 232.909 461.773 234.853 460.507 237.327C459.241 239.801 458.81 242.657 459.286 245.425C461.649 258.773 466.914 271.359 474.666 282.187L479.082 288.342L463.735 323.618L473.684 333.473Z" fill="#EB8358"/>
</g>
<defs>
<clipPath id="clip0_147_65">
<rect width="581" height="529" fill="white"/>
</clipPath>
</defs>
</svg>
