<svg width="177" height="176" viewBox="0 0 177 176" fill="none" xmlns="http://www.w3.org/2000/svg">
<path d="M157.658 15.8363C157.13 11.3243 156.468 6.47993 153.736 3.22276C152.869 2.18927 151.832 1.37097 150.686 0.817187C149.54 0.263407 148.31 -0.0143811 147.07 0.000573223C145.83 0.0155276 144.605 0.322917 143.469 0.904203C142.334 1.48549 141.311 2.32863 140.463 3.38281C138.474 5.85412 137.596 9.32423 137.516 12.7102C137.435 16.0963 138.083 19.4447 138.801 22.7271C142.601 22.8155 146.373 21.9506 149.862 20.1909C150.716 19.7048 151.603 19.2992 152.514 18.978C153.435 18.7048 154.092 19.3924 154.949 19.8718L155.42 18.8222C155.805 19.6573 156.998 19.4097 157.43 18.6068C157.863 17.8039 157.768 16.7756 157.658 15.8363Z" fill="#2F2E41"/>
<path d="M141.785 34.8876L142.886 28.3393L134.635 24.1783L119.884 15.9461C119.781 15.1822 119.482 14.4727 119.025 13.9114C118.569 13.3501 117.977 12.9635 117.328 12.8026C116.679 12.6418 116.003 12.7144 115.39 13.0107C114.777 13.3071 114.255 13.8133 113.894 14.4623C113.534 15.1114 113.351 15.8727 113.369 16.6456C113.388 17.4185 113.608 18.1665 114 18.7908C114.391 19.415 114.937 19.886 115.563 20.1415C116.189 20.3969 116.868 20.4248 117.508 20.2215L131.553 30.3183L141.785 34.8876Z" fill="#FFB8B8"/>
<path d="M136.246 33.7796L142.222 26.6632L142.34 26.7051C142.415 26.7313 149.84 29.3681 154.573 32.0476C155.108 32.3274 155.584 32.7397 155.968 33.2559C156.352 33.772 156.635 34.3796 156.797 35.0362C157.033 35.9555 157.033 36.935 156.797 37.8544C156.561 38.7737 156.1 39.5929 155.471 40.2113C154.824 40.8863 154.023 41.3298 153.165 41.4889C152.307 41.648 151.428 41.516 150.633 41.1086L136.246 33.7796Z" fill="#E66A11"/>
<path d="M136.228 65.0668L153.032 70.2977L156.425 51.8053L141.002 46.2439L136.228 65.0668Z" fill="#FFB8B8"/>
<path d="M154.913 60.0476L138.498 55.6499L135.354 46.7748C135.098 45.5079 135.16 44.1821 135.533 42.9552C135.906 41.7283 136.573 40.652 137.456 39.8545L143.454 33.9559L146.669 29.1713L146.319 26.6358C146.256 26.129 146.347 25.6127 146.577 25.1761C146.806 24.7394 147.16 24.4098 147.575 24.2444L151.861 22.4543C152.334 22.2479 152.858 22.259 153.325 22.4852C153.792 22.7114 154.167 23.1359 154.376 23.6727L154.83 24.8969C154.83 24.8969 156.767 25.9591 157.86 26.5566C158.422 26.8544 158.924 27.2871 159.333 27.8264C159.741 28.3657 160.048 28.9995 160.231 29.6863C161.903 35.9812 161.453 42.7819 158.971 48.7032L154.913 60.0476Z" fill="#EF5533"/>
<path d="M8.92492 154.26L0.987937 151.786C-0.179082 146.947 -0.31439 141.849 0.593774 136.935C4.05645 144.908 13.3561 146.412 18.8653 152.63C20.5708 154.584 21.8768 156.961 22.6866 159.584C23.4964 162.206 23.7892 165.008 23.5434 167.78L25.4447 174.197C21.5854 174.019 17.805 172.869 14.3641 170.825C10.9232 168.781 7.90354 165.893 5.51313 162.359C4.18898 160.361 3.08609 158.177 2.23049 155.857C5.55164 155.291 8.92492 154.26 8.92492 154.26Z" fill="#F2F2F2"/>
<path d="M107.533 176H29.7401C27.6552 175.997 25.6565 175.031 24.1823 173.314C22.7081 171.597 21.8788 169.268 21.8765 166.839V46.8448C21.8788 44.4161 22.7081 42.0876 24.1823 40.3703C25.6565 38.653 27.6552 37.687 29.7401 37.6842H107.533C109.618 37.6869 111.617 38.653 113.091 40.3703C114.565 42.0876 115.394 44.4161 115.397 46.8448V166.839C115.394 169.268 114.565 171.597 113.091 173.314C111.617 175.031 109.618 175.997 107.533 176V176Z" fill="#E6E6E6"/>
<path d="M77.8415 168.573H35.2081C33.3098 168.57 31.4899 167.69 30.1476 166.127C28.8053 164.563 28.0502 162.443 28.0481 160.231V53.4526C28.0502 51.2412 28.8053 49.1211 30.1476 47.5574C31.4899 45.9938 33.3098 45.1142 35.2081 45.1117H102.064C103.963 45.1142 105.783 45.9938 107.125 47.5574C108.467 49.1211 109.222 51.2412 109.225 53.4526V132.014C109.215 141.706 105.906 150.999 100.022 157.853C94.1388 164.706 86.1619 168.562 77.8415 168.573Z" fill="white"/>
<path d="M95.3951 65.6113H41.8774C41.6482 65.6116 41.4212 65.5593 41.2094 65.4575C40.9975 65.3556 40.8049 65.2061 40.6426 65.0175C40.4804 64.829 40.3516 64.605 40.2636 64.3585C40.1756 64.1119 40.1302 63.8476 40.1299 63.5806C40.1296 63.3136 40.1745 63.0491 40.2619 62.8023C40.3494 62.5555 40.4777 62.3312 40.6395 62.1421C40.8014 61.9531 40.9937 61.803 41.2053 61.7005C41.417 61.5981 41.6439 61.5451 41.8731 61.5448H95.3951C95.858 61.5441 96.3021 61.7577 96.6299 62.1385C96.9576 62.5193 97.142 63.0362 97.1426 63.5755C97.1432 64.1147 96.9599 64.6322 96.6329 65.0139C96.306 65.3957 95.8623 65.6106 95.3994 65.6113H95.3951Z" fill="#FF720C"/>
<path d="M95.3952 73.6457H41.8776C41.4146 73.6457 40.9707 73.4314 40.6433 73.0501C40.316 72.6688 40.1321 72.1516 40.1321 71.6123C40.1321 71.073 40.316 70.5559 40.6433 70.1745C40.9707 69.7932 41.4146 69.579 41.8776 69.579H95.3952C95.8581 69.579 96.3021 69.7932 96.6294 70.1745C96.9567 70.5559 97.1406 71.073 97.1406 71.6123C97.1406 72.1516 96.9567 72.6688 96.6294 73.0501C96.3021 73.4314 95.8581 73.6457 95.3952 73.6457V73.6457Z" fill="#4F4F4F"/>
<path d="M65.0762 81.68H41.8776C41.4146 81.68 40.9707 81.4657 40.6433 81.0844C40.316 80.7031 40.1321 80.1859 40.1321 79.6466C40.1321 79.1073 40.316 78.5902 40.6433 78.2088C40.9707 77.8275 41.4146 77.6133 41.8776 77.6133H65.0762C65.5391 77.6133 65.9831 77.8275 66.3104 78.2088C66.6377 78.5902 66.8216 79.1073 66.8216 79.6466C66.8216 80.1859 66.6377 80.7031 66.3104 81.0844C65.9831 81.4657 65.5391 81.68 65.0762 81.68V81.68Z" fill="#FF720C"/>
<path d="M95.3951 98.5069H41.8774C41.4145 98.5076 40.9704 98.294 40.6426 97.9132C40.3149 97.5323 40.1305 97.0154 40.1299 96.4762C40.1293 95.937 40.3126 95.4195 40.6395 95.0377C40.9665 94.656 41.4102 94.4411 41.8731 94.4404H95.3951C95.858 94.4398 96.3021 94.6533 96.6299 95.0341C96.9576 95.415 97.142 95.9319 97.1426 96.4711C97.1432 97.0104 96.9599 97.5278 96.6329 97.9096C96.306 98.2914 95.8623 98.5062 95.3994 98.5069H95.3951Z" fill="#E4E4E4"/>
<path d="M95.3952 106.541H41.8776C41.4146 106.541 40.9707 106.327 40.6433 105.946C40.316 105.564 40.1321 105.047 40.1321 104.508C40.1321 103.969 40.316 103.451 40.6433 103.07C40.9707 102.689 41.4146 102.475 41.8776 102.475H95.3952C95.8581 102.475 96.3021 102.689 96.6294 103.07C96.9567 103.451 97.1406 103.969 97.1406 104.508C97.1406 105.047 96.9567 105.564 96.6294 105.946C96.3021 106.327 95.8581 106.541 95.3952 106.541Z" fill="#E4E4E4"/>
<path d="M65.0762 114.576H41.8776C41.4146 114.576 40.9707 114.361 40.6433 113.98C40.316 113.599 40.1321 113.082 40.1321 112.542C40.1321 112.003 40.316 111.486 40.6433 111.104C40.9707 110.723 41.4146 110.509 41.8776 110.509H65.0762C65.5391 110.509 65.9831 110.723 66.3104 111.104C66.6377 111.486 66.8216 112.003 66.8216 112.542C66.8216 113.082 66.6377 113.599 66.3104 113.98C65.9831 114.361 65.5391 114.576 65.0762 114.576V114.576Z" fill="#E4E4E4"/>
<path d="M95.3951 131.403H41.8774C41.4145 131.403 40.9704 131.19 40.6426 130.809C40.3149 130.428 40.1305 129.911 40.1299 129.372C40.1293 128.833 40.3126 128.315 40.6395 127.933C40.9665 127.552 41.4102 127.337 41.8731 127.336H95.3951C95.858 127.335 96.3021 127.549 96.6299 127.93C96.9576 128.311 97.142 128.828 97.1426 129.367C97.1432 129.906 96.9599 130.423 96.6329 130.805C96.306 131.187 95.8623 131.402 95.3994 131.403H95.3951Z" fill="#E4E4E4"/>
<path d="M95.3952 139.437H41.8776C41.4146 139.437 40.9707 139.223 40.6433 138.841C40.316 138.46 40.1321 137.943 40.1321 137.403C40.1321 136.864 40.316 136.347 40.6433 135.966C40.9707 135.584 41.4146 135.37 41.8776 135.37H95.3952C95.8581 135.37 96.3021 135.584 96.6294 135.966C96.9567 136.347 97.1406 136.864 97.1406 137.403C97.1406 137.943 96.9567 138.46 96.6294 138.841C96.3021 139.223 95.8581 139.437 95.3952 139.437V139.437Z" fill="#E4E4E4"/>
<path d="M65.076 147.471H41.8774C41.415 147.47 40.9719 147.256 40.6453 146.874C40.3187 146.493 40.1353 145.976 40.1353 145.438C40.1353 144.899 40.3187 144.383 40.6453 144.001C40.9719 143.62 41.415 143.406 41.8774 143.405H65.076C65.5383 143.406 65.9814 143.62 66.3081 144.001C66.6347 144.383 66.8181 144.899 66.8181 145.438C66.8181 145.976 66.6347 146.493 66.3081 146.874C65.9814 147.256 65.5383 147.47 65.076 147.471V147.471Z" fill="#E4E4E4"/>
<path d="M111.555 66.4509C124.087 66.4509 134.246 54.6164 134.246 40.0179C134.246 25.4193 124.087 13.5848 111.555 13.5848C99.0233 13.5848 88.8643 25.4193 88.8643 40.0179C88.8643 54.6164 99.0233 66.4509 111.555 66.4509Z" fill="#333333"/>
<path opacity="0.16" d="M111.555 62.7892C105.814 62.7883 100.287 60.2523 96.0882 55.6924C91.889 51.1325 89.3298 44.8877 88.9265 38.2168C88.8897 38.8322 88.8643 39.4512 88.8643 40.0775C88.8665 47.0862 91.2581 53.807 95.5132 58.762C99.7684 63.717 105.539 66.5006 111.555 66.5006C117.572 66.5006 123.342 63.717 127.597 58.762C131.852 53.807 134.244 47.0862 134.246 40.0775C134.246 39.4512 134.22 38.8322 134.184 38.2168C133.78 44.8877 131.221 51.1325 127.022 55.6924C122.823 60.2523 117.296 62.7883 111.555 62.7892Z" fill="#231F20"/>
<path d="M111.555 52.9351C110.802 52.9341 110.079 52.585 109.547 51.9644C109.014 51.3438 108.714 50.5024 108.713 49.6247V30.4705C108.713 30.0355 108.786 29.6047 108.929 29.2027C109.071 28.8006 109.281 28.4353 109.545 28.1275C109.809 27.8198 110.122 27.5756 110.467 27.4091C110.812 27.2425 111.182 27.1567 111.555 27.1567C111.928 27.1567 112.298 27.2425 112.643 27.4091C112.988 27.5756 113.302 27.8198 113.565 28.1275C113.829 28.4353 114.039 28.8006 114.181 29.2027C114.324 29.6047 114.397 30.0355 114.397 30.4705V49.6247C114.396 50.5024 114.096 51.3438 113.563 51.9644C113.031 52.585 112.308 52.9341 111.555 52.9351V52.9351Z" fill="white"/>
<path d="M100.492 40.0478C100.493 39.1702 100.792 38.3287 101.325 37.7081C101.858 37.0875 102.58 36.7384 103.334 36.7374H119.776C120.15 36.737 120.519 36.8222 120.864 36.9884C121.21 37.1545 121.523 37.3983 121.787 37.7057C122.052 38.0132 122.261 38.3783 122.404 38.7801C122.547 39.182 122.621 39.6127 122.621 40.0477C122.621 40.4827 122.547 40.9135 122.404 41.3153C122.261 41.7172 122.052 42.0823 121.787 42.3897C121.523 42.6971 121.21 42.9409 120.864 43.107C120.519 43.2732 120.15 43.3585 119.776 43.358H103.334C102.58 43.357 101.858 43.008 101.325 42.3874C100.793 41.7668 100.493 40.9255 100.492 40.0478V40.0478Z" fill="white"/>
<path d="M145.665 45.6644L140.836 42.0748L134.492 49.4967L122.518 62.4748C121.87 62.3067 121.193 62.3717 120.578 62.6611C119.962 62.9506 119.437 63.4509 119.071 64.0959C118.705 64.7408 118.515 65.5001 118.528 66.2731C118.54 67.0462 118.754 67.7967 119.14 68.4253C119.527 69.0539 120.068 69.531 120.692 69.7935C121.316 70.056 121.994 70.0915 122.636 69.8954C123.278 69.6992 123.854 69.2806 124.288 68.695C124.721 68.1093 124.992 67.3842 125.063 66.6156L138.27 55.085L145.665 45.6644Z" fill="#FFB8B8"/>
<path d="M142.753 51.2633L139.255 42.1804L139.331 42.0676C139.38 41.9968 144.204 34.9123 148.076 30.7617C148.496 30.2841 148.999 29.9188 149.552 29.6913C150.105 29.4638 150.694 29.3795 151.278 29.4443C152.098 29.5257 152.881 29.8843 153.529 30.4761C154.177 31.0679 154.663 31.8672 154.927 32.776C155.229 33.7247 155.29 34.7547 155.104 35.7429C154.917 36.7311 154.49 37.6357 153.873 38.3486L142.753 51.2633Z" fill="#FF720C"/>
<path d="M145.913 21.4089C150.106 21.4089 153.504 17.4498 153.504 12.566C153.504 7.68224 150.106 3.72314 145.913 3.72314C141.721 3.72314 138.322 7.68224 138.322 12.566C138.322 17.4498 141.721 21.4089 145.913 21.4089Z" fill="#FFB8B8"/>
<path d="M134.119 169.666H130.981L129.488 155.566H134.119V169.666Z" fill="#FFB8B8"/>
<path d="M135.776 176H133.525L133.124 173.525L132.095 176H126.126C125.84 176 125.561 175.893 125.331 175.696C125.1 175.498 124.93 175.22 124.845 174.902C124.76 174.584 124.764 174.242 124.858 173.927C124.951 173.612 125.128 173.34 125.364 173.151L130.13 169.316V166.814L135.144 167.162L135.776 176Z" fill="#2F2E41"/>
<path d="M173.45 166.56L170.535 167.913L164.67 155.456L168.974 153.46L173.45 166.56Z" fill="#FFB8B8"/>
<path d="M177 171.732L174.909 172.701L173.75 170.575L173.58 173.318L168.035 175.889C167.769 176.012 167.476 176.033 167.199 175.949C166.922 175.865 166.676 175.68 166.496 175.421C166.316 175.162 166.211 174.843 166.198 174.51C166.185 174.177 166.263 173.848 166.422 173.57L169.633 167.954L168.838 165.629L173.607 163.793L177 171.732Z" fill="#2F2E41"/>
<path d="M135.33 163.189H128.839L130.633 127.662L129.321 103.582L129.324 103.563L134.215 69.0444C134.6 66.3225 135.64 63.7835 137.214 61.7226L137.273 61.6444L153.642 66.354L155.288 70.7257C160.908 74.6194 162.683 96.5761 162.756 97.5114L165.135 124.883L170.955 158.429L166.856 161L166.788 160.841L153.849 130.869L145.678 99.2612L140.445 127.709L135.33 163.189Z" fill="#333333"/>
<path d="M155.314 12.9823C155.045 10.9268 154.765 8.85415 154.134 6.91873C153.503 4.98331 152.485 3.1705 151.026 2.07412C148.716 0.338259 145.725 0.673045 143.135 1.67156C141.132 2.44376 139.176 3.61745 137.764 5.50435C136.351 7.39126 135.557 10.0837 136.083 12.5509C138.846 11.7904 141.609 11.03 144.372 10.2695L144.069 10.5185C144.977 11.0454 145.769 11.8063 146.386 12.7432C147.003 13.6801 147.429 14.7685 147.631 15.9257C147.829 17.097 147.8 18.3048 147.548 19.4617C147.296 20.6187 146.826 21.6959 146.172 22.6153C148.057 21.8366 149.941 21.0579 151.825 20.2792C152.988 19.7986 154.233 19.2448 154.923 18.0119C155.723 16.5826 155.537 14.6881 155.314 12.9823Z" fill="#2F2E41"/>
</svg>
