<svg width="217" height="215" viewBox="0 0 217 215" fill="none" xmlns="http://www.w3.org/2000/svg">
<g clip-path="url(#clip0_428_328)">
<path d="M214.079 73.5634C214.333 74.7306 214.572 75.9037 214.795 77.0828H139.034V73.5634H214.079Z" fill="#E6E6E6"/>
<path d="M211.664 64.2861C210.444 60.2458 209.022 56.2936 207.404 52.4502C206.907 51.2652 206.39 50.092 205.854 48.9307C205.766 48.7315 205.672 48.5322 205.578 48.3329V74.5242H212.125V65.8448L211.664 64.2861Z" fill="#E6E6E6"/>
<path d="M207.404 52.4502H205.578V48.9308H205.854C206.391 50.0909 206.908 51.264 207.404 52.4502Z" fill="#CCCCCC"/>
<path d="M211.664 64.2861H205.578V67.8056H212.125V65.8448L211.664 64.2861Z" fill="#CCCCCC"/>
<path d="M202.033 44.1327H195.488V74.5246H202.033V44.1327Z" fill="#E6E6E6"/>
<path d="M202.033 48.9314H195.488V52.4505H202.033V48.9314Z" fill="#CCCCCC"/>
<path d="M202.033 64.2874H195.488V67.8064H202.033V64.2874Z" fill="#CCCCCC"/>
<path d="M172.183 43.9558H148.702C148.34 43.9565 147.993 44.1254 147.737 44.4255C147.481 44.7257 147.337 45.1327 147.337 45.5572V73.1007C147.337 73.2574 147.357 73.4131 147.395 73.5634C147.48 73.8925 147.653 74.1808 147.888 74.3858C148.124 74.5908 148.409 74.7017 148.702 74.7021H172.183C172.476 74.7017 172.762 74.5909 172.997 74.3858C173.232 74.1808 173.405 73.8925 173.491 73.5634C173.528 73.4132 173.548 73.2574 173.548 73.1007V45.5572C173.548 45.1327 173.404 44.7257 173.148 44.4255C172.892 44.1254 172.545 43.9565 172.183 43.9558V43.9558Z" fill="#E6E6E6"/>
<path d="M170.515 45.9131H150.371C150.009 45.9137 149.662 46.0826 149.406 46.3828C149.15 46.683 149.006 47.0899 149.006 47.5145V71.1436C149.006 71.5681 149.15 71.975 149.406 72.2752C149.662 72.5754 150.009 72.7443 150.371 72.7449H170.515C170.876 72.7443 171.223 72.5754 171.479 72.2752C171.735 71.975 171.879 71.5681 171.88 71.1436V47.5145C171.879 47.0899 171.735 46.683 171.479 46.3828C171.223 46.0826 170.876 45.9137 170.515 45.9131V45.9131Z" fill="white"/>
<path d="M167.002 50.0339H153.884C153.522 50.0346 153.175 50.2035 152.919 50.5037C152.663 50.8038 152.519 51.2108 152.519 51.6353V67.0227C152.519 67.4472 152.663 67.8541 152.919 68.1543C153.175 68.4545 153.522 68.6234 153.884 68.6241H167.002C167.363 68.6219 167.709 68.4524 167.965 68.1526C168.22 67.8528 168.365 67.4467 168.367 67.0227V51.6353C168.366 51.2108 168.222 50.8038 167.966 50.5037C167.71 50.2035 167.363 50.0346 167.002 50.0339V50.0339Z" fill="#CCCCCC"/>
<path d="M166.193 64.3086L163.422 58.6793C163.369 58.5711 163.292 58.4812 163.2 58.4188C163.108 58.3563 163.003 58.3234 162.897 58.3234C162.79 58.3234 162.685 58.3563 162.593 58.4188C162.501 58.4812 162.424 58.5711 162.371 58.6793L160.348 62.7899L157.695 57.3995C157.641 57.2914 157.565 57.2015 157.472 57.1391C157.38 57.0766 157.276 57.0437 157.169 57.0437C157.063 57.0437 156.958 57.0766 156.866 57.1391C156.774 57.2015 156.697 57.2914 156.644 57.3996L153.873 63.0289L150.577 69.7259H156.934L156.304 71.0056H169.489L166.193 64.3086Z" fill="white"/>
<path d="M165.215 55.6496C166.269 55.6496 167.124 54.647 167.124 53.4102C167.124 52.1734 166.269 51.1708 165.215 51.1708C164.16 51.1708 163.306 52.1734 163.306 53.4102C163.306 54.647 164.16 55.6496 165.215 55.6496Z" fill="white"/>
<path d="M216.976 98.4309C216.955 97.0501 216.908 95.6765 216.836 94.31C216.806 93.6552 216.77 93.004 216.724 92.3528H203.916C203.554 92.3534 203.207 92.5223 202.951 92.8225C202.695 93.1227 202.551 93.5296 202.551 93.9542V121.498C202.55 121.624 202.563 121.749 202.59 121.871C202.662 122.221 202.831 122.532 203.072 122.754C203.312 122.977 203.609 123.098 203.916 123.099H215.723C215.784 122.693 215.841 122.281 215.893 121.871C215.926 121.629 215.96 121.384 215.99 121.142C216.063 120.562 216.133 119.982 216.196 119.402C216.287 118.612 216.369 117.818 216.442 117.021C216.709 114.163 216.881 111.275 216.958 108.356V108.352C216.985 107.253 216.999 106.148 217 105.039V100.769C217 99.986 216.994 99.2067 216.976 98.4309Z" fill="#E6E6E6"/>
<path d="M216.976 98.4309C216.954 97.0502 216.908 95.6766 216.836 94.3101H205.584C205.222 94.3107 204.875 94.4796 204.619 94.7798C204.364 95.08 204.22 95.4869 204.219 95.9114V119.541C204.22 119.965 204.364 120.372 204.619 120.672C204.875 120.972 205.222 121.141 205.584 121.142H215.99C216.063 120.562 216.132 119.982 216.196 119.402C216.287 118.612 216.369 117.818 216.442 117.021C216.709 114.164 216.881 111.275 216.958 108.356V108.352C216.985 107.253 216.999 106.148 217 105.039V100.769C217 99.986 216.994 99.2067 216.976 98.4309Z" fill="white"/>
<path d="M216.976 98.4309H209.097C208.735 98.4315 208.389 98.6005 208.133 98.9006C207.877 99.2008 207.733 99.6078 207.732 100.032V115.42C207.733 115.844 207.877 116.251 208.133 116.551C208.389 116.851 208.735 117.02 209.097 117.021H216.442C216.709 114.163 216.881 111.275 216.958 108.356V108.352C216.985 107.253 216.999 106.148 217 105.039V100.769C217 99.986 216.994 99.2067 216.976 98.4309Z" fill="#CCCCCC"/>
<path d="M216.958 108.356C216.882 111.274 216.71 114.162 216.442 117.021C216.369 117.818 216.287 118.612 216.196 119.402H211.518L212.149 118.124H205.791L207.732 114.178L209.085 111.427L211.858 105.797C211.911 105.689 211.987 105.598 212.079 105.535C212.171 105.473 212.276 105.44 212.383 105.44C212.489 105.44 212.594 105.473 212.686 105.535C212.778 105.598 212.855 105.689 212.908 105.797L215.562 111.189L216.958 108.356Z" fill="white"/>
<path d="M193.971 28.7784H139.034V25.2589H191.247C192.175 26.4083 193.083 27.5815 193.971 28.7784Z" fill="#E6E6E6"/>
<path d="M168.215 4.37C170.454 5.81479 172.636 7.36277 174.762 9.01397V26.2163H168.215V4.37Z" fill="#E6E6E6"/>
<path d="M174.76 15.9802H168.215V19.4993H174.76V15.9802Z" fill="#CCCCCC"/>
<path d="M184.852 18.0528V26.2162H178.305V11.9071C179.831 13.2131 181.323 14.5713 182.78 15.9817C183.478 16.6578 184.168 17.3482 184.852 18.0528Z" fill="#E6E6E6"/>
<path d="M184.852 18.0528V19.4976H178.305V15.9817H182.78C183.478 16.6578 184.168 17.3482 184.852 18.0528Z" fill="#CCCCCC"/>
<path d="M161.532 0.448387C163.264 1.36293 164.967 2.33798 166.64 3.37356L165.293 6.56206L160.819 17.1703L159.487 20.3232L157.403 25.259L156.945 26.3443L155.079 25.259L151.081 22.9352L153.62 16.914H153.623L154.952 13.7611L159.429 3.15292L160.746 0.0355882L160.761 0L161.532 0.448387Z" fill="#E6E6E6"/>
<path d="M166.625 3.40558L165.293 6.56206L159.429 3.15292L160.746 0.035586L160.761 0L161.532 0.448384L166.625 3.40558Z" fill="#CCCCCC"/>
<path d="M154.952 13.7621L153.621 16.9158L159.487 20.3224L160.818 17.1687L154.952 13.7621Z" fill="#CCCCCC"/>
<path d="M215.893 121.871C215.841 122.281 215.784 122.693 215.723 123.099C215.617 123.868 215.501 124.629 215.377 125.391H139.034V121.871H215.893Z" fill="#E6E6E6"/>
<path d="M174.76 92.4398H168.215V122.832H174.76V92.4398Z" fill="#E6E6E6"/>
<path d="M174.76 97.2385H168.215V100.758H174.76V97.2385Z" fill="#CCCCCC"/>
<path d="M174.76 112.594H168.215V116.114H174.76V112.594Z" fill="#CCCCCC"/>
<path d="M184.851 92.4398H178.306V122.832H184.851V92.4398Z" fill="#E6E6E6"/>
<path d="M184.851 97.2385H178.306V100.758H184.851V97.2385Z" fill="#CCCCCC"/>
<path d="M184.851 112.594H178.306V116.114H184.851V112.594Z" fill="#CCCCCC"/>
<path d="M162.575 92.3142L151.08 119.551L156.945 122.957L168.441 95.7208L162.575 92.3142Z" fill="#E6E6E6"/>
<path d="M160.76 96.6147L159.429 99.7684L165.295 103.175L166.626 100.021L160.76 96.6147Z" fill="#CCCCCC"/>
<path d="M154.952 110.376L153.621 113.53L159.487 116.937L160.818 113.783L154.952 110.376Z" fill="#CCCCCC"/>
<path d="M88.8264 135.434C89.1 135.619 89.3607 135.828 89.6061 136.061L116.615 126.201L118.138 118.341L128.551 119.487L127.008 133.709C126.883 134.858 126.444 135.929 125.757 136.76C125.069 137.592 124.17 138.139 123.195 138.32L91.4098 144.223C90.946 145.541 90.1511 146.663 89.1308 147.438C88.1104 148.214 86.9129 148.607 85.6977 148.564C84.4824 148.522 83.3069 148.047 82.3275 147.202C81.3481 146.357 80.6112 145.182 80.2149 143.834C79.8186 142.485 79.7817 141.027 80.1089 139.654C80.4362 138.28 81.1122 137.056 82.0471 136.144C82.9819 135.233 84.1313 134.676 85.3423 134.549C86.5533 134.422 87.7686 134.731 88.8264 135.434V135.434Z" fill="#FFB8B8"/>
<path d="M133.364 124.202L133.185 120.615V120.612L133.136 119.629L132.608 109.068C132.766 106.866 132.174 104.68 130.961 102.989C129.748 101.299 128.014 100.24 126.137 100.046C125.598 99.9897 125.054 100.006 124.518 100.096C122.924 100.361 121.452 101.249 120.343 102.617C119.233 103.985 118.55 105.753 118.404 107.633L117.309 112.978L115.395 122.327C115.259 122.981 115.316 123.67 115.555 124.282C115.793 124.894 116.201 125.393 116.712 125.7C117.007 125.882 117.329 125.994 117.661 126.028L120.853 126.362L123.926 126.683L127.472 127.053L127.727 127.078L128.382 127.149L130.576 127.377H130.582C130.948 127.411 131.317 127.354 131.663 127.209C132.009 127.065 132.325 126.835 132.59 126.537C132.783 126.316 132.946 126.061 133.073 125.782C133.294 125.298 133.395 124.75 133.364 124.202V124.202Z" fill="#FF720C"/>
<path d="M163.002 80.7063C163.002 92.8858 153.401 91.0436 141.558 91.0436C129.715 91.0436 120.114 92.8858 120.114 80.7063C120.114 68.5269 124.804 46.938 141.558 46.938C158.889 46.938 163.002 68.5269 163.002 80.7063Z" fill="#2F2E41"/>
<path d="M151.689 86.0658C157.325 79.4557 157.325 68.7386 151.689 62.1285C146.054 55.5184 136.918 55.5184 131.283 62.1285C125.648 68.7386 125.648 79.4557 131.283 86.0658C136.918 92.6759 146.054 92.6759 151.689 86.0658Z" fill="#FFB8B8"/>
<path d="M161.799 98.1391C161.521 97.8252 161.226 97.5328 160.916 97.2637C158.954 95.5251 156.489 94.7597 154.051 95.1321L127.46 99.0785C125.025 99.4333 122.802 100.887 121.265 103.131C119.727 105.375 118.995 108.233 119.224 111.1C119.3 112.096 119.385 113.146 119.478 114.238C119.6 115.608 119.736 117.046 119.894 118.533C120.155 121.035 120.474 123.676 120.853 126.362C121.183 128.675 121.56 131.021 121.99 133.337C122.115 134.006 122.244 134.673 122.379 135.337C122.378 135.339 122.379 135.341 122.379 135.343C122.38 135.345 122.381 135.346 122.382 135.348C122.397 135.43 122.412 135.512 122.43 135.59C122.429 135.596 122.431 135.602 122.433 135.608C122.621 136.533 122.819 137.447 123.025 138.351C123.104 138.686 123.18 139.017 123.258 139.344C123.471 140.234 123.695 141.106 123.926 141.963C125.658 148.344 127.949 153.778 130.973 156.667C131.013 156.71 131.052 156.746 131.095 156.785L131.216 156.895L131.392 156.831L132.138 156.571L132.775 156.344L141.076 153.415L143.141 152.685L149.779 150.34H149.782L155.853 148.198L156.593 147.935L161.808 146.095L161.975 143.81L162.199 140.778L162.333 138.956L163.388 124.587L164.004 116.203L164.672 107.1C164.796 105.449 164.602 103.787 164.105 102.236C163.607 100.685 162.819 99.2848 161.799 98.1391V98.1391Z" fill="#333333"/>
<path d="M176.667 167.671C176.597 167.432 176.53 167.194 176.46 166.959C173.342 156.283 168.743 148.209 161.974 143.81C161.972 143.81 161.972 143.807 161.968 143.807L161.853 143.732L155.956 146.127L155.228 146.422L154.469 146.732L154.46 146.735L148.939 148.977L148.93 148.981L144.597 150.739H144.594L140.587 152.365H140.584L139.652 152.746L132.648 155.589L131.835 155.92L131.106 156.216L130.994 156.262L130.973 156.667L130.472 166.959L130.439 167.671L129.814 180.514L109.061 215H123.258C128.016 215.001 132.766 214.577 137.468 213.73L150.789 196.89C150.901 196.755 151.042 196.658 151.197 196.609C151.353 196.561 151.516 196.563 151.67 196.616C151.825 196.669 151.964 196.77 152.073 196.908C152.181 197.047 152.256 197.218 152.288 197.403L154.245 208.79C163.885 204.792 172.902 198.971 180.941 191.56C180.007 182.716 178.642 174.656 176.667 167.671Z" fill="#333333"/>
<path d="M124.814 72.4366H130.521L133.039 64.1668L133.543 72.4366H136.27L137.739 67.6125L138.033 72.4366H158.302C158.302 70.0836 157.907 67.7536 157.139 65.5797C156.371 63.4058 155.246 61.4305 153.828 59.7667C152.409 58.1029 150.726 56.7831 148.872 55.8826C147.019 54.9821 145.033 54.5187 143.027 54.5187H140.089C136.038 54.5187 132.153 56.4065 129.288 59.7667C126.424 63.127 124.814 67.6844 124.814 72.4366V72.4366Z" fill="#2F2E41"/>
<path d="M89.7097 162.115C88.7779 162.574 87.7717 162.788 86.7618 162.742C85.7519 162.695 84.7629 162.39 83.8646 161.847C82.9662 161.304 82.1803 160.536 81.5623 159.598C80.9442 158.66 80.5089 157.575 80.2871 156.418L55.8762 153.175L64.059 141.681L85.9856 146.522C87.6667 146.214 89.3859 146.64 90.8172 147.719C92.2486 148.799 93.2927 150.456 93.7517 152.378C94.2108 154.3 94.0528 156.353 93.3079 158.147C92.5629 159.942 91.2826 161.354 89.7097 162.115L89.7097 162.115Z" fill="#A0616A"/>
<path d="M76.5483 140.839L66.2306 138.675L65.4814 138.518C64.8826 138.393 64.3132 138.12 63.8106 137.718C63.3081 137.317 62.8837 136.794 62.5654 136.186C62.2471 135.578 62.042 134.898 61.9637 134.191C61.8854 133.483 61.9356 132.764 62.111 132.081L67.1772 112.334L67.3288 111.747C67.9614 109.237 67.8488 106.55 67.0094 104.125C66.17 101.7 64.6536 99.681 62.7085 98.3988C61.3919 97.5412 59.9243 97.0514 58.42 96.9674C56.9157 96.8835 55.4151 97.2077 54.035 97.9149C52.655 98.6221 51.4325 99.6932 50.4628 101.045C49.4931 102.396 48.8023 103.992 48.444 105.708L41.9823 136.643L41.7426 137.789C41.2913 139.948 41.2421 142.195 41.5983 144.378C41.9546 146.561 42.7079 148.628 43.807 150.438C44.906 152.248 46.325 153.76 47.967 154.868C49.6091 155.977 51.4357 156.657 53.3223 156.863C53.3434 156.867 53.3617 156.867 53.383 156.87L57.251 157.272L62.2686 157.795L68.5788 158.454L74.4673 159.069C75.2385 159.151 76.0079 158.89 76.6227 158.338C77.2375 157.786 77.6528 156.982 77.7861 156.087C77.7952 156.037 77.8012 155.988 77.8073 155.938L79.0572 144.992L79.0694 144.892C79.1772 143.965 78.9748 143.025 78.5048 142.27C78.0348 141.514 77.3336 141.001 76.5483 140.839V140.839Z" fill="#CCCCCC"/>
<path d="M60.6522 57.899C56.5334 67.398 53.2873 77.1952 44.2022 77.1952C39.8394 77.1952 35.6553 75.1622 32.5703 71.5435C29.4853 67.9248 27.7522 63.0167 27.7522 57.899C27.7522 47.242 35.1178 38.7363 44.2022 38.6028C53.4353 38.4672 68.3184 40.2186 60.6522 57.899Z" fill="#2F2E41"/>
<path d="M70.9847 182.165L70.6114 177.795L70.3323 177.813L21.2803 180.585L21.4077 185.008L21.6232 192.584C29.2133 199.366 37.642 204.749 46.6178 208.545L46.9364 205.648C46.9643 205.412 47.0608 205.194 47.2097 205.032C47.3586 204.87 47.5506 204.773 47.7534 204.758C47.9561 204.743 48.1571 204.811 48.3222 204.95C48.4873 205.088 48.6065 205.29 48.6595 205.52L49.6272 209.751C57.4462 212.709 65.5659 214.433 73.7726 214.879L70.9847 182.165Z" fill="#2F2E41"/>
<path d="M55.2151 72.6134C60.8502 66.0033 60.8502 55.2862 55.2151 48.6761C49.58 42.066 40.4436 42.066 34.8085 48.6761C29.1734 55.2862 29.1734 66.0033 34.8085 72.6134C40.4436 79.2235 49.58 79.2235 55.2151 72.6134Z" fill="#A0616A"/>
<path d="M73.803 178.09L70.9422 167.671L70.8936 167.493L70.748 166.959L69.9319 163.991C69.668 163.027 69.4161 162.059 69.1825 161.087C68.9672 160.212 68.7659 159.334 68.5789 158.454C68.312 157.23 68.0693 156.001 67.8509 154.767C67.1105 150.622 66.6168 146.421 66.3734 142.195C66.3066 141.024 66.259 139.851 66.2307 138.675C66.0531 131.47 66.6061 124.265 67.8781 117.213C68.9855 111.115 68.394 104.761 66.1908 99.0863C63.9876 93.412 60.2891 88.7176 55.6402 85.6947C52.5895 83.717 49.2131 82.529 45.7381 82.2108C45.4984 82.1895 45.2587 82.1717 45.0161 82.1539C41.3453 81.8818 37.6693 82.5803 34.2595 84.1977C30.8496 85.8151 27.793 88.3102 25.3152 91.4988C23.9881 93.1945 22.8354 95.0673 21.8809 97.0787C19.2327 102.676 18.2385 109.144 19.0536 115.473L22.4634 142.33L21.6869 153.636L20.7707 166.959L20.7221 167.671L19.7452 181.877C19.6989 182.539 19.8356 183.201 20.135 183.765C20.4344 184.329 20.8806 184.765 21.4077 185.008C21.7163 185.153 22.046 185.227 22.3785 185.225C22.4271 185.225 22.4726 185.225 22.5212 185.222L70.9847 182.165L71.4276 182.136C71.8319 182.112 72.2259 181.978 72.5792 181.747C72.9325 181.515 73.2357 181.191 73.4653 180.8C73.6949 180.409 73.8447 179.961 73.9033 179.491C73.9619 179.021 73.9276 178.542 73.803 178.09L73.803 178.09Z" fill="#CCCCCC"/>
<path d="M60.3239 51.0789C57.0265 53.7448 53.1128 55.1636 49.1081 55.1448C50.5366 56.3067 52.1629 57.0915 53.8749 57.4452C48.5504 58.785 43.0474 58.8212 37.7104 57.5518C36.5241 57.3286 35.3794 56.8675 34.3265 56.1885C33.3018 55.4588 32.4445 54.2969 32.2378 52.9117C31.8832 50.5352 33.4619 48.3761 35.1025 46.9209C37.6144 44.727 40.5106 43.2154 43.5816 42.4956C46.6526 41.7757 49.8216 41.8656 52.8594 42.7587C54.843 43.3601 56.83 44.3763 58.1184 46.2448C59.4068 48.1134 59.7884 50.9941 58.5609 52.9182L60.3239 51.0789Z" fill="#2F2E41"/>
<path d="M61.0616 158.594C60.1385 159.076 59.1364 159.316 58.1259 159.295C57.1154 159.275 56.1211 158.994 55.2129 158.474C54.3048 157.954 53.5049 157.206 52.8696 156.284C52.2343 155.362 51.7792 154.288 51.5361 153.137L27.071 150.515L35.0398 138.816L57.0505 143.099C58.7256 142.749 60.4522 143.131 61.9032 144.173C63.3541 145.216 64.4286 146.847 64.923 148.757C65.4174 150.667 65.2974 152.723 64.5857 154.536C63.874 156.349 62.6201 157.793 61.0616 158.594L61.0616 158.594Z" fill="#A0616A"/>
<path d="M47.5128 137.657L41.9823 136.643L36.4033 135.618C35.8025 135.508 35.2283 135.25 34.7184 134.861C34.2086 134.472 33.7747 133.961 33.4452 133.362C33.1157 132.762 32.8981 132.088 32.8066 131.382C32.7152 130.677 32.752 129.957 32.9145 129.27L37.7563 108.808C38.3422 106.282 38.1799 103.599 37.2959 101.196C36.4119 98.7926 34.8586 96.8128 32.8903 95.5804C31.5606 94.7483 30.084 94.291 28.5774 94.2446C27.0709 94.1983 25.5759 94.5643 24.2109 95.3135C22.8417 96.051 21.6371 97.1513 20.6922 98.5277C19.7472 99.9042 19.0876 101.519 18.7653 103.246L12.6585 135.49C12.2471 137.665 12.2411 139.919 12.641 142.097C13.0409 144.275 13.8372 146.326 14.9754 148.109C16.1137 149.893 17.5669 151.367 19.2358 152.431C20.9046 153.494 22.7497 154.123 24.6447 154.272L45.7684 155.934C46.5408 155.996 47.3049 155.716 47.9093 155.148C48.5138 154.581 48.9147 153.768 49.0326 152.87C49.0418 152.821 49.0447 152.771 49.0508 152.721L50.0975 141.746L50.1066 141.647C50.1968 140.717 49.9772 139.783 49.4937 139.04C49.0103 138.296 48.3005 137.801 47.5128 137.657Z" fill="#CCCCCC"/>
<path d="M141.096 120.647L139.83 121.457L124.233 131.44L122.967 132.25C122.353 132.644 121.897 133.308 121.699 134.096C121.502 134.884 121.579 135.732 121.914 136.453L133.528 161.423C133.864 162.144 134.43 162.678 135.102 162.91C135.774 163.142 136.497 163.051 137.112 162.659L137.115 162.657L155.237 151.058L155.24 151.056C155.855 150.662 156.31 149.998 156.508 149.21C156.705 148.422 156.628 147.574 156.294 146.853L144.679 121.883C144.343 121.162 143.777 120.627 143.105 120.396C142.434 120.164 141.711 120.255 141.096 120.647V120.647Z" fill="#E6E6E6"/>
<path d="M141.46 121.43L139.961 122.39L124.831 132.073L123.331 133.033C122.894 133.314 122.569 133.786 122.428 134.348C122.288 134.909 122.343 135.512 122.581 136.026L134.196 160.996C134.435 161.509 134.838 161.89 135.316 162.055C135.795 162.22 136.309 162.156 136.747 161.876L136.751 161.874L154.873 150.275L154.876 150.273C155.314 149.992 155.638 149.52 155.779 148.958C155.919 148.397 155.865 147.794 155.626 147.28L144.012 122.31C143.772 121.797 143.369 121.416 142.891 121.251C142.413 121.086 141.898 121.15 141.46 121.43V121.43Z" fill="white"/>
<path d="M141.886 128.48C141.829 128.36 141.735 128.271 141.623 128.232C141.511 128.194 141.391 128.208 141.288 128.273L140.684 128.661L134.529 132.601C134.427 132.667 134.351 132.777 134.319 132.908C134.286 133.039 134.299 133.18 134.355 133.3C134.411 133.42 134.505 133.509 134.616 133.548C134.728 133.587 134.848 133.573 134.95 133.508L141.71 129.181C141.812 129.115 141.887 129.004 141.92 128.873C141.953 128.741 141.941 128.6 141.886 128.48Z" fill="#E6E6E6"/>
<path d="M144.188 128.989C144.161 128.929 144.123 128.877 144.079 128.834C144.034 128.792 143.982 128.76 143.927 128.742C143.872 128.723 143.814 128.717 143.756 128.725C143.699 128.732 143.644 128.753 143.593 128.786L135.242 134.131C135.191 134.163 135.146 134.207 135.11 134.26C135.074 134.313 135.047 134.373 135.031 134.438C135.015 134.503 135.01 134.571 135.016 134.638C135.022 134.706 135.039 134.771 135.067 134.83C135.095 134.889 135.132 134.942 135.177 134.984C135.222 135.027 135.274 135.058 135.329 135.077C135.384 135.096 135.442 135.102 135.5 135.095C135.557 135.088 135.613 135.067 135.663 135.035L136.052 134.786L138.482 133.23H138.485L144.012 129.69C144.063 129.658 144.108 129.614 144.145 129.561C144.182 129.508 144.209 129.448 144.225 129.382C144.242 129.317 144.247 129.249 144.24 129.181C144.234 129.114 144.216 129.048 144.188 128.989V128.989Z" fill="#E6E6E6"/>
<path d="M135.111 137.508L132.46 131.804C132.432 131.746 132.386 131.704 132.332 131.686C132.279 131.668 132.221 131.676 132.172 131.707L130.885 132.53L130.218 132.957L126.635 135.248L125.94 135.693C125.891 135.725 125.855 135.779 125.84 135.842C125.825 135.906 125.831 135.974 125.858 136.031L126.028 136.398L128.51 141.736C128.537 141.793 128.582 141.835 128.635 141.853C128.689 141.871 128.746 141.863 128.795 141.832L133.073 139.095L133.74 138.668L135.026 137.846C135.051 137.831 135.073 137.809 135.09 137.784C135.108 137.759 135.121 137.729 135.129 137.698C135.137 137.666 135.139 137.633 135.136 137.601C135.133 137.568 135.125 137.537 135.111 137.508V137.508Z" fill="#E6E6E6"/>
<path d="M145.238 135.718C145.182 135.598 145.088 135.509 144.977 135.471C144.865 135.432 144.745 135.447 144.643 135.512L135.475 141.38C135.394 141.432 135.329 141.512 135.289 141.61C135.25 141.708 135.237 141.818 135.254 141.924C135.26 141.979 135.276 142.032 135.299 142.081C135.322 142.13 135.352 142.174 135.387 142.212L135.39 142.216C135.458 142.288 135.543 142.333 135.634 142.346C135.725 142.358 135.816 142.338 135.897 142.287L145.065 136.419C145.115 136.386 145.16 136.342 145.196 136.289C145.232 136.237 145.259 136.176 145.275 136.111C145.291 136.045 145.296 135.977 145.29 135.91C145.283 135.843 145.266 135.777 145.238 135.718Z" fill="#E6E6E6"/>
<path d="M147.543 136.227C147.515 136.167 147.478 136.115 147.433 136.073C147.388 136.03 147.336 135.999 147.28 135.98C147.225 135.961 147.167 135.956 147.109 135.963C147.052 135.971 146.996 135.991 146.946 136.024L136.185 142.91C136.104 142.96 136.039 143.039 135.999 143.136C135.959 143.233 135.947 143.342 135.964 143.447V143.451C135.97 143.506 135.985 143.559 136.009 143.607C136.032 143.658 136.063 143.704 136.1 143.743C136.167 143.816 136.252 143.862 136.343 143.875C136.434 143.888 136.527 143.866 136.607 143.814L147.367 136.928C147.47 136.862 147.546 136.751 147.579 136.62C147.611 136.489 147.599 136.347 147.543 136.227Z" fill="#E6E6E6"/>
<path d="M132.404 147.092C133.435 147.092 134.27 146.112 134.27 144.903C134.27 143.694 133.435 142.714 132.404 142.714C131.374 142.714 130.539 143.694 130.539 144.903C130.539 146.112 131.374 147.092 132.404 147.092Z" fill="#E6E6E6"/>
<path d="M146.556 111.039L145.29 111.849L129.694 121.831L128.428 122.642C127.813 123.036 127.358 123.7 127.16 124.488C126.963 125.276 127.04 126.124 127.374 126.845L138.989 151.815C139.325 152.535 139.891 153.07 140.563 153.302C141.234 153.534 141.957 153.443 142.572 153.051L142.575 153.049L160.698 141.45L160.701 141.448C161.315 141.054 161.771 140.39 161.969 139.602C162.166 138.814 162.089 137.966 161.754 137.244L150.14 112.275C149.804 111.554 149.238 111.019 148.566 110.788C147.894 110.556 147.171 110.646 146.556 111.039V111.039Z" fill="#CCCCCC"/>
<path d="M146.921 111.822L145.421 112.781L130.291 122.465L128.792 123.425C128.354 123.705 128.03 124.178 127.889 124.739C127.749 125.3 127.803 125.904 128.042 126.418L139.656 151.388C139.896 151.901 140.299 152.282 140.777 152.447C141.255 152.612 141.77 152.547 142.208 152.268L142.211 152.266L160.334 140.667L160.337 140.665C160.774 140.384 161.099 139.911 161.24 139.35C161.38 138.789 161.325 138.185 161.087 137.672L149.472 112.702C149.233 112.189 148.83 111.808 148.352 111.643C147.873 111.478 147.359 111.542 146.921 111.822Z" fill="white"/>
<path d="M147.346 118.872C147.29 118.752 147.196 118.663 147.084 118.624C146.972 118.586 146.851 118.6 146.749 118.665L143.636 120.658L142.768 121.213L139.989 122.992C139.888 123.058 139.812 123.169 139.78 123.3C139.747 123.431 139.76 123.572 139.816 123.692C139.871 123.812 139.965 123.901 140.077 123.94C140.188 123.979 140.309 123.964 140.411 123.9L143.688 121.804L144.373 121.363L147.17 119.573C147.272 119.507 147.348 119.396 147.381 119.265C147.414 119.133 147.402 118.992 147.346 118.872V118.872Z" fill="#CCCCCC"/>
<path d="M149.649 119.38C149.621 119.321 149.584 119.269 149.539 119.226C149.494 119.184 149.443 119.152 149.387 119.133C149.332 119.114 149.274 119.109 149.217 119.116C149.16 119.124 149.104 119.145 149.054 119.178L144.713 121.957L144.045 122.384L140.702 124.523C140.652 124.555 140.607 124.599 140.571 124.652C140.535 124.704 140.508 124.765 140.492 124.83C140.475 124.895 140.47 124.963 140.476 125.03C140.483 125.097 140.5 125.162 140.528 125.222C140.555 125.281 140.593 125.334 140.638 125.376C140.683 125.418 140.734 125.45 140.79 125.469C140.845 125.488 140.903 125.494 140.96 125.487C141.018 125.479 141.073 125.459 141.124 125.426L144.467 123.288L145.135 122.861L149.473 120.081C149.524 120.049 149.569 120.006 149.606 119.953C149.642 119.9 149.67 119.839 149.686 119.774C149.702 119.709 149.708 119.64 149.701 119.573C149.695 119.505 149.677 119.44 149.649 119.38V119.38Z" fill="#CCCCCC"/>
<path d="M140.572 127.9L138.457 123.352L138.093 122.569L137.92 122.195C137.893 122.138 137.847 122.096 137.793 122.078C137.739 122.06 137.681 122.067 137.632 122.099L133.34 124.846L131.401 126.085C131.352 126.117 131.316 126.171 131.301 126.234C131.286 126.297 131.292 126.365 131.319 126.423L131.492 126.793L131.68 127.202L131.856 127.576V127.579L133.971 132.127C133.998 132.184 134.043 132.226 134.096 132.244C134.15 132.262 134.207 132.255 134.256 132.223L140.487 128.238C140.512 128.222 140.533 128.201 140.551 128.176C140.569 128.15 140.582 128.121 140.59 128.09C140.597 128.058 140.6 128.025 140.597 127.993C140.594 127.96 140.585 127.928 140.572 127.9V127.9Z" fill="#FF720C"/>
<path d="M150.698 126.11C150.643 125.99 150.549 125.901 150.437 125.862C150.326 125.824 150.206 125.838 150.104 125.903L147.364 127.658L146.697 128.085L144.051 129.775L140.936 131.771C140.885 131.804 140.84 131.848 140.804 131.901C140.767 131.954 140.74 132.014 140.724 132.079C140.708 132.144 140.702 132.213 140.709 132.28C140.715 132.348 140.732 132.413 140.76 132.473C140.787 132.532 140.825 132.585 140.87 132.627C140.915 132.67 140.967 132.702 141.022 132.721C141.078 132.74 141.136 132.746 141.193 132.739C141.251 132.732 141.307 132.711 141.357 132.679L147.119 128.992L147.786 128.565L150.525 126.811C150.576 126.778 150.621 126.734 150.657 126.681C150.693 126.628 150.72 126.568 150.736 126.502C150.752 126.437 150.757 126.369 150.75 126.302C150.744 126.234 150.726 126.169 150.698 126.11V126.11Z" fill="#CCCCCC"/>
<path d="M153.004 126.619C152.976 126.559 152.938 126.507 152.893 126.465C152.848 126.422 152.796 126.391 152.741 126.372C152.685 126.353 152.627 126.347 152.57 126.355C152.512 126.362 152.457 126.383 152.406 126.416L148.077 129.188L147.41 129.615L141.646 133.302C141.595 133.334 141.55 133.378 141.513 133.43C141.477 133.483 141.45 133.544 141.433 133.609C141.417 133.674 141.412 133.742 141.418 133.81C141.424 133.877 141.442 133.942 141.469 134.002C141.497 134.062 141.535 134.114 141.58 134.157C141.625 134.199 141.677 134.231 141.732 134.249C141.788 134.268 141.846 134.274 141.904 134.267C141.961 134.259 142.017 134.238 142.067 134.206L147.828 130.519L148.496 130.092L152.828 127.32C152.93 127.254 153.006 127.143 153.039 127.012C153.072 126.88 153.059 126.739 153.004 126.619V126.619Z" fill="#CCCCCC"/>
<path d="M137.865 137.483C138.896 137.483 139.731 136.503 139.731 135.295C139.731 134.086 138.896 133.106 137.865 133.106C136.835 133.106 135.999 134.086 135.999 135.295C135.999 136.503 136.835 137.483 137.865 137.483Z" fill="#CCCCCC"/>
<path d="M139.119 147.6C139.433 147.636 139.744 147.701 140.049 147.795L161.209 125.776L159.841 117.876L169.734 113.896L173.315 127.604C173.604 128.711 173.58 129.899 173.244 130.988C172.909 132.078 172.282 133.011 171.457 133.646L144.555 154.364C144.595 155.79 144.264 157.195 143.606 158.395C142.948 159.594 141.994 160.53 140.871 161.077C139.749 161.625 138.511 161.759 137.322 161.462C136.133 161.164 135.049 160.449 134.215 159.411C133.381 158.373 132.836 157.062 132.653 155.652C132.469 154.243 132.656 152.801 133.189 151.518C133.721 150.236 134.573 149.174 135.633 148.474C136.692 147.774 137.908 147.469 139.119 147.6V147.6Z" fill="#FFB8B8"/>
<path d="M175.775 115.868L169.78 102.438C169.163 100.395 167.894 98.7138 166.24 97.7484C164.586 96.783 162.677 96.6092 160.916 97.2637C160.849 97.2851 160.785 97.31 160.719 97.3385C158.934 98.0703 157.47 99.6028 156.647 101.6C155.825 103.596 155.711 105.895 156.332 107.989L158.738 122.832C158.806 123.257 158.953 123.66 159.166 124.012C159.38 124.365 159.656 124.659 159.975 124.875C160.325 125.115 160.718 125.251 161.122 125.273C161.455 125.298 161.788 125.244 162.102 125.113L163.388 124.587L171.646 121.213L174.346 120.11C174.694 119.967 175.012 119.738 175.278 119.438C175.544 119.138 175.752 118.775 175.888 118.372C176.023 117.97 176.083 117.538 176.064 117.106C176.044 116.674 175.946 116.252 175.775 115.868V115.868Z" fill="#EF5533"/>
<path d="M198.405 167.671H0.303371C0.222912 167.671 0.145748 167.633 0.0888551 167.566C0.031962 167.5 0 167.409 0 167.315C0 167.22 0.031962 167.13 0.0888551 167.063C0.145748 166.996 0.222912 166.959 0.303371 166.959H198.405C198.485 166.959 198.562 166.996 198.619 167.063C198.676 167.13 198.708 167.22 198.708 167.315C198.708 167.409 198.676 167.5 198.619 167.566C198.562 167.633 198.485 167.671 198.405 167.671Z" fill="#3F3D56"/>
<path d="M34.4314 161.087V161.265C34.4324 162.472 34.732 163.652 35.2937 164.662C35.8553 165.673 36.655 166.471 37.5956 166.959C38.2703 167.313 39.0013 167.495 39.7404 167.493H88.7348V161.087H34.4314Z" fill="#3F3D56"/>
<path d="M122.943 118.872C122.165 116.989 120.968 115.388 119.478 114.238C118.803 113.714 118.074 113.29 117.309 112.978C116.267 112.551 115.17 112.334 114.066 112.334H67.0437C64.4297 112.338 61.9236 113.558 60.0752 115.726C58.2269 117.894 57.1871 120.834 57.1841 123.9V155.927C57.1833 156.377 57.2056 156.826 57.2509 157.272C57.3175 157.94 57.4332 158.6 57.5966 159.244C57.7588 159.878 57.9679 160.495 58.2216 161.087C59.0383 163.012 60.2967 164.631 61.8553 165.763C63.4138 166.895 65.2107 167.494 67.0437 167.493H114.066C115.361 167.493 116.643 167.194 117.84 166.613C119.036 166.032 120.123 165.181 121.039 164.107C121.955 163.032 122.681 161.757 123.176 160.354C123.671 158.95 123.926 157.446 123.926 155.927V123.9C123.928 122.158 123.592 120.438 122.943 118.872V118.872Z" fill="#3F3D56"/>
<path d="M93.1338 142.76C94.4741 142.76 95.5607 141.486 95.5607 139.914C95.5607 138.341 94.4741 137.067 93.1338 137.067C91.7934 137.067 90.7068 138.341 90.7068 139.914C90.7068 141.486 91.7934 142.76 93.1338 142.76Z" fill="white"/>
</g>
<defs>
<clipPath id="clip0_428_328">
<rect width="217" height="215" fill="white"/>
</clipPath>
</defs>
</svg>
