<svg width="205" height="149" viewBox="0 0 205 149" fill="none" xmlns="http://www.w3.org/2000/svg">
<path opacity="0.1" d="M3.9689 47.5058C2.42537 52.6905 6.96352 57.3533 10.5329 61.1086C15.4187 66.2602 19.2738 72.4939 21.8482 79.4053C23.3997 83.582 24.479 88.0754 24.1896 92.5821C23.3696 105.364 12.5206 113.88 3.85233 122.348C2.62434 123.558 1.39635 124.825 0.680857 126.457C-1.61635 131.696 2.2887 137.732 6.5897 141.073C21.9064 152.963 44.0144 149.426 58.8709 136.838C66.5644 130.317 73.1767 121.451 82.5002 118.552C88.4613 116.708 94.7882 117.582 100.956 118.151C110.205 119.001 119.496 119.123 128.76 118.517C132.012 118.294 135.412 117.946 138.136 115.963C145.031 110.95 143.868 99.0646 148.844 91.7727C152.421 86.5323 158.533 84.5119 163.853 81.6152C172.042 77.132 178.875 70.0971 183.515 61.3717C187.786 53.3059 189.999 44.1364 192.157 35.0961C193.785 28.3037 195.419 21.1901 194.041 14.3285C192.662 7.46697 187.219 1.06031 180.908 1.6624C176.063 2.124 172.208 6.37206 167.541 7.89289C156.363 11.5456 145.51 -1.14065 133.913 0.0835909C126.611 0.852926 120.723 6.99645 116.271 13.4633C111.819 19.9302 108.051 27.211 102.172 32.0812C93.0276 39.6631 80.4984 39.9307 69.3038 37.4755C58.1091 35.0203 47.3687 30.188 36.0495 28.578C29.3809 27.6302 24.27 32.0389 18.2647 34.4628C12.7538 36.6883 6.01087 40.6487 3.9689 47.5058Z" fill="black"/>
<path opacity="0.1" d="M27.7248 149C35.7989 149 42.3442 146.794 42.3442 144.072C42.3442 141.35 35.7989 139.144 27.7248 139.144C19.6508 139.144 13.1055 141.35 13.1055 144.072C13.1055 146.794 19.6508 149 27.7248 149Z" fill="black"/>
<path opacity="0.1" d="M165.955 83.9144C187.519 83.9144 205 82.6274 205 81.0399C205 79.4524 187.519 78.1655 165.955 78.1655C144.392 78.1655 126.911 79.4524 126.911 81.0399C126.911 82.6274 144.392 83.9144 165.955 83.9144Z" fill="black"/>
<g opacity="0.5">
<path opacity="0.5" d="M142.35 15.2517C142.892 15.2517 143.411 15.4904 143.794 15.9153C144.177 16.3402 144.392 16.9165 144.392 17.5173V80.5136H140.308V17.5151C140.309 16.9146 140.524 16.3389 140.907 15.9145C141.29 15.4901 141.809 15.2517 142.35 15.2517V15.2517Z" fill="black"/>
<path opacity="0.5" d="M187.155 15.2517C187.696 15.2517 188.216 15.4904 188.599 15.9153C188.982 16.3402 189.197 16.9165 189.197 17.5174V80.5136H185.103V17.5151C185.103 17.2169 185.156 16.9216 185.26 16.6462C185.363 16.3709 185.514 16.1209 185.705 15.9106C185.896 15.7003 186.122 15.5338 186.371 15.4208C186.62 15.3077 186.886 15.2503 187.155 15.2517V15.2517Z" fill="black"/>
<path opacity="0.5" d="M199.073 29.3339C200.201 29.3339 201.115 28.3195 201.115 27.0682C201.115 25.817 200.201 24.8026 199.073 24.8026L130.434 24.8026C129.306 24.8026 128.392 25.817 128.392 27.0682C128.392 28.3195 129.306 29.3339 130.434 29.3339L199.073 29.3339Z" fill="black"/>
<path opacity="0.5" d="M139.094 20.3316C139.094 19.3512 138.378 18.5565 137.495 18.5565C136.611 18.5565 135.895 19.3512 135.895 20.3316V33.8005C135.895 34.7808 136.611 35.5755 137.495 35.5755C138.378 35.5755 139.094 34.7808 139.094 33.8005V20.3316Z" fill="black"/>
<path opacity="0.5" d="M135.895 21.9237C135.895 20.9434 135.178 20.1487 134.295 20.1487C133.411 20.1487 132.695 20.9434 132.695 21.9237V32.2105C132.695 33.1908 133.411 33.9856 134.295 33.9856C135.178 33.9856 135.895 33.1908 135.895 32.2105V21.9237Z" fill="black"/>
<path opacity="0.5" d="M190.411 33.8005C190.411 34.7808 191.127 35.5756 192.011 35.5756C192.894 35.5756 193.61 34.7808 193.61 33.8005V20.3316C193.61 19.3513 192.894 18.5565 192.011 18.5565C191.127 18.5565 190.411 19.3513 190.411 20.3316V33.8005Z" fill="black"/>
<path opacity="0.5" d="M193.61 32.2083C193.61 33.1886 194.327 33.9833 195.21 33.9833C196.094 33.9833 196.81 33.1886 196.81 32.2083V21.9215C196.81 20.9412 196.094 20.1465 195.21 20.1465C194.327 20.1465 193.61 20.9412 193.61 21.9215V32.2083Z" fill="black"/>
</g>
<g opacity="0.5">
<path opacity="0.5" d="M160.676 41.6188H169.024C169.931 41.6188 170.8 42.0182 171.44 42.7291C172.081 43.44 172.441 44.4043 172.441 45.4097V61.3227H157.267V45.4097C157.267 44.4058 157.626 43.4429 158.265 42.7323C158.904 42.0216 159.771 41.6211 160.676 41.6188Z" fill="black"/>
<path opacity="0.5" d="M165.955 59.8932H163.735V68.1062H165.955V59.8932Z" fill="black"/>
<path opacity="0.5" d="M161.514 69.132H159.293V77.3449H161.514V69.132Z" fill="black"/>
<path opacity="0.5" d="M170.767 69.132H168.546V77.3449H170.767V69.132Z" fill="black"/>
<path opacity="0.5" d="M172.433 67.4885H157.259V69.7474H172.433V67.4885Z" fill="black"/>
</g>
<path opacity="0.1" d="M95.0817 135.654C141.071 135.654 178.352 132.621 178.352 128.879C178.352 125.138 141.071 122.104 95.0817 122.104C49.0927 122.104 11.8113 125.138 11.8113 128.879C11.8113 132.621 49.0927 135.654 95.0817 135.654Z" fill="black"/>
<path d="M116.641 104.753C116.641 104.753 122.377 107.628 125.152 107.628C125.152 107.628 128.113 108.448 129.775 109.271C131.437 110.094 137.917 110.502 137.917 110.502C137.917 110.502 145.504 113.582 146.428 115.02C147.353 116.458 150.128 109.891 150.128 109.891L148.647 105.786L120.711 99.8317L116.641 104.753Z" fill="#FFB9B9"/>
<path opacity="0.05" d="M116.641 104.753C116.641 104.753 122.377 107.628 125.152 107.628C125.152 107.628 128.113 108.448 129.775 109.271C131.437 110.094 137.917 110.502 137.917 110.502C137.917 110.502 145.504 113.582 146.428 115.02C147.353 116.458 150.128 109.891 150.128 109.891L148.647 105.786L120.711 99.8317L116.641 104.753Z" fill="black"/>
<path d="M144.953 113.789C144.953 113.789 148.468 118.918 146.989 122.002C145.51 125.086 146.065 125.081 146.989 125.287C147.914 125.492 153.095 126.725 153.652 122.207C154.208 117.689 155.318 107.63 155.318 107.63L147.721 106.807C147.721 106.807 149.765 114.404 144.953 113.789Z" fill="#737A9D"/>
<path d="M101.282 97.9786L117.196 106.191C117.196 106.191 122.192 101.879 121.818 99.622L103.314 94.6938L101.282 97.9786Z" fill="#4C4C78"/>
<path opacity="0.1" d="M101.282 97.9786L117.196 106.191C117.196 106.191 122.192 101.879 121.818 99.622L103.314 94.6938L101.282 97.9786Z" fill="black"/>
<path d="M168.084 108.656L166.412 113.171L162.533 114.193C161.446 113.186 160.283 112.285 159.058 111.499C156.97 110.161 154.222 108.852 151.622 109.059C151.622 109.059 141.259 107.211 140.704 106.383C140.704 106.383 134.042 104.74 132.563 104.945C131.849 105.043 130.316 104.475 128.921 103.857C127.424 103.188 126.085 102.481 126.085 102.481L130.896 94.0629C131.458 94.3309 132.035 94.5544 132.625 94.7319C134.464 95.3295 137.774 96.1055 142.555 96.1055C150.327 96.1055 161.06 104.934 161.06 104.934C161.06 104.934 161.166 104.974 161.349 105.034C162.153 105.304 164.444 105.94 165.501 104.934C166.788 103.727 168.084 108.656 168.084 108.656Z" fill="#FFB9B9"/>
<path opacity="0.1" d="M168.084 108.656L166.412 113.171L162.533 114.193C161.446 113.186 160.283 112.285 159.058 111.499C164.701 111.969 161.331 105.056 161.331 105.056H161.343C162.147 105.326 164.438 105.962 165.495 104.956C166.787 103.727 168.084 108.656 168.084 108.656Z" fill="black"/>
<path d="M159.08 111.673C159.08 111.673 163.556 118.637 161.673 122.559C159.79 126.482 160.495 126.48 161.673 126.743C162.85 127.006 169.449 128.574 170.154 122.823C170.697 118.401 170.22 109.913 169.971 106.229C169.955 105.997 169.898 105.77 169.802 105.562C169.707 105.355 169.575 105.17 169.414 105.02C169.254 104.869 169.068 104.755 168.868 104.685C168.667 104.615 168.456 104.589 168.247 104.61L161.701 105.279C161.701 105.279 165.206 112.458 159.08 111.673Z" fill="#737A9D"/>
<path d="M52.7993 118.51L52.9842 128.571L55.0202 130.213H62.0525L63.3468 128.161V118.51L61.3109 116.456H54.6504L52.7993 118.51Z" fill="black"/>
<path opacity="0.2" d="M53.9087 118.715C53.9087 118.715 55.2051 127.954 53.9087 128.777L52.9842 128.571L52.7993 118.717L53.9087 118.715Z" fill="white"/>
<path d="M69.0826 117.894L70.5639 116.251H77.5982L79.0794 117.894C79.0794 117.894 80.9305 123.848 79.4492 127.749L77.7791 129.597H70.7447L69.0786 127.954L69.0826 117.894Z" fill="black"/>
<path opacity="0.1" d="M52.7993 118.51L52.9842 128.571L55.0202 130.213H62.0525L63.3468 128.161V118.51L61.3109 116.456H54.6504L52.7993 118.51Z" fill="black"/>
<path opacity="0.1" d="M69.0826 117.894L70.5639 116.251H77.5982L79.0794 117.894C79.0794 117.894 80.9305 123.848 79.4492 127.749L77.7791 129.597H70.7447L69.0786 127.954L69.0826 117.894Z" fill="black"/>
<path opacity="0.2" d="M70.7447 118.305C70.7447 118.305 72.226 125.492 70.7447 127.954H69.0786V117.894L70.7447 118.305Z" fill="white"/>
<path d="M63.3467 83.8118C63.3467 83.8118 64.0863 91.8195 64.0863 92.8453C64.0863 93.8711 63.7165 100.65 64.8259 107.217C65.9353 113.785 64.0863 121.998 64.0863 121.998H70.1921L72.7827 99.8228L70.9317 88.12L70.1921 84.425L63.3467 83.8118Z" fill="#FFB9B9"/>
<path opacity="0.05" d="M63.3467 83.8118C63.3467 83.8118 64.0863 91.8195 64.0863 92.8453C64.0863 93.8711 63.7165 100.65 64.8259 107.217C65.9353 113.785 64.0863 121.998 64.0863 121.998H70.1921L72.7827 99.8228L70.9317 88.12L70.1921 84.425L63.3467 83.8118Z" fill="black"/>
<path d="M62.2373 63.4857C62.2373 63.4857 54.0956 63.6909 60.5712 78.6784C60.5712 78.6784 62.2373 84.8375 62.2373 85.8655C62.2373 86.8935 70.564 86.8913 71.4825 85.8655C72.4009 84.8398 70.0012 76.4217 70.0012 72.5193C70.0012 68.6168 67.6035 62.2548 62.2373 63.4857Z" fill="#CBCDDA"/>
<path opacity="0.05" d="M62.2373 63.4857C62.2373 63.4857 54.0956 63.6909 60.5712 78.6784C60.5712 78.6784 62.2373 84.8375 62.2373 85.8655C62.2373 86.8935 70.564 86.8913 71.4825 85.8655C72.4009 84.8398 70.0012 76.4217 70.0012 72.5193C70.0012 68.6168 67.6035 62.2548 62.2373 63.4857Z" fill="black"/>
<path d="M52.4294 54.6528C52.4294 54.6528 59.4637 63.0709 65.3826 56.9118L64.643 78.6761C64.643 78.6761 55.02 65.7424 48.3635 66.7682L52.4294 54.6528Z" fill="#FFB9B9"/>
<path opacity="0.1" d="M132.617 94.7563C132.335 97.1624 131.451 102.229 128.913 103.87C127.415 103.201 126.077 102.494 126.077 102.494L130.888 94.0762C131.449 94.348 132.027 94.5753 132.617 94.7563V94.7563Z" fill="black"/>
<path d="M132.185 93.4541C132.185 93.4541 131.63 103.516 127.188 104.336L100.361 98.9665C99.0593 98.704 97.8351 98.0915 96.7959 97.1826C95.7126 96.2371 94.3841 94.9526 93.5983 93.7752C93.1722 93.133 92.9149 92.5197 92.9571 92.0135C93.142 89.7546 101.284 84.4161 98.5082 74.9722C98.9029 74.6255 99.3418 74.346 99.8106 74.1427C102.128 73.0745 107.462 72.2896 115.162 81.1313C115.162 81.1425 129.409 93.8733 132.185 93.4541Z" fill="#333333"/>
<path d="M59.6465 119.33L59.8314 129.392L61.8653 131.036H68.8976L70.194 128.982V119.33L68.158 117.279H61.4955L59.6465 119.33Z" fill="black"/>
<path opacity="0.2" d="M60.7559 119.545C60.7559 119.545 62.0522 128.783 60.7559 129.606L59.8314 129.401L59.6465 119.545H60.7559Z" fill="white"/>
<path d="M80.002 118.51L81.4832 116.866H88.5175L89.9987 118.51C89.9987 118.51 91.8498 124.464 90.3686 128.364L88.7024 130.213H81.6681L80.002 128.569V118.51Z" fill="black"/>
<path opacity="0.2" d="M81.6659 118.92C81.6659 118.92 83.1471 126.107 81.6659 128.569H79.9998V118.51L81.6659 118.92Z" fill="white"/>
<path d="M70.1418 122.412H80.1526C80.9364 122.412 81.5715 123.193 81.5715 124.158C81.5715 125.122 80.9364 125.904 80.1526 125.904H70.1418C69.2916 125.904 68.6324 124.992 68.7349 123.955C68.8173 123.075 69.4243 122.412 70.1418 122.412Z" fill="black"/>
<path opacity="0.1" d="M99.061 90.3811C97.0813 91.9198 94.9951 92.9277 93.5963 93.7863C93.1702 93.1441 92.913 92.5308 92.9552 92.0246C93.1401 89.7657 101.282 84.4272 98.5063 74.9833C98.9009 74.6366 99.3398 74.357 99.8086 74.1538C100.243 74.1436 100.676 74.0777 101.097 73.9575C101.097 73.9575 102.761 87.5067 99.061 90.3811Z" fill="black"/>
<path d="M57.5181 70.568C57.5181 70.568 60.2937 73.6476 62.9768 75.5988C65.4528 77.3983 61.0333 59.2755 61.0333 59.2755C61.0333 59.2755 63.7747 56.8226 65.3845 55.3664C66.4596 54.385 67.8295 53.8911 69.2192 53.9838C72.9233 54.2492 79.7084 55.9774 85.1831 64.3085C93.14 76.4216 100.357 73.9575 100.357 73.9575C100.357 73.9575 102.023 87.509 98.3213 90.3834C94.6192 93.2578 90.5493 94.2836 91.2869 95.9271C92.0245 97.5705 87.9567 87.9193 78.7035 86.278C69.4504 84.6368 59.2727 77.4496 59.4596 73.9598C59.4616 73.9575 56.7785 71.6005 57.5181 70.568Z" fill="#CBCDDA"/>
<path opacity="0.1" d="M55.5747 60.0047C55.5738 59.4112 55.5267 58.8188 55.434 58.2342C53.0102 56.8962 53.3539 55.0765 53.3539 55.0765L49.282 67.1897C50.7713 66.9667 52.4092 67.4305 54.0533 68.3046C56.2178 66.4069 55.5747 63.2805 55.5747 60.0047Z" fill="black"/>
<path d="M47.4331 70.0574C52.5435 70.0574 56.6862 65.4608 56.6862 59.7906C56.6862 54.1205 52.5435 49.5239 47.4331 49.5239C42.3227 49.5239 38.1799 54.1205 38.1799 59.7906C38.1799 65.4608 42.3227 70.0574 47.4331 70.0574Z" fill="#FFB9B9"/>
<path opacity="0.1" d="M39.0258 62.1053C38.8549 62.7141 38.5917 63.3407 38.0952 63.6663C37.4923 64.0632 36.6602 63.867 36.1236 63.3541C35.587 62.8412 35.2976 62.0741 35.1468 61.307C34.9297 60.1963 34.9643 59.0432 35.2473 57.9509C35.4885 57.0255 35.9045 56.1669 36.0794 55.2192C36.2663 54.2113 36.1718 53.1565 36.3809 52.153C36.6643 50.7927 37.4722 49.6532 38.26 48.5628C38.5069 48.1466 38.8269 47.7899 39.2009 47.514C39.5749 47.2381 39.9952 47.0488 40.4367 46.9572L44.3096 45.6616C45.0438 45.3888 45.7984 45.1888 46.5646 45.064C47.5495 44.9521 48.5446 45.049 49.4969 45.3494C50.2552 45.5611 50.9747 45.9172 51.6233 46.402C52.2658 46.9316 52.8317 47.5671 53.3014 48.2863C55.3494 51.2566 56.5171 56.1157 58.6295 59.0391C57.7954 59.3246 56.9613 58.3701 56.1272 58.66C56.0087 58.7167 55.8766 58.7285 55.7514 58.6935C55.6274 58.6188 55.5302 58.4991 55.4761 58.3545C54.741 56.9299 53.5842 55.8315 52.2021 55.246C51.1771 54.8156 49.7903 54.8178 49.2296 55.8614C48.8497 56.5661 49.0025 57.4559 49.103 58.2698C49.2035 59.0837 49.1854 60.0538 48.6045 60.5555C48.2835 60.7962 47.91 60.9364 47.5232 60.9613C45.7206 61.2235 43.8877 61.0244 42.1651 60.3793C41.5622 60.1563 40.9492 59.4584 40.3121 59.6813C39.4519 59.9824 39.2529 61.2958 39.0258 62.1053Z" fill="black"/>
<path d="M38.8231 61.8801C38.6523 62.4888 38.389 63.1155 37.8926 63.441C37.2897 63.838 36.4576 63.6417 35.921 63.1288C35.3844 62.6159 35.0949 61.8488 34.9442 61.0817C34.7271 59.971 34.7616 58.8179 35.0447 57.7257C35.2859 56.8002 35.7019 55.9417 35.8768 54.994C36.0637 53.986 35.9692 52.9312 36.1782 51.9278C36.4616 50.5675 37.2696 49.428 38.0574 48.3375C38.3043 47.9213 38.6243 47.5646 38.9983 47.2887C39.3723 47.0129 39.7926 46.8235 40.234 46.732L44.1069 45.4364C44.8412 45.1643 45.5959 44.965 46.3619 44.841C47.3468 44.7291 48.3419 44.826 49.2942 45.1264C50.0526 45.338 50.7721 45.6942 51.4206 46.1789C52.0632 46.7086 52.6291 47.3441 53.0988 48.0633C55.1468 51.0336 56.3145 55.8926 58.4268 58.8161C57.5927 59.1015 56.7587 58.1471 55.9246 58.437C55.8061 58.4937 55.674 58.5055 55.5488 58.4705C55.4233 58.3965 55.3246 58.2768 55.2694 58.1315C54.5344 56.7069 53.3776 55.6085 51.9954 55.0229C50.9704 54.5926 49.5837 54.5948 49.0229 55.6384C48.6431 56.3431 48.7958 57.2328 48.8963 58.0468C48.9968 58.8607 48.9787 59.8307 48.3979 60.3325C48.0769 60.5732 47.7034 60.7134 47.3166 60.7383C45.5139 61.0005 43.6811 60.8014 41.9584 60.1563C41.3555 59.9333 40.7425 59.2353 40.1054 59.4583C39.2492 59.7571 39.0503 61.0706 38.8231 61.8801Z" fill="#B96B6B"/>
<g opacity="0.1">
<path opacity="0.1" d="M61.6605 58.7158L61.0334 59.2778C61.0334 59.2778 63.6241 69.899 63.7266 74.0713C65.049 73.6744 62.5046 62.3105 61.6605 58.7158Z" fill="black"/>
<path opacity="0.1" d="M98.6814 88.7399C94.9814 91.6143 90.9095 92.6401 91.6471 94.2836C92.3847 95.9271 88.3168 86.2758 79.0637 84.6346C70.3833 83.0937 60.889 76.6736 59.9001 73.0031C58.5134 71.6875 57.5044 70.5703 57.5044 70.5703C56.7648 71.596 59.4479 73.9576 59.4479 73.9576C59.263 77.4474 69.4407 84.6346 78.6919 86.2758C87.943 87.9171 92.0149 97.5683 91.2753 95.9248C90.5357 94.2814 94.6055 93.2489 98.3096 90.3812C99.3688 89.5583 99.9878 87.8613 100.333 85.8566C99.9757 87.1254 99.4451 88.1534 98.6814 88.7399Z" fill="black"/>
</g>
<path d="M80.002 108.45C79.4473 109.271 79.0775 117.689 79.0775 117.689C79.0775 117.689 81.2882 129.802 74.4549 128.571C67.6215 127.34 73.5304 118.717 73.5304 118.717L72.6059 106.809C69.0907 96.5514 69.8303 89.1524 69.8303 89.1524L69.1731 82.447L68.9038 79.7086L76.8606 77.6548C76.6436 77.9759 76.736 79.9784 76.931 82.3042C77.2345 85.948 77.7852 90.3834 77.7852 90.3834C79.4453 92.4349 80.5567 107.628 80.002 108.45Z" fill="#FFB9B9"/>
<path opacity="0.1" d="M68.7127 59.1751C68.7127 59.1751 60.5709 59.3803 67.0465 74.3678C67.0465 74.3678 68.7127 80.527 68.7127 81.555C68.7127 82.583 77.0393 82.5808 77.9578 81.555C78.8763 80.5292 76.4766 72.1111 76.4766 68.2087C76.4766 64.3063 74.0789 57.942 68.7127 59.1751Z" fill="black"/>
<path opacity="0.1" d="M76.9249 82.3042C75.1965 82.8283 70.9598 82.8751 69.1651 82.447L68.8958 79.7086L76.8526 77.6548C76.6396 77.9737 76.732 79.9762 76.9249 82.3042Z" fill="black"/>
<path d="M68.343 59.1751C68.343 59.1751 60.2013 59.3803 66.6769 74.3678C66.6769 74.3678 68.343 80.527 68.343 81.555C68.343 82.583 76.6697 82.5808 77.5882 81.555C78.5066 80.5292 76.1069 72.1111 76.1069 68.2087C76.1069 64.3063 73.7092 57.942 68.343 59.1751Z" fill="#CBCDDA"/>
<g opacity="0.5">
<path opacity="0.5" d="M15.0812 91.3163L9.18847 91.4501L8.22778 92.9175V97.9884L9.42965 98.9227H15.0812L16.2851 97.4554V92.6521L15.0812 91.3163Z" fill="black"/>
<path opacity="0.2" d="M14.9628 92.116C14.9628 92.116 9.55041 93.0504 9.07007 92.116L9.19066 91.447L14.9628 91.3132V92.116Z" fill="white"/>
<path opacity="0.5" d="M15.5635 105.993L16.5262 107.061V112.132L15.5635 113.2C15.5635 113.2 12.0764 114.538 9.79129 113.468L8.70801 112.266V107.195L9.6707 105.993H15.5635Z" fill="black"/>
<path opacity="0.2" d="M15.3222 107.195C15.3222 107.195 11.1137 108.263 9.67065 107.195V105.993H15.5634L15.3222 107.195Z" fill="white"/>
<path opacity="0.5" d="M13.2782 98.8862V106.105C13.2641 106.39 13.1487 106.659 12.957 106.85C12.7653 107.042 12.513 107.142 12.2552 107.128C11.9974 107.142 11.7451 107.042 11.5534 106.85C11.3617 106.659 11.2462 106.39 11.2322 106.105V98.8862C11.2322 98.2729 11.7668 97.7979 12.3738 97.8693C12.6111 97.885 12.8347 97.9975 13.0017 98.1853C13.1687 98.373 13.2672 98.6227 13.2782 98.8862V98.8862Z" fill="black"/>
<path opacity="0.5" d="M24.519 91.5206L18.6263 91.6544L17.6636 93.1217V98.1927L18.8674 99.127H24.519L25.7209 97.6597V92.8564L24.519 91.5206Z" fill="black"/>
<path opacity="0.2" d="M24.3984 92.3234C24.3984 92.3234 18.986 93.2578 18.5056 92.3234L18.6262 91.6544L24.3984 91.5206V92.3234Z" fill="white"/>
<path opacity="0.5" d="M24.9997 106.2L25.9624 107.269V112.339L24.9997 113.408C24.9997 113.408 21.5127 114.746 19.2276 113.675L18.1443 112.473V107.4L19.107 106.198L24.9997 106.2Z" fill="black"/>
<path opacity="0.2" d="M24.7602 107.4C24.7602 107.4 20.5517 108.468 19.1086 107.4V106.198H25.0014L24.7602 107.4Z" fill="white"/>
<path opacity="0.5" d="M22.7105 99.0914V106.31C22.6965 106.596 22.581 106.864 22.3893 107.056C22.1977 107.247 21.9453 107.347 21.6875 107.333V107.333C21.4297 107.347 21.1774 107.247 20.9857 107.056C20.7941 106.864 20.6786 106.596 20.6646 106.31V99.0914C20.6646 98.4781 21.1992 98.0031 21.8061 98.0745C22.0434 98.0902 22.2671 98.2027 22.4341 98.3905C22.6011 98.5782 22.6995 98.8279 22.7105 99.0914V99.0914Z" fill="black"/>
<path opacity="0.5" d="M36.5339 95.3829L31.6822 95.4921L30.8904 96.7008V100.875L31.8812 101.642H36.5339L37.5228 100.434V96.48L36.5339 95.3829Z" fill="black"/>
<path opacity="0.2" d="M36.4332 96.0407C36.4332 96.0407 31.9775 96.81 31.5815 96.0407L31.68 95.4921L36.4312 95.3829L36.4332 96.0407Z" fill="white"/>
<path opacity="0.5" d="M36.9297 107.465L37.7215 108.343V112.518L36.9297 113.396C36.9297 113.396 34.0597 114.496 32.1785 113.619L31.2861 112.632V108.453L32.078 107.465H36.9297Z" fill="black"/>
<path opacity="0.2" d="M36.7306 108.453C36.7306 108.453 33.2657 109.331 32.0779 108.453V107.465H36.9296L36.7306 108.453Z" fill="white"/>
<path opacity="0.5" d="M35.0485 101.613V107.556C35.036 107.791 34.9406 108.011 34.7829 108.168C34.6252 108.325 34.418 108.406 34.2064 108.395C33.9941 108.406 33.7863 108.324 33.6285 108.166C33.4707 108.008 33.3757 107.787 33.3643 107.552V101.613C33.3712 101.488 33.4019 101.365 33.4541 101.253C33.5064 101.141 33.5791 101.043 33.6677 100.964C33.7563 100.885 33.8587 100.828 33.9684 100.796C34.0782 100.764 34.1928 100.757 34.3048 100.777V100.777C34.5 100.79 34.6839 100.883 34.8211 101.037C34.9584 101.191 35.0394 101.397 35.0485 101.613Z" fill="black"/>
<path opacity="0.5" d="M44.3017 95.5501L39.4501 95.6616L38.6582 96.868V101.042L39.649 101.812H44.3017L45.2926 100.603V96.6495L44.3017 95.5501Z" fill="black"/>
<path opacity="0.2" d="M44.203 96.2102C44.203 96.2102 39.7473 96.9795 39.3513 96.2102L39.4498 95.6616L44.201 95.5524L44.203 96.2102Z" fill="white"/>
<path opacity="0.5" d="M44.6977 107.634L45.4896 108.513V112.687L44.6977 113.566C44.6977 113.566 41.8277 114.665 39.9465 113.789L39.0562 112.801V108.618L39.848 107.63L44.6977 107.634Z" fill="black"/>
<path opacity="0.2" d="M44.5006 108.618C44.5006 108.618 41.0357 109.496 39.8479 108.618V107.63H44.6976L44.5006 108.618Z" fill="white"/>
<path opacity="0.5" d="M42.8082 101.783V107.726C42.7968 107.961 42.7018 108.182 42.544 108.34C42.3862 108.498 42.1784 108.58 41.9661 108.569C41.7539 108.58 41.5461 108.498 41.3883 108.34C41.2305 108.182 41.1355 107.961 41.124 107.726V101.783C41.131 101.657 41.1616 101.534 41.2139 101.423C41.2661 101.311 41.3389 101.212 41.4275 101.134C41.516 101.055 41.6185 100.998 41.7282 100.965C41.8379 100.933 41.9525 100.927 42.0646 100.947V100.947C42.2597 100.96 42.4436 101.052 42.5809 101.207C42.7182 101.361 42.7992 101.566 42.8082 101.783Z" fill="black"/>
</g>
<path d="M35.5731 136.289C35.5731 136.289 32.7252 135.219 31.3525 138.004C30.9909 138.759 30.8068 139.603 30.8173 140.458C30.8279 141.313 31.0327 142.151 31.4128 142.894C32.3132 144.701 34.1683 147.044 37.6834 146.837C40.666 146.661 41.6568 144.134 41.9261 141.786C42.0291 140.905 41.9267 140.01 41.6285 139.186C41.3304 138.361 40.8466 137.636 40.2234 137.078C39.6002 136.521 38.8585 136.15 38.0693 136.002C37.28 135.854 36.4697 135.933 35.7158 136.231L35.5731 136.289Z" fill="#EF5533"/>
<path opacity="0.1" d="M32.0239 143.144C31.6437 142.401 31.4389 141.562 31.4284 140.708C31.4178 139.853 31.6019 139.009 31.9636 138.254C33.3343 135.469 36.1842 136.539 36.1842 136.539L36.3309 136.481C37.4166 136.045 38.61 136.075 39.6772 136.564C39.0877 136.173 38.4274 135.933 37.7441 135.861C37.0607 135.788 36.3714 135.885 35.7259 136.144L35.5792 136.202C35.5792 136.202 32.7313 135.132 31.3586 137.917C30.997 138.672 30.8129 139.516 30.8234 140.371C30.834 141.226 31.0388 142.064 31.4189 142.807C32.0219 143.996 33.0268 145.417 34.6346 146.19C33.5305 145.458 32.6278 144.404 32.0239 143.144Z" fill="white"/>
<path opacity="0.2" d="M34.1082 137.627C34.1082 137.627 35.1633 138.548 37.7258 137.627Z" fill="black"/>
<path d="M33.8809 130.933C33.8809 130.933 35.6897 136.374 35.541 137.797L36.974 137.629C36.974 137.629 34.5622 132.86 35.1651 130.94L33.8809 130.933Z" fill="black"/>
<path opacity="0.2" d="M33.8809 130.933C33.8809 130.933 35.6897 136.374 35.541 137.797L36.974 137.629C36.974 137.629 34.5622 132.86 35.1651 130.94L33.8809 130.933Z" fill="black"/>
<path d="M41.2711 131.386C41.2711 131.386 38.4212 129.769 37.147 131.105C35.8727 132.44 35.6758 135.854 35.6758 135.854C35.6758 135.854 40.3225 136.564 41.2711 131.386Z" fill="black"/>
<path opacity="0.1" d="M41.2711 131.386C41.2711 131.386 38.4212 129.769 37.147 131.105C35.8727 132.44 35.6758 135.854 35.6758 135.854C35.6758 135.854 40.3225 136.564 41.2711 131.386Z" fill="white"/>
<path d="M21.7562 131.713C21.7562 131.713 18.9083 130.643 17.5356 133.428C17.174 134.183 16.9899 135.027 17.0004 135.882C17.011 136.737 17.2158 137.575 17.5959 138.318C18.4963 140.125 20.3514 142.468 23.8665 142.261C26.8491 142.085 27.8399 139.558 28.1092 137.21C28.2122 136.329 28.1098 135.434 27.8116 134.61C27.5135 133.785 27.0297 133.06 26.4065 132.503C25.7833 131.945 25.0416 131.574 24.2524 131.426C23.4631 131.278 22.6528 131.357 21.8989 131.655L21.7562 131.713Z" fill="#EF5533"/>
<path opacity="0.1" d="M18.207 138.568C17.8268 137.825 17.622 136.987 17.6115 136.132C17.6009 135.277 17.785 134.433 18.1467 133.678C19.5174 130.893 22.3673 131.963 22.3673 131.963L22.514 131.905C23.5998 131.469 24.7931 131.499 25.8603 131.988C25.2708 131.597 24.6105 131.357 23.9272 131.285C23.2438 131.212 22.5545 131.309 21.909 131.568L21.7623 131.626C21.7623 131.626 18.9144 130.556 17.5417 133.341C17.1801 134.096 16.996 134.94 17.0065 135.795C17.0171 136.65 17.2219 137.488 17.602 138.232C18.205 139.42 19.2099 140.841 20.8177 141.614C19.7136 140.882 18.8109 139.829 18.207 138.568Z" fill="white"/>
<path opacity="0.1" d="M27.4542 126.81C27.4542 126.81 24.6043 125.193 23.3301 126.529C22.0558 127.864 21.8589 131.278 21.8589 131.278C21.8589 131.278 26.5056 131.988 27.4542 126.81Z" fill="#191919"/>
<path d="M12.6612 123.373C12.6612 123.373 12.9405 123.028 12.416 122.889V122.321H12.7315C12.7313 121.633 12.5184 120.967 12.1284 120.433C11.7384 119.899 11.195 119.529 10.5891 119.386V118.697H10.6715V117.805H8.64155V118.697H8.69983V119.395C8.10188 119.546 7.56778 119.917 7.18509 120.449C6.8024 120.98 6.59383 121.64 6.59355 122.321H6.87493V122.867C6.87493 122.867 6.20767 123.217 6.87493 123.842C7.54218 124.466 7.43767 124.932 7.43767 124.932C7.43767 124.932 7.1563 126.101 6.59556 126.257V137.128C6.59556 137.768 6.82489 138.383 7.23308 138.835C7.64128 139.288 8.19491 139.543 8.77219 139.543H10.4926C11.0681 139.54 11.6194 139.285 12.0258 138.833C12.4322 138.381 12.6606 137.769 12.6612 137.13V126.257C12.6612 126.257 11.6784 125.438 11.8572 124.932C12.0905 124.391 12.3592 123.87 12.6612 123.373V123.373Z" fill="black"/>
<path opacity="0.2" d="M20.064 126.357C20.064 126.357 21.8728 131.798 21.7241 133.221L23.1571 133.053C23.1571 133.053 20.7453 128.284 21.3482 126.364L20.064 126.357Z" fill="black"/>
</svg>
