<svg width="807" height="610" viewBox="0 0 807 610" fill="none" xmlns="http://www.w3.org/2000/svg">
<path d="M657.57 434.548H16.7317C12.3571 434.543 8.16316 432.803 5.06989 429.71C1.97661 426.616 0.236634 422.422 0.231689 418.048V22.894C0.235255 19.6892 1.50993 16.6166 3.77606 14.3504C6.04219 12.0841 9.11472 10.8094 12.3196 10.8057H661.773C665.033 10.8094 668.159 12.1062 670.464 14.4116C672.77 16.717 674.067 19.8427 674.07 23.103V418.048C674.065 422.422 672.325 426.616 669.232 429.71C666.139 432.803 661.945 434.543 657.57 434.548V434.548Z" fill="#F2F2F2"/>
<path d="M636.85 413.716H39.6056C30.8506 413.716 23.728 407.046 23.728 398.847V54.7424C23.728 48.6623 29.006 43.7156 35.4937 43.7156H640.767C647.363 43.7156 652.728 48.7439 652.728 54.9241V398.847C652.728 407.046 645.605 413.716 636.85 413.716Z" fill="white"/>
<path d="M673.84 24.9502H0V16.5498C0.00634366 12.1607 1.75342 7.95332 4.85796 4.85071C7.96249 1.7481 12.1709 0.00362614 16.5601 0H657.28C661.669 0.00360765 665.878 1.74808 668.982 4.85069C672.087 7.95331 673.834 12.1607 673.84 16.5498V24.9502Z" fill="#333333"/>
<path d="M30.0954 16.7834C32.4611 16.7834 34.3789 14.8656 34.3789 12.5C34.3789 10.1343 32.4611 8.21655 30.0954 8.21655C27.7298 8.21655 25.812 10.1343 25.812 12.5C25.812 14.8656 27.7298 16.7834 30.0954 16.7834Z" fill="white"/>
<path d="M46.3542 16.7834C48.7199 16.7834 50.6376 14.8656 50.6376 12.5C50.6376 10.1343 48.7199 8.21655 46.3542 8.21655C43.9886 8.21655 42.0708 10.1343 42.0708 12.5C42.0708 14.8656 43.9886 16.7834 46.3542 16.7834Z" fill="white"/>
<path d="M62.613 16.7834C64.9787 16.7834 66.8964 14.8656 66.8964 12.5C66.8964 10.1343 64.9787 8.21655 62.613 8.21655C60.2473 8.21655 58.3296 10.1343 58.3296 12.5C58.3296 14.8656 60.2473 16.7834 62.613 16.7834Z" fill="white"/>
<path d="M192.348 97.7656H86.7979C84.6965 97.7651 82.6157 98.1785 80.6743 98.9824C78.7328 99.7863 76.9687 100.965 75.4829 102.451C73.997 103.937 72.8185 105.701 72.0146 107.642C71.2107 109.583 70.7973 111.664 70.7979 113.766V185.596C70.7973 187.697 71.2107 189.778 72.0146 191.719C72.8185 193.661 73.997 195.425 75.4829 196.911C76.9687 198.396 78.7328 199.575 80.6743 200.379C82.6157 201.183 84.6965 201.596 86.7979 201.596H192.348C196.591 201.595 200.661 199.909 203.661 196.909C206.662 193.908 208.348 189.839 208.348 185.596V113.766C208.348 109.522 206.662 105.453 203.661 102.453C200.661 99.452 196.591 97.7662 192.348 97.7656V97.7656Z" fill="#EF5533"/>
<path d="M266.797 113.762V185.6C266.797 189.844 268.482 193.913 271.483 196.914C274.484 199.915 278.553 201.6 282.797 201.6H388.344C392.588 201.6 396.658 199.915 399.658 196.914C402.659 193.913 404.344 189.844 404.344 185.6V113.762C404.344 109.518 402.659 105.449 399.658 102.448C396.658 99.4474 392.588 97.7617 388.344 97.7617H282.797C278.553 97.7617 274.484 99.4474 271.483 102.448C268.482 105.449 266.797 109.518 266.797 113.762Z" fill="#EF5533"/>
<path d="M462.797 113.762V185.6C462.797 189.844 464.482 193.913 467.483 196.914C470.483 199.915 474.553 201.6 478.797 201.6H584.344C588.588 201.6 592.658 199.915 595.658 196.914C598.659 193.913 600.344 189.844 600.344 185.6V113.762C600.344 109.518 598.659 105.449 595.658 102.448C592.658 99.4474 588.588 97.7617 584.344 97.7617H478.797C474.553 97.7617 470.483 99.4474 467.483 102.448C464.482 105.449 462.797 109.518 462.797 113.762Z" fill="#E6E6E6"/>
<path d="M70.7966 272.762V344.6C70.7966 348.844 72.4824 352.913 75.4829 355.914C78.4835 358.915 82.5532 360.6 86.7966 360.6H192.345C196.588 360.6 200.658 358.915 203.658 355.914C206.659 352.913 208.345 348.844 208.345 344.6V272.762C208.345 268.518 206.659 264.449 203.658 261.448C200.658 258.447 196.588 256.762 192.345 256.762H86.7966C82.5532 256.762 78.4835 258.447 75.4829 261.448C72.4824 264.449 70.7966 268.518 70.7966 272.762Z" fill="#E6E6E6"/>
<path d="M266.797 272.762V344.6C266.797 348.844 268.482 352.913 271.483 355.914C274.484 358.915 278.553 360.6 282.797 360.6H388.344C392.588 360.6 396.658 358.915 399.658 355.914C402.659 352.913 404.344 348.844 404.344 344.6V272.762C404.344 268.518 402.659 264.449 399.658 261.448C396.658 258.447 392.588 256.762 388.344 256.762H282.797C278.553 256.762 274.484 258.447 271.483 261.448C268.482 264.449 266.797 268.518 266.797 272.762Z" fill="#E6E6E6"/>
<path d="M462.797 272.762V344.6C462.797 348.844 464.482 352.913 467.483 355.914C470.483 358.915 474.553 360.6 478.797 360.6H584.344C588.588 360.6 592.658 358.915 595.658 355.914C598.659 352.913 600.344 348.844 600.344 344.6V272.762C600.344 268.518 598.659 264.449 595.658 261.448C592.658 258.447 588.588 256.762 584.344 256.762H478.797C474.553 256.762 470.483 258.447 467.483 261.448C464.482 264.449 462.797 268.518 462.797 272.762Z" fill="#EF5533"/>
<path d="M139.571 171.681C151.721 171.681 161.571 161.831 161.571 149.681C161.571 137.531 151.721 127.681 139.571 127.681C127.42 127.681 117.571 137.531 117.571 149.681C117.571 161.831 127.42 171.681 139.571 171.681Z" fill="white"/>
<path d="M173.188 203.596H105.948C107.519 200.564 109.546 197.792 111.958 195.376C115.019 192.308 118.655 189.875 122.659 188.218C126.663 186.56 130.955 185.71 135.288 185.716H143.848C149.909 185.713 155.854 187.38 161.03 190.534C166.205 193.688 170.412 198.208 173.188 203.596V203.596Z" fill="white"/>
<path d="M335.571 171.681C347.721 171.681 357.571 161.831 357.571 149.681C357.571 137.531 347.721 127.681 335.571 127.681C323.42 127.681 313.571 137.531 313.571 149.681C313.571 161.831 323.42 171.681 335.571 171.681Z" fill="white"/>
<path d="M369.188 203.596H301.948C303.519 200.564 305.546 197.792 307.958 195.376C311.019 192.308 314.655 189.875 318.659 188.218C322.663 186.56 326.955 185.71 331.288 185.716H339.848C345.909 185.713 351.854 187.38 357.03 190.534C362.205 193.688 366.412 198.208 369.188 203.596V203.596Z" fill="white"/>
<path d="M531.571 171.681C543.721 171.681 553.571 161.831 553.571 149.681C553.571 137.531 543.721 127.681 531.571 127.681C519.42 127.681 509.571 137.531 509.571 149.681C509.571 161.831 519.42 171.681 531.571 171.681Z" fill="white"/>
<path d="M565.188 203.596H497.948C499.519 200.564 501.546 197.792 503.958 195.376C507.019 192.308 510.655 189.875 514.659 188.218C518.663 186.56 522.955 185.71 527.288 185.716H535.848C541.909 185.713 547.854 187.38 553.03 190.534C558.205 193.688 562.412 198.208 565.188 203.596V203.596Z" fill="white"/>
<path d="M139.571 330.681C151.721 330.681 161.571 320.831 161.571 308.681C161.571 296.531 151.721 286.681 139.571 286.681C127.42 286.681 117.571 296.531 117.571 308.681C117.571 320.831 127.42 330.681 139.571 330.681Z" fill="white"/>
<path d="M173.188 362.596H105.948C107.519 359.564 109.546 356.792 111.958 354.376C115.019 351.308 118.655 348.875 122.659 347.218C126.663 345.56 130.955 344.71 135.288 344.716H143.848C149.909 344.713 155.854 346.38 161.03 349.534C166.205 352.688 170.412 357.208 173.188 362.596V362.596Z" fill="white"/>
<path d="M335.571 330.681C347.721 330.681 357.571 320.831 357.571 308.681C357.571 296.531 347.721 286.681 335.571 286.681C323.42 286.681 313.571 296.531 313.571 308.681C313.571 320.831 323.42 330.681 335.571 330.681Z" fill="white"/>
<path d="M369.188 362.596H301.948C303.519 359.564 305.546 356.792 307.958 354.376C311.019 351.308 314.655 348.875 318.659 347.218C322.663 345.56 326.955 344.71 331.288 344.716H339.848C345.909 344.713 351.854 346.38 357.03 349.534C362.205 352.688 366.412 357.208 369.188 362.596V362.596Z" fill="white"/>
<path d="M531.571 330.681C543.721 330.681 553.571 320.831 553.571 308.681C553.571 296.531 543.721 286.681 531.571 286.681C519.42 286.681 509.571 296.531 509.571 308.681C509.571 320.831 519.42 330.681 531.571 330.681Z" fill="white"/>
<path d="M565.188 362.596H497.948C499.519 359.564 501.546 356.792 503.958 354.376C507.019 351.308 510.655 348.875 514.659 347.218C518.663 345.56 522.955 344.71 527.288 344.716H535.848C541.909 344.713 547.854 346.38 553.03 349.534C558.205 352.688 562.412 357.208 565.188 362.596V362.596Z" fill="white"/>
<path d="M805.007 609.716H544.007C543.742 609.716 543.488 609.61 543.3 609.423C543.113 609.235 543.007 608.981 543.007 608.716C543.007 608.45 543.113 608.196 543.3 608.008C543.488 607.821 543.742 607.716 544.007 607.716H805.007C805.273 607.716 805.527 607.821 805.714 608.008C805.902 608.196 806.007 608.45 806.007 608.716C806.007 608.981 805.902 609.235 805.714 609.423C805.527 609.61 805.273 609.716 805.007 609.716Z" fill="#333333"/>
<path d="M670.716 597.522L658.457 597.521L652.624 550.233L670.718 550.234L670.716 597.522Z" fill="#A0616A"/>
<path d="M649.699 594.018H673.343V608.905H634.813C634.812 606.95 635.198 605.014 635.946 603.208C636.694 601.402 637.79 599.761 639.173 598.379C640.555 596.996 642.196 595.9 644.002 595.152C645.809 594.403 647.744 594.018 649.699 594.018V594.018Z" fill="#2F2E41"/>
<path d="M716.716 597.522L704.457 597.521L698.624 550.233L716.718 550.234L716.716 597.522Z" fill="#A0616A"/>
<path d="M695.699 594.018H719.343V608.905H680.813C680.812 606.95 681.198 605.014 681.946 603.208C682.694 601.402 683.79 599.761 685.173 598.379C686.555 596.996 688.196 595.9 690.002 595.152C691.809 594.403 693.744 594.018 695.699 594.018V594.018Z" fill="#2F2E41"/>
<path d="M715.219 456.683C713.898 455.834 712.78 454.705 711.942 453.376C711.105 452.047 710.569 450.551 710.372 448.993C710.176 447.435 710.323 445.853 710.804 444.358C711.285 442.863 712.088 441.491 713.157 440.34L705.084 325.782L728.337 328.038L728.976 440.224C730.791 442.147 731.837 444.669 731.917 447.312C731.996 449.955 731.104 452.535 729.408 454.564C727.712 456.593 725.331 457.929 722.716 458.32C720.101 458.711 717.433 458.128 715.219 456.683V456.683Z" fill="#A0616A"/>
<path d="M670.137 573.699L656.641 573.056C655.491 573.001 654.406 572.508 653.609 571.678C652.811 570.848 652.363 569.744 652.355 568.593C648.797 513.673 643.869 454.785 651.413 432.036C651.408 431.388 651.544 430.746 651.811 430.155C652.077 429.564 652.468 429.038 652.957 428.612C653.445 428.186 654.02 427.871 654.642 427.688C655.264 427.504 655.918 427.458 656.559 427.551L710.553 435.389C711.62 435.538 712.597 436.067 713.305 436.879C714.013 437.691 714.404 438.731 714.407 439.808C721.3 466.745 721.612 515.59 721.351 566.343C721.355 566.936 721.242 567.525 721.018 568.075C720.794 568.625 720.463 569.125 720.045 569.547C719.627 569.968 719.129 570.303 718.581 570.531C718.033 570.759 717.445 570.877 716.851 570.877H702.301C701.227 570.881 700.188 570.5 699.372 569.802C698.556 569.105 698.018 568.137 697.855 567.076L688.878 510.009C688.747 509.174 688.318 508.414 687.671 507.871C687.024 507.328 686.201 507.037 685.356 507.053C684.511 507.068 683.7 507.389 683.073 507.956C682.446 508.523 682.046 509.297 681.946 510.137L674.819 569.739C674.685 570.831 674.157 571.836 673.334 572.566C672.512 573.297 671.451 573.701 670.351 573.705C670.28 573.705 670.209 573.703 670.137 573.699Z" fill="#2F2E41"/>
<path d="M679.638 439.814C667.739 433.203 658.441 431.466 653.958 431.018C653.362 430.961 652.784 430.783 652.26 430.495C651.735 430.208 651.274 429.817 650.905 429.345C650.527 428.871 650.25 428.325 650.09 427.74C649.93 427.156 649.89 426.545 649.973 425.944L662.911 329.893C663.656 324.274 665.826 318.939 669.215 314.395C672.605 309.852 677.1 306.251 682.274 303.936C687.283 301.634 692.797 300.651 698.292 301.082C703.788 301.513 709.081 303.343 713.67 306.397C714.113 306.692 714.548 306.993 714.975 307.301C720.259 311.172 724.279 316.521 726.528 322.674C728.777 328.827 729.154 335.507 727.612 341.874C719.678 374.329 716.953 427.536 716.487 437.873C716.451 438.754 716.154 439.604 715.635 440.317C715.115 441.03 714.397 441.573 713.569 441.878C708.688 443.652 703.537 444.569 698.343 444.589C691.802 444.628 685.36 442.984 679.638 439.814Z" fill="#333333"/>
<path d="M710.348 364.275C709.803 363.884 709.354 363.375 709.032 362.786C708.71 362.198 708.525 361.545 708.489 360.875L706.785 329.999C706.617 326.94 707.587 323.927 709.508 321.54C711.43 319.154 714.166 317.564 717.191 317.076C720.216 316.588 723.314 317.237 725.888 318.898C728.462 320.56 730.33 323.115 731.132 326.072L738.616 353.677C738.927 354.828 738.769 356.057 738.175 357.092C737.582 358.127 736.602 358.884 735.451 359.197L714.16 364.97C713.513 365.147 712.835 365.176 712.175 365.056C711.515 364.936 710.891 364.669 710.348 364.275V364.275Z" fill="#333333"/>
<path d="M690.46 290.895C704.024 290.895 715.021 279.898 715.021 266.333C715.021 252.769 704.024 241.772 690.46 241.772C676.895 241.772 665.899 252.769 665.899 266.333C665.899 279.898 676.895 290.895 690.46 290.895Z" fill="#A0616A"/>
<path d="M601.456 314.588C601.579 315.128 601.659 315.676 601.695 316.228L644.653 341.01L655.094 334.999L666.225 349.572L643.888 365.492L594.88 326.83C592.881 327.569 590.705 327.683 588.64 327.155C586.575 326.628 584.719 325.484 583.32 323.876C581.921 322.268 581.045 320.273 580.807 318.155C580.57 316.037 580.983 313.897 581.992 312.019C583 310.142 584.556 308.616 586.453 307.644C588.35 306.673 590.498 306.302 592.611 306.58C594.724 306.859 596.702 307.775 598.282 309.205C599.862 310.636 600.969 312.513 601.456 314.588V314.588Z" fill="#A0616A"/>
<path d="M646.187 338.903C646.115 338.236 646.194 337.561 646.418 336.929C646.642 336.297 647.005 335.723 647.48 335.249L669.344 313.381C671.51 311.215 674.401 309.927 677.461 309.766C680.52 309.605 683.531 310.583 685.912 312.511C688.293 314.438 689.877 317.179 690.357 320.205C690.837 323.231 690.179 326.327 688.512 328.897L672.942 352.889C672.291 353.889 671.27 354.591 670.103 354.839C668.937 355.087 667.719 354.863 666.717 354.215L648.213 342.206C647.65 341.842 647.175 341.356 646.825 340.785C646.474 340.213 646.256 339.57 646.187 338.903V338.903Z" fill="#333333"/>
<path d="M707.84 285.765C703.258 290.646 694.749 288.026 694.152 281.358C694.105 280.84 694.108 280.319 694.162 279.802C694.47 276.849 696.177 274.167 695.768 271.049C695.675 270.273 695.386 269.533 694.928 268.9C691.277 264.01 682.706 271.087 679.26 266.66C677.147 263.946 679.63 259.673 678.009 256.64C675.869 252.636 669.53 254.611 665.555 252.419C661.132 249.979 661.397 243.194 664.308 239.066C667.859 234.033 674.084 231.347 680.232 230.959C686.379 230.572 692.485 232.234 698.224 234.471C704.745 237.012 711.212 240.524 715.225 246.258C720.105 253.232 720.574 262.606 718.134 270.76C716.649 275.72 711.582 281.779 707.84 285.765Z" fill="#2F2E41"/>
</svg>
