<svg width="1022" height="783" viewBox="0 0 1022 783" fill="none" xmlns="http://www.w3.org/2000/svg">
<path d="M867 782.954C952.328 782.954 1021.5 771.537 1021.5 757.454C1021.5 743.371 952.328 731.954 867 731.954C781.672 731.954 712.5 743.371 712.5 757.454C712.5 771.537 781.672 782.954 867 782.954Z" fill="#333333"/>
<path d="M997.677 663.57C997.374 718.354 964.699 737.3 924.527 737.078C923.594 737.073 922.665 737.057 921.741 737.031C919.88 736.981 918.038 736.885 916.216 736.746C879.973 733.978 851.913 713.714 852.195 662.764C852.487 610.038 920.244 543.871 925.325 538.979C925.329 538.979 925.329 538.979 925.334 538.975C925.527 538.789 925.626 538.695 925.626 538.695C925.626 538.695 997.981 608.79 997.677 663.57Z" fill="#EF5533"/>
<path d="M921.926 728.683L948.736 691.658L921.836 732.763L921.741 737.031C919.88 736.981 918.038 736.885 916.216 736.746L919.385 681.955L919.365 681.531L919.415 681.451L919.716 676.273L893.207 634.77L919.818 672.394L919.879 673.493L922.273 632.096L899.62 589.234L922.595 624.82L925.325 538.979L925.335 538.694L925.334 538.975L924.584 606.678L947.515 579.963L924.453 612.508L923.645 649.583L945.125 614.118L923.53 655.034L923.081 675.649L954.241 626.29L922.921 682.841L921.926 728.683Z" fill="#3F3D56"/>
<path d="M852.454 247.016C879.347 247.016 901.149 225.214 901.149 198.321C901.149 171.427 879.347 149.625 852.454 149.625C825.56 149.625 803.759 171.427 803.759 198.321C803.759 225.214 825.56 247.016 852.454 247.016Z" fill="#2F2E41"/>
<path d="M845.206 248.4C863.469 248.4 878.274 233.595 878.274 215.332C878.274 197.069 863.469 182.264 845.206 182.264C826.943 182.264 812.138 197.069 812.138 215.332C812.138 233.595 826.943 248.4 845.206 248.4Z" fill="#FFB8B8"/>
<path d="M825.544 233.206C825.544 233.206 839.844 266.274 832.694 269.849C825.544 273.424 821.969 289.511 821.969 289.511L840.738 328.835L866.656 344.922H881.849C881.849 344.922 897.042 276.999 891.68 268.955C886.317 260.912 866.656 256.443 866.656 256.443C866.656 256.443 862.187 245.719 863.974 235.888C865.762 226.057 825.544 233.206 825.544 233.206Z" fill="#FFB8B8"/>
<path d="M804.095 327.047L780.858 308.279C780.858 308.279 738.853 278.786 744.216 300.236C749.578 321.685 773.708 323.472 773.708 323.472L813.926 355.646L804.095 327.047Z" fill="#FFB8B8"/>
<path d="M802.308 425.357C802.308 425.357 791.583 470.043 802.308 530.816L806.776 554.946C806.776 554.946 806.776 573.714 811.245 580.864C811.245 580.864 822.863 687.217 829.119 687.217C835.375 687.217 855.037 683.642 856.825 680.961C858.612 678.28 821.969 420.888 821.969 420.888L802.308 425.357Z" fill="#2F2E41"/>
<path opacity="0.1" d="M802.308 425.357C802.308 425.357 791.583 470.043 802.308 530.816L806.776 554.946C806.776 554.946 806.776 573.714 811.245 580.864C811.245 580.864 822.863 687.217 829.119 687.217C835.375 687.217 855.037 683.642 856.825 680.961C858.612 678.28 821.969 420.888 821.969 420.888L802.308 425.357Z" fill="black"/>
<path d="M831.658 680.079L817.814 731.385C817.814 731.385 790.125 747.673 807.227 750.93C824.329 754.188 841.431 747.673 841.431 747.673L849.574 724.056L857.718 719.169V744.415H860.161L865.862 711.026C865.862 711.026 865.048 693.924 860.161 692.295C855.275 690.666 852.832 681.708 852.832 681.708L831.658 680.079Z" fill="#2F2E41"/>
<path opacity="0.1" d="M831.658 680.079L817.814 731.385C817.814 731.385 790.125 747.673 807.227 750.93C824.329 754.188 841.431 747.673 841.431 747.673L849.574 724.056L857.718 719.169V744.415H860.161L865.862 711.026C865.862 711.026 865.048 693.924 860.161 692.295C855.275 690.666 852.832 681.708 852.832 681.708L831.658 680.079Z" fill="black"/>
<path d="M798.733 423.569C798.733 423.569 805.882 450.381 808.564 454.849C808.564 454.849 812.138 530.816 823.757 556.734L836.269 589.801C836.269 589.801 856.825 687.217 851.462 697.942C851.462 697.942 879.168 704.198 880.955 697.942C880.955 697.942 880.061 646.106 882.742 638.956C885.424 631.806 889.892 592.482 868.443 563.883V477.192C868.443 477.192 902.404 448.593 882.742 411.951C863.081 375.308 798.733 423.569 798.733 423.569Z" fill="#2F2E41"/>
<path d="M854.143 692.579L838.95 748.884C838.95 748.884 808.563 766.758 827.332 770.333C846.1 773.908 864.868 766.758 864.868 766.758L873.805 740.84L882.742 735.478V763.183H885.424L891.68 726.541C891.68 726.541 890.786 707.773 885.424 705.985C880.061 704.198 877.38 694.367 877.38 694.367L854.143 692.579Z" fill="#2F2E41"/>
<path d="M834.638 263.174C834.638 263.174 812.139 276.105 812.139 276.999C812.139 277.892 814.82 292.192 814.82 292.192C814.82 292.192 787.114 319.897 805.882 344.028C805.882 344.028 812.139 348.497 812.139 362.796V377.096C812.139 377.096 759.409 410.163 772.815 420.888C786.221 431.613 800.52 429.825 804.989 436.081C809.457 442.337 835.375 430.719 840.738 428.931C846.1 427.144 846.994 425.357 851.462 431.613C855.931 437.869 880.955 427.144 880.955 427.144C880.955 427.144 897.042 422.675 900.617 422.675C902.825 422.649 904.985 422.032 906.873 420.888L868.443 381.564L887.658 332.856C887.658 332.856 830.907 297.554 830.907 287.723C830.907 277.893 834.638 263.174 834.638 263.174Z" fill="#333333"/>
<path d="M869.337 265.38C869.337 265.38 857.718 281.467 866.656 303.81C875.593 326.153 889.892 352.071 889.892 352.071L867.549 359.221H846.994C846.994 359.221 804.095 352.071 808.564 368.158C813.032 384.245 843.419 377.096 843.419 377.096H861.293C861.293 377.096 901.511 381.564 906.873 374.414C906.873 374.414 921.173 373.521 914.917 344.922C908.661 316.323 890.395 267.367 890.395 267.367L869.337 265.38Z" fill="#FFB8B8"/>
<path d="M838.776 200.509C856 200.509 869.962 193.405 869.962 184.642C869.962 175.879 856 168.775 838.776 168.775C821.552 168.775 807.589 175.879 807.589 184.642C807.589 193.405 821.552 200.509 838.776 200.509Z" fill="#2F2E41"/>
<path d="M877.827 222.929C880.295 222.929 882.296 218.527 882.296 213.098C882.296 207.668 880.295 203.267 877.827 203.267C875.359 203.267 873.358 207.668 873.358 213.098C873.358 218.527 875.359 222.929 877.827 222.929Z" fill="#FFB8B8"/>
<path d="M874.252 181.817C889.06 181.817 901.064 169.813 901.064 155.006C901.064 140.198 889.06 128.194 874.252 128.194C859.444 128.194 847.44 140.198 847.44 155.006C847.44 169.813 859.444 181.817 874.252 181.817Z" fill="#2F2E41"/>
<path opacity="0.3" d="M303 276.954C363.751 276.954 413 227.705 413 166.954C413 106.203 363.751 56.9541 303 56.9541C242.249 56.9541 193 106.203 193 166.954C193 227.705 242.249 276.954 303 276.954Z" fill="#EF5533"/>
<path opacity="0.3" d="M90 537.954C125.899 537.954 155 508.853 155 472.954C155 437.056 125.899 407.954 90 407.954C54.1015 407.954 25 437.056 25 472.954C25 508.853 54.1015 537.954 90 537.954Z" fill="#EF5533"/>
<path opacity="0.3" d="M507 605.954C580.454 605.954 640 546.408 640 472.954C640 399.5 580.454 339.954 507 339.954C433.546 339.954 374 399.5 374 472.954C374 546.408 433.546 605.954 507 605.954Z" fill="#EF5533"/>
<path d="M66.1299 258.037L64.1738 257.62C64.5928 255.655 65.0295 253.696 65.4839 251.745L67.4321 252.198C66.9805 254.138 66.5464 256.084 66.1299 258.037Z" fill="#333333"/>
<path d="M695.887 241.513C694.861 237.703 693.748 233.855 692.58 230.076L694.49 229.485C695.666 233.287 696.786 237.159 697.818 240.994L695.887 241.513ZM70.3496 240.639L68.4199 240.114C69.4668 236.268 70.6016 232.385 71.793 228.573L73.7021 229.17C72.5176 232.959 71.3901 236.817 70.3496 240.639V240.639ZM688.858 218.789C687.549 215.054 686.157 211.304 684.72 207.642L686.581 206.912C688.027 210.596 689.429 214.37 690.745 218.127L688.858 218.789ZM77.4775 217.836L75.5918 217.169C76.9238 213.407 78.3433 209.621 79.811 205.917L81.6704 206.653C80.2114 210.335 78.8008 214.098 77.4775 217.836V217.836ZM680.17 196.653C678.596 193.039 676.93 189.399 675.219 185.837L677.021 184.971C678.743 188.556 680.42 192.217 682.004 195.855L680.17 196.653ZM86.2739 195.636L84.4429 194.831C86.0483 191.181 87.7432 187.513 89.4814 183.927L91.2812 184.799C89.5537 188.363 87.8691 192.009 86.2739 195.636V195.636ZM669.868 175.207C668.024 171.707 666.094 168.198 664.13 164.78L665.864 163.784C667.84 167.223 669.783 170.753 671.638 174.275L669.868 175.207ZM96.686 174.158L94.9194 173.22C96.791 169.698 98.7519 166.166 100.748 162.722L102.478 163.725C100.495 167.147 98.5454 170.658 96.686 174.158ZM658.011 154.568C655.92 151.218 653.735 147.86 651.52 144.586L653.177 143.465C655.406 146.759 657.603 150.139 659.708 153.509L658.011 154.568ZM108.649 153.514L106.957 152.449C109.079 149.08 111.293 145.703 113.539 142.412L115.191 143.539C112.959 146.811 110.758 150.167 108.649 153.514H108.649ZM644.664 134.847C642.343 131.671 639.918 128.48 637.457 125.364L639.027 124.125C641.503 127.261 643.942 130.471 646.279 133.667L644.664 134.847ZM122.095 133.813L120.485 132.626C122.852 129.417 125.308 126.213 127.784 123.102L129.349 124.347C126.888 127.439 124.447 130.624 122.095 133.813H122.095ZM629.904 116.149C627.344 113.138 624.691 110.132 622.021 107.215L623.495 105.864C626.183 108.799 628.852 111.823 631.428 114.853L629.904 116.149ZM136.944 115.155L135.425 113.853C138.014 110.834 140.697 107.819 143.399 104.892L144.869 106.248C142.183 109.158 139.517 112.154 136.944 115.155V115.155ZM613.812 98.5738C611.032 95.752 608.166 92.9473 605.293 90.2373L606.666 88.7823C609.556 91.5093 612.439 94.3311 615.236 97.1704L613.812 98.5738ZM153.113 97.6387L151.694 96.2295C154.502 93.4014 157.397 90.5913 160.298 87.8775L161.665 89.3379C158.781 92.0352 155.904 94.8282 153.113 97.6387V97.6387ZM596.472 82.2168C593.496 79.6079 590.432 77.0191 587.364 74.5225L588.626 72.9717C591.713 75.4834 594.796 78.0879 597.79 80.7129L596.472 82.2168ZM170.513 81.3555L169.201 79.8462C172.206 77.2334 175.297 74.6431 178.39 72.147L179.646 73.7036C176.573 76.1841 173.5 78.7588 170.513 81.3555V81.3555ZM577.978 67.1661C574.825 64.7862 571.578 62.4283 568.328 60.1578L569.473 58.5181C572.744 60.8028 576.011 63.1754 579.183 65.5694L577.978 67.1661ZM189.051 66.3921L187.853 64.7905C191.042 62.4038 194.314 60.0474 197.578 57.7866L198.716 59.4311C195.473 61.6773 192.221 64.0196 189.051 66.3921ZM558.426 53.5073C555.1 51.3613 551.687 49.2471 548.283 47.2246L549.305 45.5049C552.729 47.5405 556.163 49.6675 559.51 51.8267L558.426 53.5073ZM208.628 52.8306L207.55 51.1461C210.901 49.0021 214.335 46.8927 217.758 44.8761L218.773 46.5997C215.372 48.6035 211.958 50.7002 208.628 52.8306V52.8306ZM537.913 41.3189C534.445 39.4263 530.885 37.5689 527.332 35.7984L528.225 34.0084C531.799 35.7901 535.382 37.6588 538.871 39.5631L537.913 41.3189ZM229.139 40.7466L228.188 38.9869C231.684 37.0972 235.263 35.2466 238.824 33.4873L239.71 35.2803C236.17 37.0288 232.613 38.8682 229.139 40.7466ZM516.551 30.6709C512.95 29.0391 509.262 27.4502 505.587 25.9473L506.344 24.0957C510.042 25.6079 513.754 27.2075 517.377 28.8496L516.551 30.6709ZM250.474 30.2095L249.655 28.3853C253.274 26.7613 256.978 25.1802 260.663 23.687L261.414 25.5406C257.751 27.0249 254.07 28.5957 250.474 30.2095V30.2095ZM494.451 21.6319C490.725 20.2671 486.926 18.9551 483.16 17.732L483.778 15.8296C487.567 17.0606 491.389 18.3809 495.139 19.7539L494.451 21.6319ZM272.516 21.2793L271.834 19.3994C275.568 18.0444 279.376 16.7427 283.152 15.5293L283.764 17.4336C280.012 18.6392 276.228 19.9331 272.516 21.2793V21.2793ZM471.729 14.2534C467.92 13.1714 464.043 12.1475 460.206 11.209L460.68 9.26663C464.542 10.2105 468.443 11.2412 472.275 12.3296L471.729 14.2534ZM295.177 13.9981L294.636 12.0723C298.463 10.9976 302.367 9.97854 306.239 9.04349L306.709 10.9878C302.86 11.917 298.98 12.9297 295.177 13.9981ZM448.578 8.59378C444.705 7.79788 440.763 7.06352 436.861 6.41068L437.191 4.43802C441.117 5.09476 445.083 5.83402 448.98 6.63479L448.578 8.59378ZM318.343 8.40578L317.947 6.44578C321.851 5.65525 325.819 4.92771 329.742 4.28318L330.066 6.25682C326.168 6.897 322.224 7.62015 318.343 8.40579V8.40578ZM425.072 4.66018C421.143 4.1509 417.157 3.709 413.227 3.34523L413.411 1.35402C417.366 1.71975 421.375 2.16457 425.329 2.67678L425.072 4.66018ZM341.86 4.54152L341.609 2.55715C345.55 2.05764 349.561 1.62404 353.53 1.26809L353.709 3.26027C349.764 3.6138 345.777 4.04495 341.86 4.54153V4.54152ZM401.341 2.46437C397.399 2.24416 393.393 2.09377 389.431 2.01711L389.47 0.0171127C393.455 0.0947527 397.487 0.24611 401.452 0.4673L401.341 2.46437ZM365.598 2.41308L365.492 0.416C369.463 0.20556 373.496 0.06591 377.478 0L377.511 2C373.553 2.06497 369.545 2.20413 365.598 2.41308Z" fill="#333333"/>
<path d="M700.104 259.145C699.694 257.191 699.267 255.243 698.823 253.303L700.772 252.855C701.221 254.809 701.65 256.768 702.062 258.735L700.104 259.145Z" fill="#333333"/>
<path d="M702.802 389.546L700.839 389.158C701.225 387.205 701.593 385.246 701.944 383.28L703.913 383.63C703.561 385.609 703.19 387.581 702.802 389.546Z" fill="#333333"/>
<path d="M383 651.954C380.827 651.954 378.658 651.933 376.495 651.891L376.534 649.891C380.487 649.968 384.468 649.973 388.426 649.909L388.458 651.909C386.643 651.938 384.823 651.953 383 651.954ZM400.416 651.498L400.311 649.5C404.266 649.292 408.256 649.009 412.17 648.659L412.348 650.651C408.41 651.003 404.395 651.288 400.416 651.498ZM364.541 651.44C360.571 651.219 356.558 650.922 352.612 650.558L352.795 648.565C356.718 648.928 360.707 649.224 364.652 649.444L364.541 651.44ZM424.242 649.371L423.991 647.387C427.928 646.889 431.887 646.314 435.758 645.68L436.081 647.654C432.186 648.292 428.203 648.869 424.242 649.371V649.371ZM340.721 649.238C336.77 648.726 332.788 648.136 328.887 647.483L329.217 645.511C333.094 646.158 337.051 646.745 340.978 647.254L340.721 649.238ZM447.85 645.505L447.454 643.544C451.335 642.761 455.241 641.896 459.063 640.977L459.531 642.922C455.685 643.847 451.755 644.716 447.85 645.505V645.505ZM317.126 645.295C313.225 644.494 309.297 643.612 305.453 642.674L305.928 640.73C309.748 641.663 313.651 642.54 317.528 643.336L317.126 645.295ZM471.109 639.908L470.57 637.982C474.364 636.92 478.195 635.77 481.958 634.564L482.568 636.469C478.782 637.683 474.927 638.84 471.109 639.908V639.908ZM293.884 639.624C290.061 638.54 286.2 637.367 282.406 636.138L283.022 634.235C286.793 635.457 290.631 636.623 294.43 637.7L293.884 639.624ZM493.862 632.62L493.182 630.739C496.877 629.402 500.605 627.976 504.26 626.5L505.009 628.354C501.331 629.84 497.581 631.275 493.862 632.62L493.862 632.62ZM271.069 632.23C267.331 630.864 263.568 629.409 259.886 627.905L260.642 626.054C264.301 627.548 268.041 628.994 271.755 630.351L271.069 632.23ZM515.993 623.682L515.177 621.855C518.776 620.245 522.391 618.548 525.92 616.809L526.803 618.604C523.252 620.352 519.615 622.061 515.993 623.682L515.993 623.682ZM248.874 623.172C245.25 621.533 241.608 619.806 238.048 618.036L238.938 616.245C242.476 618.004 246.097 619.722 249.699 621.35L248.874 623.172ZM537.422 613.131L536.473 611.371C539.949 609.498 543.431 607.539 546.82 605.548L547.834 607.272C544.422 609.275 540.919 611.247 537.422 613.131H537.422ZM227.42 612.504C223.926 610.603 220.422 608.612 217.005 606.587L218.025 604.866C221.421 606.88 224.903 608.858 228.376 610.747L227.42 612.504ZM558.027 601.032L556.952 599.347C560.264 597.235 563.593 595.025 566.849 592.777L567.985 594.424C564.709 596.685 561.358 598.908 558.027 601.032H558.027ZM206.817 600.292C203.477 598.142 200.13 595.901 196.869 593.629L198.012 591.988C201.254 594.246 204.58 596.474 207.899 598.61L206.817 600.292ZM577.697 587.453L576.502 585.85C579.657 583.497 582.818 581.049 585.896 578.573L587.15 580.132C584.053 582.623 580.872 585.086 577.697 587.453L577.697 587.453ZM187.173 586.607C184.005 584.225 180.832 581.745 177.742 579.237L179.001 577.685C182.073 580.177 185.227 582.641 188.375 585.01L187.173 586.607ZM596.33 572.468L595.021 570.956C598.002 568.374 600.976 565.701 603.863 563.011L605.226 564.474C602.323 567.181 599.33 569.87 596.33 572.468L596.33 572.468ZM168.587 571.526C165.593 568.91 162.61 566.206 159.722 563.49L161.092 562.033C163.962 564.732 166.927 567.42 169.903 570.02L168.587 571.526ZM613.829 556.159L612.413 554.747C615.208 551.944 617.98 549.061 620.654 546.177L622.121 547.536C619.431 550.438 616.641 553.34 613.829 556.159ZM151.157 555.137C148.37 552.318 145.593 549.405 142.903 546.478L144.375 545.125C147.049 548.034 149.809 550.929 152.579 553.73L151.157 555.137ZM630.095 538.613L628.579 537.309C631.159 534.312 633.716 531.233 636.177 528.155L637.739 529.405C635.263 532.501 632.69 535.6 630.095 538.613V538.613ZM134.972 537.525C132.397 534.509 129.841 531.402 127.375 528.291L128.942 527.049C131.394 530.141 133.934 533.228 136.494 536.227L134.972 537.525ZM645.045 519.921L643.438 518.729C645.798 515.545 648.123 512.286 650.348 509.044L651.996 510.175C649.759 513.437 647.42 516.716 645.045 519.921V519.921ZM120.121 518.786C117.771 515.589 115.449 512.305 113.219 509.026L114.874 507.901C117.089 511.16 119.396 514.424 121.732 517.603L120.121 518.786ZM658.589 500.178L656.899 499.107C659.01 495.778 661.09 492.356 663.083 488.938L664.812 489.946C662.806 493.386 660.712 496.828 658.589 500.178V500.178ZM106.682 499.021C104.574 495.664 102.5 492.221 100.516 488.787L102.248 487.787C104.219 491.199 106.281 494.621 108.376 497.959L106.682 499.021ZM670.654 479.489L668.891 478.546C670.761 475.049 672.584 471.482 674.312 467.945L676.108 468.822C674.371 472.382 672.536 475.971 670.654 479.489ZM94.731 478.334C92.875 474.83 91.0596 471.245 89.3355 467.68L91.1363 466.809C92.8497 470.353 94.6539 473.915 96.4986 477.398L94.731 478.334ZM681.167 457.961L679.339 457.15C680.938 453.542 682.495 449.848 683.965 446.172L685.822 446.914C684.343 450.613 682.777 454.33 681.167 457.961V457.961ZM84.3364 456.834C82.7422 453.202 81.1963 449.495 79.7412 445.817L81.6011 445.081C83.0469 448.737 84.5835 452.421 86.1675 456.03L84.3364 456.834ZM690.065 435.701L688.183 435.027C689.516 431.298 690.795 427.497 691.986 423.731L693.893 424.335C692.695 428.123 691.407 431.947 690.065 435.701V435.701ZM75.5576 434.641C74.2344 430.897 72.9629 427.078 71.7793 423.288L73.6885 422.692C74.8648 426.458 76.1279 430.254 77.4434 433.975L75.5576 434.641ZM697.295 412.832L695.367 412.299C696.414 408.508 697.406 404.633 698.316 400.781L700.264 401.242C699.347 405.117 698.349 409.017 697.295 412.832ZM68.4233 411.806C67.3823 407.98 66.3979 404.083 65.4976 400.22L67.4458 399.767C68.3403 403.605 69.3184 407.479 70.353 411.28L68.4233 411.806Z" fill="#333333"/>
<path d="M62.9565 388.307C62.5757 386.34 62.2124 384.367 61.8667 382.387L63.8374 382.043C64.1802 384.01 64.5412 385.971 64.9204 387.926L62.9565 388.307Z" fill="#333333"/>
<path d="M546.265 390.46L544.405 389.725C545.131 387.89 545.836 386.012 546.502 384.141L548.387 384.812C547.713 386.704 546.999 388.604 546.265 390.46Z" fill="#333333"/>
<path d="M383 501.454C380.604 501.454 378.187 501.405 375.814 501.31L375.896 499.312C379.832 499.471 383.855 499.498 387.803 499.389L387.858 501.389C386.244 501.433 384.624 501.454 383 501.454ZM399.878 500.652L399.688 498.662C403.627 498.287 407.599 497.77 411.496 497.126L411.822 499.099C407.88 499.751 403.862 500.273 399.878 500.652ZM363.804 500.416C359.826 499.983 355.815 499.407 351.883 498.703L352.236 496.734C356.123 497.43 360.088 498 364.021 498.428L363.804 500.416ZM423.63 496.727L423.168 494.781C427.019 493.867 430.882 492.81 434.651 491.636L435.246 493.546C431.433 494.732 427.525 495.803 423.63 496.727V496.727ZM340.107 496.174C336.223 495.198 332.328 494.075 328.53 492.837L329.15 490.935C332.905 492.159 336.755 493.27 340.594 494.234L340.107 496.174ZM446.615 489.568L445.89 487.705C449.57 486.273 453.251 484.691 456.83 483.007L457.683 484.815C454.062 486.521 450.338 488.12 446.615 489.568V489.568ZM317.212 488.706C313.501 487.205 309.799 485.556 306.207 483.804L307.084 482.007C310.634 483.738 314.294 485.368 317.962 486.853L317.212 488.706ZM468.396 479.312L467.421 477.566C470.876 475.637 474.306 473.565 477.614 471.409L478.706 473.085C475.36 475.266 471.891 477.361 468.396 479.312ZM295.565 478.157C292.099 476.161 288.658 474.02 285.338 471.792L286.452 470.132C289.734 472.334 293.136 474.451 296.563 476.425L295.565 478.157ZM488.567 466.166L487.362 464.57C490.523 462.185 493.638 459.664 496.62 457.078L497.931 458.59C494.915 461.205 491.764 463.754 488.567 466.166ZM275.57 464.741C272.404 462.287 269.287 459.695 266.308 457.039L267.639 455.547C270.584 458.172 273.665 460.733 276.796 463.161L275.57 464.741ZM506.755 450.393L505.345 448.975C508.149 446.185 510.892 443.264 513.497 440.293L515.001 441.611C512.366 444.616 509.592 447.57 506.755 450.393V450.393ZM257.592 448.727C254.795 445.87 252.061 442.88 249.464 439.838L250.985 438.539C253.552 441.547 256.256 444.504 259.021 447.328L257.592 448.727ZM522.629 432.289L521.039 431.076C523.436 427.935 525.755 424.668 527.934 421.365L529.604 422.467C527.399 425.808 525.054 429.112 522.629 432.289ZM241.961 430.415C239.576 427.201 237.274 423.865 235.12 420.501L236.804 419.423C238.934 422.748 241.209 426.046 243.567 429.224L241.961 430.415ZM535.886 412.19L534.146 411.206C536.09 407.766 537.94 404.212 539.646 400.644L541.45 401.506C539.726 405.115 537.854 408.71 535.886 412.19H535.886ZM228.975 410.144C227.052 406.632 225.229 403.013 223.556 399.388L225.373 398.55C227.025 402.134 228.828 405.711 230.729 409.183L228.975 410.144Z" fill="#333333"/>
<path d="M218.865 388.216C218.157 386.351 217.47 384.441 216.821 382.538L218.715 381.893C219.355 383.774 220.035 385.663 220.735 387.506L218.865 388.216Z" fill="#333333"/>
<path d="M221.955 261.279L220.1 260.533C220.849 258.669 221.638 256.799 222.446 254.974L224.275 255.784C223.477 257.588 222.696 259.437 221.955 261.279Z" fill="#333333"/>
<path d="M229.531 244.949L227.763 244.015C229.652 240.442 231.693 236.888 233.828 233.453L235.526 234.509C233.416 237.905 231.399 241.417 229.531 244.949ZM534.891 242.036C532.958 238.543 530.874 235.07 528.698 231.712L530.376 230.624C532.577 234.02 534.686 237.534 536.641 241.067L534.891 242.036ZM242.231 224.509L240.61 223.338C242.977 220.06 245.488 216.823 248.075 213.717L249.612 214.997C247.055 218.068 244.571 221.268 242.231 224.509ZM521.803 221.842C519.404 218.649 516.86 215.497 514.244 212.472L515.756 211.164C518.403 214.223 520.976 217.411 523.402 220.641L521.803 221.842ZM257.631 206.017L256.186 204.634C258.981 201.713 261.914 198.853 264.904 196.131L266.25 197.61C263.294 200.301 260.395 203.129 257.631 206.017ZM506.057 203.646C503.239 200.811 500.286 198.038 497.279 195.404L498.598 193.9C501.638 196.564 504.625 199.369 507.476 202.236L506.057 203.646ZM275.428 189.818L274.187 188.249C277.36 185.739 280.659 183.31 283.992 181.028L285.122 182.678C281.826 184.934 278.565 187.336 275.428 189.818ZM487.956 187.788C484.776 185.369 481.469 183.029 478.127 180.834L479.225 179.162C482.606 181.383 485.951 183.749 489.167 186.196L487.956 187.788ZM295.285 176.228L294.272 174.503C297.758 172.457 301.361 170.506 304.981 168.707L305.872 170.498C302.293 172.276 298.731 174.205 295.285 176.228ZM467.841 174.578C464.352 172.618 460.753 170.758 457.146 169.05L458.001 167.243C461.651 168.97 465.291 170.852 468.821 172.833L467.841 174.578ZM316.832 165.518L316.068 163.669C319.804 162.126 323.644 160.696 327.479 159.418L328.11 161.315C324.32 162.579 320.525 163.992 316.832 165.518V165.518ZM446.092 164.282C442.366 162.827 438.544 161.486 434.732 160.297L435.328 158.388C439.184 159.591 443.05 160.947 446.819 162.419L446.092 164.282ZM339.656 157.912L339.158 155.975C343.071 154.969 347.073 154.087 351.051 153.356L351.412 155.323C347.48 156.046 343.525 156.917 339.656 157.912V157.912ZM423.123 157.116C419.234 156.196 415.263 155.401 411.319 154.753L411.643 152.78C415.633 153.435 419.65 154.239 423.583 155.17L423.123 157.116ZM363.321 153.558L363.096 151.571C367.101 151.119 371.185 150.8 375.236 150.623L375.323 152.621C371.317 152.796 367.279 153.111 363.321 153.558V153.558ZM399.379 153.217C395.409 152.845 391.366 152.606 387.362 152.508L387.411 150.509C391.461 150.608 395.55 150.85 399.566 151.226L399.379 153.217Z" fill="#333333"/>
<path d="M542.805 258.277C542.03 256.45 541.215 254.616 540.382 252.826L542.194 251.982C543.037 253.792 543.862 255.648 544.646 257.496L542.805 258.277Z" fill="#333333"/>
<path d="M568.621 325.717C565.994 325.707 563.445 326.609 561.409 328.268C559.373 329.928 557.975 332.243 557.455 334.818C556.935 337.392 557.325 340.068 558.558 342.388C559.79 344.707 561.79 346.528 564.215 347.538C566.64 348.548 569.34 348.685 571.855 347.926C574.37 347.167 576.543 345.559 578.005 343.376C579.466 341.194 580.125 338.571 579.869 335.957C579.613 333.343 578.457 330.898 576.6 329.041C575.557 327.985 574.314 327.148 572.945 326.577C571.575 326.006 570.105 325.714 568.621 325.717V325.717Z" fill="#333333"/>
<path d="M523.379 325.717C520.752 325.707 518.203 326.609 516.167 328.268C514.13 329.928 512.733 332.243 512.213 334.818C511.693 337.392 512.083 340.068 513.315 342.388C514.548 344.707 516.547 346.528 518.972 347.538C521.397 348.548 524.098 348.685 526.612 347.926C529.127 347.167 531.301 345.559 532.763 343.376C534.224 341.194 534.883 338.571 534.627 335.957C534.37 333.343 533.215 330.898 531.358 329.041C530.313 327.988 529.07 327.152 527.7 326.582C526.331 326.011 524.862 325.718 523.379 325.717Z" fill="#333333"/>
<path d="M546 262.954C534.727 262.954 523.706 266.297 514.333 272.56C504.959 278.824 497.653 287.726 493.339 298.141C489.025 308.557 487.896 320.017 490.095 331.074C492.295 342.131 497.723 352.288 505.695 360.259C513.667 368.231 523.823 373.659 534.88 375.859C545.937 378.058 557.398 376.929 567.813 372.615C578.228 368.301 587.131 360.995 593.394 351.622C599.657 342.248 603 331.228 603 319.954C603 304.837 596.995 290.339 586.305 279.649C575.616 268.959 561.117 262.954 546 262.954V262.954ZM557.077 286.723C557.802 286.716 558.52 286.854 559.191 287.128C559.862 287.402 560.472 287.807 560.984 288.32C561.497 288.832 561.902 289.442 562.176 290.113C562.45 290.784 562.588 291.502 562.581 292.227C562.588 293.326 562.268 294.401 561.662 295.317C561.056 296.233 560.191 296.949 559.178 297.372C558.164 297.796 557.048 297.908 555.97 297.696C554.893 297.483 553.903 296.955 553.126 296.178C552.349 295.401 551.821 294.411 551.609 293.334C551.396 292.256 551.509 291.14 551.932 290.126C552.356 289.113 553.071 288.248 553.987 287.642C554.903 287.036 555.979 286.716 557.077 286.723V286.723ZM523.379 353.185C520.183 353.187 517.058 352.24 514.399 350.466C511.741 348.691 509.669 346.168 508.445 343.215C507.221 340.262 506.9 337.013 507.524 333.878C508.147 330.743 509.686 327.864 511.946 325.604C514.206 323.344 517.085 321.805 520.22 321.181C523.355 320.558 526.605 320.879 529.557 322.103C532.51 323.327 535.033 325.399 536.808 328.057C538.582 330.716 539.529 333.841 539.527 337.037C539.513 341.315 537.807 345.414 534.781 348.439C531.756 351.465 527.657 353.171 523.379 353.185H523.379ZM548.769 320.993V336.569C548.769 337.304 548.478 338.008 547.958 338.528C547.439 339.047 546.735 339.339 546 339.339C545.266 339.339 544.561 339.047 544.042 338.528C543.523 338.008 543.231 337.304 543.231 336.569V325.164C543.231 322.896 540.462 322.394 532.587 317.86C531.565 317.254 529.385 316.181 529.385 313.169C529.402 311.718 529.979 310.329 530.994 309.293L543.404 297.333C543.993 296.737 544.712 296.286 545.504 296.015C546.297 295.744 547.142 295.66 547.972 295.771C548.802 295.881 549.596 296.183 550.29 296.653C550.984 297.122 551.559 297.746 551.971 298.475L557.077 308.877H565.385C566.118 308.879 566.821 309.171 567.34 309.69C567.858 310.209 568.149 310.913 568.149 311.646C568.149 312.38 567.858 313.084 567.34 313.603C566.821 314.122 566.118 314.414 565.385 314.416H555.45C553.598 314.416 552.11 310.435 548.873 305.502L540.41 314.416C543.508 316.839 548.769 318.708 548.769 320.993H548.769ZM568.621 353.168C565.427 353.168 562.305 352.22 559.65 350.446C556.994 348.672 554.925 346.15 553.702 343.199C552.48 340.248 552.16 337.002 552.783 333.869C553.407 330.737 554.945 327.859 557.203 325.601C559.461 323.343 562.339 321.805 565.471 321.182C568.603 320.559 571.85 320.878 574.801 322.101C577.752 323.323 580.274 325.393 582.048 328.048C583.822 330.704 584.769 333.826 584.769 337.019C584.756 341.298 583.05 345.398 580.025 348.423C576.999 351.449 572.9 353.154 568.621 353.168H568.621Z" fill="#333333"/>
<path d="M708 262.954C696.727 262.954 685.706 266.297 676.333 272.56C666.959 278.824 659.653 287.726 655.339 298.141C651.025 308.557 649.896 320.017 652.095 331.074C654.295 342.131 659.723 352.288 667.695 360.259C675.667 368.231 685.823 373.659 696.88 375.859C707.937 378.058 719.398 376.929 729.813 372.615C740.228 368.301 749.131 360.995 755.394 351.622C761.657 342.248 765 331.228 765 319.954C765 304.837 758.995 290.339 748.305 279.649C737.616 268.959 723.117 262.954 708 262.954ZM692.89 303.702C694.634 303.742 696.328 304.297 697.758 305.295C699.188 306.293 700.293 307.691 700.932 309.314C701.571 310.937 701.718 312.713 701.353 314.419C700.988 316.124 700.128 317.684 698.88 318.904C697.632 320.123 696.053 320.947 694.339 321.272C692.625 321.597 690.853 321.41 689.246 320.733C687.638 320.056 686.266 318.92 685.301 317.467C684.336 316.014 683.821 314.308 683.821 312.564C683.834 311.386 684.079 310.222 684.541 309.139C685.004 308.056 685.676 307.075 686.518 306.252C687.361 305.429 688.357 304.78 689.45 304.343C690.544 303.905 691.713 303.687 692.89 303.702V303.702ZM741.231 342.108H735.19V333.246H680.81V342.108H674.769V297.8H680.81V324.385H704.971V303.702H729.15C730.72 303.685 732.277 303.977 733.734 304.562C735.19 305.146 736.517 306.012 737.639 307.11C738.761 308.208 739.656 309.516 740.272 310.959C740.888 312.403 741.214 313.954 741.231 315.523V342.108Z" fill="#333333"/>
<path d="M77.0769 304.723H60.1154C59.9319 304.724 59.7561 304.797 59.6264 304.927C59.4967 305.056 59.4236 305.232 59.4231 305.416V329.646C59.4236 329.83 59.4967 330.006 59.6264 330.135C59.7562 330.265 59.9319 330.338 60.1154 330.339H77.0769C77.8107 330.337 78.5138 330.044 79.0327 329.525C79.5515 329.006 79.844 328.303 79.8461 327.57V307.493C79.844 306.759 79.5515 306.056 79.0327 305.537C78.5138 305.018 77.8107 304.726 77.0769 304.723Z" fill="#333333"/>
<path d="M73.2692 335.531C72.478 335.595 71.7218 335.885 71.0898 336.365C70.4579 336.846 69.9766 337.497 69.7029 338.242C69.4291 338.987 69.3743 339.795 69.545 340.57C69.7156 341.346 70.1046 342.056 70.6659 342.617C71.2272 343.178 71.9374 343.567 72.7127 343.738C73.4879 343.909 74.2958 343.854 75.0409 343.58C75.786 343.306 76.4372 342.825 76.9176 342.193C77.398 341.561 77.6875 340.805 77.7519 340.014C77.7995 339.413 77.7162 338.809 77.5077 338.244C77.2993 337.678 76.9706 337.165 76.5445 336.738C76.1183 336.312 75.6048 335.984 75.0394 335.775C74.4739 335.567 73.87 335.483 73.2692 335.531V335.531Z" fill="#333333"/>
<path d="M40.0558 335.531C39.2647 335.595 38.5084 335.885 37.8765 336.365C37.2445 336.846 36.7633 337.497 36.4895 338.242C36.2158 338.987 36.161 339.795 36.3316 340.57C36.5022 341.346 36.8912 342.056 37.4525 342.617C38.0138 343.178 38.724 343.567 39.4993 343.738C40.2745 343.909 41.0824 343.854 41.8275 343.58C42.5726 343.306 43.2238 342.825 43.7042 342.193C44.1846 341.561 44.4741 340.805 44.5385 340.014C44.5861 339.413 44.5028 338.809 44.2943 338.244C44.0859 337.678 43.7572 337.165 43.3311 336.738C42.905 336.312 42.3915 335.984 41.826 335.775C41.2606 335.567 40.6566 335.483 40.0558 335.531V335.531Z" fill="#333333"/>
<path d="M53.8846 304.723H36.9576C36.2149 304.726 35.5033 305.022 34.9781 305.548C34.4528 306.073 34.1566 306.784 34.1538 307.527V327.535C34.1566 328.278 34.4528 328.989 34.9781 329.514C35.5033 330.04 36.2149 330.336 36.9576 330.339H53.8846C54.068 330.338 54.2438 330.265 54.3735 330.135C54.5032 330.006 54.5763 329.83 54.5768 329.646V305.416C54.5763 305.232 54.5032 305.056 54.3735 304.927C54.2438 304.797 54.068 304.724 53.8846 304.723V304.723Z" fill="#333333"/>
<path d="M57 262.954C45.7265 262.954 34.7061 266.297 25.3325 272.56C15.9589 278.824 8.65309 287.726 4.33889 298.141C0.0246983 308.557 -1.10409 320.017 1.09526 331.074C3.29462 342.131 8.72335 352.288 16.6949 360.259C24.6665 368.231 34.823 373.659 45.8799 375.859C56.9368 378.058 68.3976 376.929 78.813 372.615C89.2284 368.301 98.1306 360.995 104.394 351.622C110.657 342.248 114 331.228 114 319.954C114 304.837 107.995 290.339 97.3051 279.649C86.6155 268.959 72.1174 262.954 57 262.954V262.954ZM84.6923 343.146C84.687 344.981 83.9558 346.739 82.6587 348.036C81.3615 349.333 79.6037 350.064 77.7692 350.069H36.2308C34.3963 350.064 32.6386 349.333 31.3414 348.036C30.0442 346.739 29.3131 344.981 29.3077 343.146V295.377C29.312 293.91 29.8969 292.503 30.9346 291.466C31.9724 290.428 33.3786 289.843 34.8462 289.839H79.1539C80.6215 289.843 82.0277 290.428 83.0654 291.466C84.1032 292.503 84.688 293.91 84.6923 295.377V343.146Z" fill="#333333"/>
<path d="M77.25 294.685H36.75C36.4177 294.662 36.0843 294.708 35.7704 294.819C35.4565 294.93 35.1689 295.105 34.9254 295.332C34.6819 295.56 34.4878 295.834 34.355 296.14C34.2223 296.445 34.1538 296.775 34.1538 297.108C34.1538 297.441 34.2223 297.77 34.355 298.076C34.4878 298.381 34.6819 298.656 34.9254 298.884C35.1689 299.111 35.4565 299.286 35.7704 299.397C36.0843 299.508 36.4177 299.554 36.75 299.531H77.25C77.5822 299.554 77.9157 299.508 78.2296 299.397C78.5434 299.286 78.831 299.111 79.0745 298.884C79.318 298.656 79.5122 298.381 79.6449 298.076C79.7776 297.77 79.8461 297.441 79.8461 297.108C79.8461 296.775 79.7776 296.445 79.6449 296.14C79.5122 295.834 79.318 295.56 79.0745 295.332C78.831 295.105 78.5434 294.93 78.2296 294.819C77.9157 294.708 77.5822 294.662 77.25 294.685V294.685Z" fill="#333333"/>
<path d="M227.615 321.512C226.473 321.512 225.539 323.208 225.539 325.319C225.539 327.431 226.473 329.127 227.615 329.127C228.758 329.127 229.692 327.431 229.692 325.319C229.692 323.208 228.758 321.512 227.615 321.512Z" fill="#333333"/>
<path d="M212.385 321.512C211.242 321.512 210.308 323.208 210.308 325.319C210.308 327.431 211.242 329.127 212.385 329.127C213.527 329.127 214.462 327.431 214.462 325.319C214.462 323.208 213.527 321.512 212.385 321.512Z" fill="#333333"/>
<path d="M220 262.954C208.726 262.954 197.706 266.297 188.333 272.56C178.959 278.824 171.653 287.726 167.339 298.141C163.025 308.557 161.896 320.017 164.095 331.074C166.295 342.131 171.723 352.288 179.695 360.259C187.667 368.231 197.823 373.659 208.88 375.859C219.937 378.058 231.398 376.929 241.813 372.615C252.228 368.301 261.131 360.995 267.394 351.622C273.657 342.248 277 331.228 277 319.954C277 304.837 270.995 290.339 260.305 279.649C249.616 268.959 235.117 262.954 220 262.954ZM193.346 318.016L196.496 301.262C197.31 296.71 199.421 293.127 203.385 293.127H209.338L209.685 291.76C209.988 290.567 210.68 289.509 211.652 288.754C212.623 287.998 213.819 287.588 215.05 287.589H224.915C226.144 287.588 227.337 287.996 228.309 288.748C229.28 289.5 229.974 290.553 230.281 291.743L230.627 293.127H236.615C240.492 293.127 242.552 296.641 243.521 301.244V301.262L246.688 318.033C246.714 318.158 246.704 318.288 246.659 318.408C246.615 318.528 246.539 318.633 246.438 318.712C246.338 318.791 246.217 318.84 246.09 318.855C245.963 318.869 245.835 318.849 245.719 318.794L241.323 316.77C241.22 316.727 241.129 316.658 241.059 316.57C240.989 316.482 240.943 316.378 240.925 316.268L238.121 301.452C237.602 299.548 236.875 298.683 235.335 298.683H204.683C203.16 298.683 202.329 299.6 201.896 301.452L199.092 316.268C199.071 316.377 199.024 316.48 198.954 316.567C198.885 316.654 198.796 316.724 198.694 316.77L194.315 318.777C194.2 318.83 194.072 318.849 193.945 318.834C193.819 318.819 193.7 318.769 193.6 318.69C193.5 318.612 193.423 318.508 193.379 318.389C193.334 318.27 193.323 318.141 193.346 318.016V318.016ZM254.39 328.798L244.923 352.319C240.163 352.319 235.11 348.512 235.11 348.512C231.994 350.087 225.919 351.471 221.385 351.731C220.9 351.748 220.433 351.766 220 351.766C219.567 351.766 219.1 351.766 218.615 351.731C214.081 351.471 208.006 350.069 204.89 348.512C204.89 348.512 199.837 352.319 195.077 352.319L185.61 328.798C185.464 328.429 185.387 328.036 185.385 327.639C185.385 327.041 185.556 326.457 185.878 325.954C186.2 325.451 186.66 325.05 187.202 324.8L219.412 310.002C219.593 309.917 219.791 309.872 219.991 309.872C220.192 309.872 220.39 309.917 220.571 310.002L252.798 324.8C253.34 325.05 253.8 325.451 254.122 325.954C254.444 326.457 254.615 327.041 254.615 327.639C254.613 328.036 254.536 328.429 254.39 328.798V328.798Z" fill="#333333"/>
<path d="M383 262.954C371.726 262.954 360.706 266.297 351.333 272.56C341.959 278.824 334.653 287.726 330.339 298.141C326.025 308.557 324.896 320.017 327.095 331.074C329.295 342.131 334.723 352.288 342.695 360.259C350.667 368.231 360.823 373.659 371.88 375.859C382.937 378.058 394.398 376.929 404.813 372.615C415.228 368.301 424.131 360.995 430.394 351.622C436.657 342.248 440 331.228 440 319.954C440 304.837 433.995 290.339 423.305 279.649C412.616 268.959 398.117 262.954 383 262.954V262.954ZM409.258 325.51C408.67 325.51 406.714 325.493 406.143 325.458L394.91 325.164C394.852 325.162 394.794 325.176 394.742 325.203C394.691 325.23 394.647 325.27 394.616 325.319L377.758 350.519C377.508 350.913 377.163 351.237 376.755 351.461C376.346 351.684 375.887 351.801 375.421 351.8H371.32C370.35 351.8 370.021 350.831 370.368 349.931L379.039 325.198C379.059 325.147 379.066 325.092 379.06 325.037C379.054 324.982 379.035 324.93 379.004 324.884C378.974 324.838 378.933 324.8 378.884 324.774C378.836 324.747 378.782 324.732 378.727 324.731L357.664 324.264C357.445 324.259 357.228 324.305 357.03 324.398C356.831 324.491 356.657 324.629 356.521 324.8L349.996 332.71C349.735 333.038 349.404 333.303 349.026 333.486C348.649 333.669 348.235 333.764 347.816 333.766H344.925C344.815 333.767 344.705 333.741 344.606 333.691C344.508 333.641 344.422 333.568 344.358 333.478C344.293 333.388 344.251 333.284 344.236 333.174C344.22 333.065 344.231 332.953 344.268 332.848L347.712 320.958C347.971 320.296 347.971 319.56 347.712 318.898L344.268 307.008C344.231 306.903 344.22 306.792 344.236 306.682C344.251 306.572 344.293 306.468 344.358 306.378C344.422 306.288 344.508 306.215 344.606 306.165C344.705 306.115 344.815 306.089 344.925 306.091H347.833C348.253 306.088 348.668 306.182 349.046 306.365C349.424 306.548 349.755 306.815 350.014 307.146L356.418 314.935C356.552 315.108 356.726 315.247 356.925 315.34C357.123 315.433 357.341 315.478 357.56 315.471L378.745 315.16C378.8 315.16 378.855 315.146 378.903 315.119C378.952 315.093 378.994 315.055 379.025 315.009C379.055 314.963 379.074 314.91 379.08 314.855C379.085 314.8 379.077 314.744 379.056 314.693L370.385 289.977C370.039 289.077 370.368 288.108 371.337 288.108H375.439C375.904 288.109 376.362 288.227 376.77 288.45C377.179 288.674 377.524 288.997 377.775 289.389L394.616 314.606C394.646 314.656 394.689 314.698 394.741 314.725C394.793 314.753 394.851 314.765 394.91 314.762L406.143 314.468C406.696 314.433 408.67 314.416 409.258 314.416C416.943 314.416 421.771 316.908 421.771 319.971C421.771 323.035 416.925 325.51 409.258 325.51Z" fill="#333333"/>
<path d="M65.6724 512.09C63.299 512.09 60.9789 511.386 59.0055 510.067C57.0321 508.749 55.4941 506.875 54.5858 504.682C53.6776 502.489 53.4399 500.076 53.9029 497.749C54.366 495.421 55.5089 493.283 57.1871 491.605C58.8653 489.926 61.0035 488.783 63.3313 488.32C65.6591 487.857 68.0719 488.095 70.2646 489.003C72.4573 489.912 74.3314 491.45 75.65 493.423C76.9686 495.396 77.6724 497.716 77.6724 500.09C77.6687 503.271 76.4033 506.321 74.1536 508.571C71.904 510.821 68.8539 512.086 65.6724 512.09ZM65.6724 490.09C63.6946 490.09 61.7612 490.676 60.1167 491.775C58.4722 492.874 57.1904 494.436 56.4336 496.263C55.6767 498.09 55.4787 500.101 55.8645 502.041C56.2504 503.981 57.2028 505.762 58.6013 507.161C59.9998 508.559 61.7816 509.512 63.7215 509.898C65.6613 510.284 67.6719 510.085 69.4992 509.329C71.3265 508.572 72.8883 507.29 73.9871 505.646C75.0859 504.001 75.6724 502.068 75.6724 500.09C75.6694 497.439 74.6149 494.897 72.7402 493.022C70.8655 491.147 68.3236 490.093 65.6724 490.09V490.09Z" fill="#F0F0F0"/>
<path d="M318.672 243.09C316.299 243.09 313.979 242.386 312.006 241.067C310.032 239.749 308.494 237.875 307.586 235.682C306.678 233.489 306.44 231.077 306.903 228.749C307.366 226.421 308.509 224.283 310.187 222.605C311.865 220.926 314.004 219.783 316.331 219.32C318.659 218.857 321.072 219.095 323.265 220.003C325.457 220.912 327.331 222.45 328.65 224.423C329.969 226.396 330.672 228.716 330.672 231.09C330.669 234.271 329.403 237.321 327.154 239.571C324.904 241.821 321.854 243.086 318.672 243.09V243.09ZM318.672 221.09C316.695 221.09 314.761 221.676 313.117 222.775C311.472 223.874 310.19 225.436 309.434 227.263C308.677 229.09 308.479 231.101 308.865 233.041C309.25 234.981 310.203 236.762 311.601 238.161C313 239.559 314.782 240.512 316.721 240.898C318.661 241.284 320.672 241.086 322.499 240.329C324.326 239.572 325.888 238.29 326.987 236.646C328.086 235.001 328.672 233.068 328.672 231.09C328.669 228.439 327.615 225.897 325.74 224.022C323.865 222.147 321.324 221.093 318.672 221.09Z" fill="#F0F0F0"/>
<path d="M542.144 572.46L528.679 558.024L543.115 544.558L556.58 558.995L542.144 572.46ZM530.825 558.098L542.219 570.314L554.434 558.92L543.04 546.705L530.825 558.098Z" fill="#F0F0F0"/>
</svg>
