<svg width="561" height="469" viewBox="0 0 561 469" fill="none" xmlns="http://www.w3.org/2000/svg">
<path d="M520.072 361.289C545.569 345.646 563.878 317.851 559.663 290.017C536.819 312.297 506.104 326.46 472.953 330.001C460.162 331.325 445.785 331.577 436.807 340.022C431.22 345.277 428.922 352.888 428.901 360.221C428.88 367.554 430.904 374.748 432.915 381.846L432.471 383.631C463.124 382.234 494.576 376.931 520.072 361.289Z" fill="#EF5533"/>
<path d="M559.019 290.019C549.702 311.657 533.175 330.058 511.785 342.607C507.233 345.383 502.231 347.485 496.964 348.835C491.787 349.999 486.364 349.872 481.258 348.468C476.469 347.246 471.724 345.488 466.694 345.353C464.118 345.319 461.564 345.784 459.198 346.718C456.832 347.651 454.708 349.032 452.966 350.769C448.502 354.996 445.962 360.438 443.681 365.84C441.148 371.837 438.621 378.103 433.354 382.585C432.716 383.128 433.674 384.003 434.311 383.461C443.474 375.663 444.322 363.315 451.484 354.31C454.826 350.108 459.572 346.802 465.427 346.596C470.547 346.416 475.441 348.225 480.278 349.5C485.237 350.937 490.505 351.241 495.621 350.384C500.946 349.284 506.028 347.361 510.649 344.7C521.157 338.86 530.596 331.544 538.621 323.019C547.84 313.337 555.181 302.282 560.327 290.333C560.646 289.593 559.335 289.284 559.019 290.019L559.019 290.019Z" fill="#FF0000"/>
<path d="M518.932 338.937C521.719 341.937 525.58 343.932 529.825 344.567C534.07 345.201 538.424 344.433 542.107 342.4C542.851 341.986 542.184 340.908 541.439 341.323C538.013 343.222 533.957 343.937 530.006 343.339C526.054 342.741 522.466 340.869 519.889 338.061C519.328 337.452 518.375 338.331 518.932 338.937Z" fill="#FF0000"/>
<path d="M483.597 349.38C484.226 341.35 488.138 333.833 494.553 328.326C495.189 327.781 494.231 326.906 493.596 327.451C486.933 333.192 482.879 341.023 482.244 349.38C482.184 350.177 483.538 350.172 483.597 349.38L483.597 349.38Z" fill="#FF0000"/>
<path d="M546.131 312.838C544.788 311.883 543.726 310.638 543.039 309.214C542.352 307.79 542.062 306.233 542.195 304.681C542.266 303.886 540.913 303.891 540.843 304.681C540.704 306.396 541.027 308.116 541.782 309.691C542.537 311.265 543.702 312.647 545.174 313.714C545.304 313.826 545.475 313.887 545.653 313.887C545.83 313.887 546.001 313.825 546.131 313.714C546.257 313.598 546.327 313.44 546.327 313.276C546.327 313.112 546.257 312.955 546.131 312.838H546.131Z" fill="#FF0000"/>
<path d="M471.247 240.027C471.187 240.523 471.127 241.019 471.057 241.519C470.217 248.178 468.787 254.764 466.782 261.211C466.635 261.711 466.479 262.217 466.317 262.713C461.305 278.198 453.196 292.696 442.404 305.471C438.104 310.551 433.388 315.324 428.297 319.748C421.266 325.859 413.112 331.972 408.823 339.627C408.365 340.421 407.962 341.24 407.616 342.079L430.127 382.995C430.229 383.065 430.322 383.14 430.424 383.209L431.241 384.881C431.521 384.669 431.807 384.445 432.087 384.233C432.249 384.111 432.407 383.98 432.57 383.858C432.677 383.774 432.784 383.689 432.886 383.619C432.922 383.591 432.957 383.562 432.983 383.539C433.085 383.469 433.171 383.393 433.263 383.328C434.862 382.075 436.454 380.81 438.04 379.533C438.05 379.528 438.05 379.528 438.055 379.514C450.108 369.753 461.377 358.985 470.503 346.993C470.777 346.633 471.062 346.267 471.326 345.888C475.407 340.462 478.996 334.739 482.059 328.777C483.724 325.508 485.207 322.164 486.503 318.757C489.834 309.949 491.63 300.716 491.826 291.396C492.215 272.818 486.11 254.333 472.312 241.034C471.958 240.694 471.61 240.363 471.247 240.027Z" fill="#EF5533"/>
<path d="M470.73 240.381C477.52 262.794 476.424 286.596 467.598 308.406C465.789 313.133 463.178 317.568 459.86 321.55C456.491 325.333 452.078 328.221 447.078 329.914C442.45 331.578 437.506 332.79 433.401 335.455C431.322 336.848 429.588 338.628 428.313 340.677C427.038 342.727 426.25 345 426.002 347.347C425.216 353.183 426.768 358.928 428.498 364.498C430.42 370.683 432.523 377.079 431.265 383.561C431.112 384.346 432.452 384.517 432.604 383.733C434.793 372.456 427.35 362.129 427.147 350.991C427.052 345.793 428.667 340.538 433.207 337.146C437.176 334.18 442.273 332.927 446.975 331.278C451.879 329.692 456.284 327.031 459.806 323.526C463.334 319.712 466.128 315.376 468.067 310.704C472.617 300.249 475.343 289.204 476.145 277.974C477.138 265.161 475.73 252.288 471.981 239.91C471.749 239.144 470.499 239.62 470.73 240.381L470.73 240.381Z" fill="#FF0000"/>
<path d="M470.892 301.537C475.089 302.396 479.484 301.861 483.291 300.027C487.097 298.193 490.068 295.18 491.672 291.526C491.994 290.786 490.753 290.293 490.43 291.035C488.943 294.44 486.176 297.246 482.627 298.947C479.079 300.648 474.983 301.131 471.079 300.31C470.231 300.133 470.048 301.36 470.892 301.537V301.537Z" fill="#FF0000"/>
<path d="M449.545 329.353C444.767 322.594 442.947 314.436 444.448 306.503C444.597 305.718 443.258 305.547 443.108 306.332C441.564 314.589 443.476 323.076 448.465 330.099C448.941 330.768 450.019 330.018 449.545 329.353V329.353Z" fill="#FF0000"/>
<path d="M475.446 265.706C473.746 265.683 472.079 265.274 470.594 264.516C469.109 263.758 467.853 262.674 466.939 261.362C466.473 260.687 465.396 261.438 465.859 262.107C466.877 263.553 468.265 264.749 469.904 265.59C471.542 266.431 473.38 266.892 475.258 266.932C475.435 266.949 475.612 266.905 475.754 266.807C475.896 266.709 475.991 266.565 476.022 266.405C476.046 266.242 475.998 266.078 475.891 265.947C475.783 265.816 475.623 265.729 475.446 265.706H475.446Z" fill="#FF0000"/>
<path d="M0.331644 413.852C2.21367 395.774 13.8503 377.706 32.4297 371.351C25.6112 390.086 26.2504 410.425 34.2341 428.77C37.3412 435.835 41.6003 443.396 39.1139 450.664C37.5669 455.186 33.5463 458.721 28.9993 460.984C24.4519 463.248 19.3628 464.403 14.3371 465.537L13.3655 466.316C4.81726 449.93 -1.55039 431.929 0.331644 413.852Z" fill="#EF5533"/>
<path d="M32.6265 371.687C22.051 383.183 15.701 397.438 14.4782 412.427C14.1524 415.65 14.3834 418.899 15.1628 422.056C16.0305 425.109 17.7752 427.893 20.2156 430.119C22.4455 432.237 24.9942 434.166 26.623 436.744C27.4353 438.074 27.9313 439.547 28.0784 441.065C28.2255 442.583 28.0203 444.113 27.4765 445.554C26.2233 449.176 23.6234 452.169 20.9698 455.016C18.0236 458.177 14.9086 461.417 13.7432 465.535C13.602 466.034 12.7646 465.804 12.9056 465.306C14.9332 458.141 22.3406 453.907 25.7329 447.412C27.3159 444.382 27.9109 440.896 26.2404 437.785C24.7795 435.065 22.1531 433.073 19.8751 430.946C17.4596 428.806 15.6533 426.157 14.6137 423.231C13.6613 420.121 13.294 416.885 13.5273 413.662C13.9263 406.398 15.5702 399.237 18.3988 392.441C21.58 384.668 26.1901 377.451 32.0295 371.102C32.3911 370.709 32.9857 371.296 32.6265 371.687V371.687Z" fill="#FF0000"/>
<path d="M18.9307 429.182C23.7238 426.387 27.1905 422.042 28.6396 417.012C28.7827 416.513 29.6202 416.743 29.4772 417.241C27.9585 422.473 24.3408 426.988 19.3461 429.886C18.8698 430.162 18.457 429.456 18.9307 429.182H18.9307Z" fill="#FF0000"/>
<path d="M22.4145 385.405C23.4199 385.81 24.5196 385.981 25.6148 385.901C26.7099 385.821 27.7662 385.494 28.6889 384.948C29.1611 384.667 29.5735 385.373 29.1043 385.652C28.0818 386.251 26.9147 386.611 25.705 386.702C24.4952 386.793 23.2796 386.611 22.1644 386.172C22.0555 386.139 21.9645 386.069 21.91 385.976C21.8554 385.884 21.8414 385.776 21.8707 385.674C21.9044 385.572 21.9804 385.487 22.0822 385.437C22.1841 385.387 22.3035 385.375 22.4145 385.405V385.405Z" fill="#FF0000"/>
<path d="M86.8727 402.022C86.5833 402.205 86.2939 402.388 86.0043 402.578C82.1261 405.059 82.2368 407.831 78.848 410.853C78.5821 411.083 78.3163 411.319 78.0581 411.556C69.9816 418.921 63.4689 427.596 58.851 437.138C57.0172 440.937 55.5018 444.857 54.3178 448.867C52.6829 454.404 51.3915 460.526 47.9555 465.11C47.6029 465.592 47.218 466.053 46.8031 466.492L14.48 467.341C14.4055 467.309 14.3308 467.284 14.2559 467.252L12.967 467.34C13.0123 467.13 13.0643 466.912 13.1096 466.701C13.1353 466.579 13.1682 466.457 13.1939 466.334C13.2133 466.253 13.2331 466.171 13.2456 466.096C13.2519 466.069 13.2587 466.042 13.2652 466.022C13.2777 465.947 13.2979 465.879 13.3105 465.811C13.5971 464.594 13.8935 463.376 14.1997 462.159C14.1995 462.152 14.1995 462.152 14.2065 462.145C16.443 452.846 19.8765 443.823 24.4349 435.265C24.5747 435.011 24.714 434.751 24.8685 434.497C26.9848 430.706 29.4359 427.079 32.1973 423.654C33.716 421.783 35.3372 419.983 37.0546 418.262C41.5015 413.823 46.6834 410.052 52.4103 407.087C63.8277 401.178 73.4235 398.679 85.9204 401.776C86.24 401.856 86.5528 401.935 86.8727 402.022Z" fill="#EF5533"/>
<path d="M86.8117 402.399C70.9751 405.709 59.9495 413.673 49.2893 424.925C46.91 427.318 44.9577 430.04 43.5042 432.99C42.1897 435.905 41.752 439.09 42.2365 442.213C42.6243 445.133 43.3903 448.079 42.9961 451.034C42.7698 452.544 42.1974 453.994 41.3164 455.287C40.4354 456.58 39.2658 457.689 37.8842 458.539C34.5018 460.74 30.4574 461.697 26.4667 462.508C22.0358 463.407 17.418 464.277 13.7794 466.923C13.3385 467.243 12.821 466.598 13.2612 466.278C19.5918 461.675 28.2905 462.378 35.2699 459.062C38.5265 457.515 41.2937 455.06 42.0057 451.655C42.6284 448.677 41.8413 445.639 41.4207 442.686C40.8993 439.645 41.1989 436.535 42.2933 433.625C43.578 430.617 45.4126 427.831 47.7183 425.386C52.8133 419.806 58.8348 414.995 65.5623 411.128C73.2068 406.68 77.8899 403.449 86.7196 401.603C87.2667 401.489 87.3552 402.286 86.8117 402.399V402.399Z" fill="#FF0000"/>
<path d="M52.5436 421.1C50.7207 419.179 49.7031 416.727 49.6726 414.182C49.642 411.637 50.6005 409.165 52.3767 407.208C52.7376 406.813 53.4249 407.308 53.0636 407.703C51.4058 409.523 50.5133 411.826 50.547 414.195C50.5808 416.565 51.5386 418.846 53.2476 420.626C53.6185 421.013 52.9123 421.485 52.5436 421.1V421.1Z" fill="#FF0000"/>
<path d="M41.8267 440.756C47.4911 441.167 53.1166 439.608 57.5816 436.391C58.0236 436.072 58.5413 436.717 58.0997 437.035C53.4465 440.376 47.5887 441.987 41.6952 441.547C41.1335 441.505 41.268 440.714 41.8267 440.756H41.8267Z" fill="#FF0000"/>
<path d="M73.3954 407.723C73.9315 408.601 74.6974 409.344 75.6243 409.884C76.5511 410.423 77.61 410.744 78.7057 410.817C79.2677 410.853 79.1326 411.644 78.5743 411.608C77.3641 411.523 76.1952 411.167 75.1697 410.573C74.1442 409.978 73.2933 409.163 72.6914 408.198C72.6263 408.111 72.5997 408.005 72.617 407.901C72.6342 407.797 72.694 407.703 72.7843 407.638C72.8778 407.576 72.9945 407.55 73.1089 407.566C73.2234 407.582 73.3263 407.638 73.3954 407.723V407.723Z" fill="#FF0000"/>
<path d="M403.554 1.72073H381.444C382.46 4.00311 382.849 6.4794 382.574 8.93146C382.299 11.3835 381.37 13.7361 379.868 15.782C378.367 17.8278 376.338 19.5041 373.962 20.6633C371.586 21.8224 368.936 22.4288 366.243 22.429H269.206C266.513 22.4288 263.862 21.8224 261.486 20.6633C259.11 19.5042 257.082 17.8278 255.581 15.782C254.079 13.7361 253.15 11.3835 252.875 8.93145C252.6 6.47938 252.988 4.00308 254.005 1.7207H233.354C224.189 1.7207 215.4 5.05401 208.92 10.9874C202.439 16.9207 198.798 24.968 198.798 33.3591V434.349C198.798 438.504 199.692 442.618 201.429 446.456C203.165 450.295 205.711 453.783 208.919 456.72C212.128 459.658 215.938 461.989 220.13 463.579C224.323 465.169 228.816 465.987 233.354 465.987H403.554C408.092 465.987 412.585 465.169 416.778 463.579C420.97 461.989 424.78 459.658 427.989 456.721C431.197 453.783 433.743 450.295 435.479 446.456C437.216 442.618 438.11 438.504 438.11 434.349V33.3591C438.11 29.2043 437.216 25.0902 435.479 21.2516C433.743 17.4131 431.197 13.9253 427.989 10.9874C424.78 8.04949 420.97 5.71902 416.778 4.12905C412.585 2.53907 408.092 1.72072 403.554 1.72073Z" fill="white"/>
<path d="M403.554 467.707H233.354C223.695 467.697 214.433 464.18 207.603 457.926C200.772 451.672 196.93 443.193 196.919 434.348V33.3591C196.93 24.5148 200.772 16.0357 207.603 9.7818C214.433 3.52795 223.694 0.0101052 233.354 0H256.801L255.745 2.37046C254.845 4.39157 254.501 6.5844 254.744 8.75579C254.988 10.9272 255.81 13.0105 257.14 14.8222C258.47 16.6338 260.266 18.1183 262.37 19.1447C264.474 20.1712 266.821 20.7081 269.206 20.7082H366.243C368.627 20.7079 370.975 20.1709 373.079 19.1444C375.183 18.118 376.978 16.6335 378.308 14.8219C379.638 13.0103 380.461 10.927 380.704 8.75572C380.948 6.58439 380.604 4.39159 379.704 2.37046L378.648 0H403.554C413.214 0.0100324 422.475 3.52786 429.305 9.78173C436.136 16.0356 439.978 24.5148 439.989 33.3591V434.349C439.978 443.193 436.136 451.672 429.305 457.926C422.475 464.18 413.214 467.698 403.554 467.707V467.707ZM233.354 3.44122C224.691 3.45027 216.385 6.60522 210.259 12.2139C204.133 17.8227 200.687 25.4271 200.677 33.3591V434.348C200.687 442.28 204.133 449.885 210.259 455.494C216.385 461.102 224.691 464.257 233.354 464.266H403.554C412.217 464.257 420.523 461.102 426.649 455.494C432.775 449.885 436.221 442.281 436.231 434.349V33.3591C436.221 25.4272 432.775 17.8227 426.649 12.2139C420.523 6.60518 412.217 3.45025 403.554 3.44126H384.023C384.677 5.90601 384.711 8.47457 384.123 10.9532C383.535 13.4318 382.34 15.7558 380.628 17.7499C378.916 19.744 376.731 21.3561 374.24 22.4647C371.748 23.5733 369.014 24.1494 366.243 24.1495H269.206C266.436 24.1485 263.702 23.5718 261.211 22.4629C258.719 21.3541 256.536 19.742 254.824 17.7481C253.112 15.7543 251.917 13.4306 251.328 10.9524C250.739 8.47415 250.773 5.90592 251.426 3.44126L233.354 3.44122Z" fill="#4F4F4F"/>
<path d="M404.83 63.3469H353.506C352.928 63.3469 352.375 63.137 351.967 62.7632C351.558 62.3895 351.329 61.8826 351.329 61.354C351.329 60.8255 351.558 60.3185 351.967 59.9448C352.375 59.5711 352.928 59.3611 353.506 59.3611H404.83C405.117 59.3605 405.4 59.4117 405.665 59.5116C405.929 59.6115 406.17 59.7582 406.372 59.9433C406.575 60.1284 406.736 60.3483 406.845 60.5904C406.955 60.8325 407.012 61.0919 407.012 61.354C407.012 61.6161 406.955 61.8756 406.845 62.1176C406.736 62.3597 406.575 62.5796 406.372 62.7647C406.17 62.9498 405.929 63.0965 405.665 63.1964C405.4 63.2963 405.117 63.3475 404.83 63.3469Z" fill="#4F4F4F"/>
<path d="M404.83 72.2891H353.506C352.928 72.2891 352.375 72.0791 351.967 71.7054C351.558 71.3316 351.329 70.8247 351.329 70.2961C351.329 69.7676 351.558 69.2607 351.967 68.8869C352.375 68.5132 352.928 68.3032 353.506 68.3032H404.83C405.117 68.3027 405.4 68.3538 405.665 68.4537C405.929 68.5537 406.17 68.7004 406.372 68.8855C406.575 69.0706 406.736 69.2905 406.845 69.5325C406.955 69.7746 407.012 70.0341 407.012 70.2961C407.012 70.5582 406.955 70.8177 406.845 71.0598C406.736 71.3018 406.575 71.5217 406.372 71.7068C406.17 71.8919 405.929 72.0386 405.665 72.1385C405.4 72.2385 405.117 72.2896 404.83 72.2891Z" fill="#EF5533"/>
<path d="M404.83 81.2315H353.506C352.928 81.2315 352.375 81.0215 351.967 80.6477C351.558 80.274 351.329 79.7671 351.329 79.2385C351.329 78.71 351.558 78.2031 351.967 77.8293C352.375 77.4556 352.928 77.2456 353.506 77.2456H404.83C405.117 77.2451 405.4 77.2962 405.665 77.3961C405.929 77.496 406.17 77.6427 406.372 77.8279C406.575 78.013 406.736 78.2328 406.845 78.4749C406.955 78.717 407.012 78.9765 407.012 79.2385C407.012 79.5006 406.955 79.7601 406.845 80.0021C406.736 80.2442 406.575 80.4641 406.372 80.6492C406.17 80.8343 405.929 80.981 405.665 81.0809C405.4 81.1808 405.117 81.232 404.83 81.2315Z" fill="#4F4F4F"/>
<path d="M145.24 459.002L153.84 459.001L157.931 428.631H145.24L145.24 459.002Z" fill="#FFB6B6"/>
<path d="M143.047 456.431L159.983 456.43H159.984C162.846 456.43 165.591 457.471 167.615 459.325C169.639 461.178 170.776 463.691 170.776 466.312V466.633L143.047 466.634L143.047 456.431Z" fill="#BBBBBB"/>
<path d="M111.617 451.673L119.729 454.286L134.601 426.883L122.628 423.026L111.617 451.673Z" fill="#FFB6B6"/>
<path d="M110.48 448.581L126.456 453.729L126.457 453.729C129.157 454.599 131.369 456.416 132.606 458.779C133.843 461.142 134.004 463.859 133.054 466.331L132.938 466.634L106.781 458.206L110.48 448.581Z" fill="#BBBBBB"/>
<path d="M106.507 282.478L101.3 287.669L122.345 367.877L143.967 446.095H161.254L151.311 371.452V294.686L106.507 282.478Z" fill="#BBBBBB"/>
<path d="M160.301 288.91L162.58 296.678L150.403 365.95L133.112 439.353H113.532L128.232 349.351L146.194 283.102L160.301 288.91Z" fill="#BBBBBB"/>
<path d="M171.062 173.822L163.451 161.312L145.397 158.607C136.397 160.786 128.341 165.434 122.31 171.926C116.279 178.418 112.561 186.445 111.657 194.927L101.867 286.725C101.867 286.725 151.958 307.833 162.579 295.949L177.35 191.752C177.934 188.521 177.669 185.209 176.575 182.091C175.482 178.973 173.592 176.138 171.062 173.822Z" fill="#4F4F4F"/>
<path d="M158.232 154.55C168.813 154.55 177.39 146.696 177.39 137.009C177.39 127.321 168.813 119.468 158.232 119.468C147.651 119.468 139.074 127.321 139.074 137.009C139.074 146.696 147.651 154.55 158.232 154.55Z" fill="#FFB6B6"/>
<path d="M183.4 127.447C182.22 127.144 181.214 126.436 180.592 125.47C180.17 124.823 179.945 124.085 179.941 123.332C179.938 122.579 180.155 121.838 180.571 121.188C179.689 120.77 178.72 120.529 177.728 120.483C176.737 120.437 175.746 120.586 174.823 120.921C175.603 120.297 176.21 119.513 176.595 118.633C176.98 117.753 177.131 116.802 177.036 115.858C174.737 116.571 172.438 117.283 170.139 117.995C170.973 117.411 171.588 116.605 171.9 115.687C172.212 114.769 172.204 113.785 171.879 112.871C169.992 115.332 166.084 115.663 162.899 114.929C159.714 114.194 156.771 112.654 153.526 112.191C151.726 111.934 149.887 112.018 148.123 112.438C146.36 112.859 144.71 113.606 143.275 114.634C141.84 115.662 140.651 116.95 139.782 118.416C138.912 119.882 138.381 121.496 138.221 123.158C137.384 123.255 136.588 123.545 135.907 124.002C135.226 124.458 134.683 125.066 134.329 125.767C133.639 127.179 133.325 128.721 133.412 130.266C133.47 133.953 134.45 137.579 136.279 140.864C138.108 144.149 140.736 147.007 143.96 149.216L145.019 148.882C144.897 146.888 145.619 144.928 147.035 143.41C148.451 141.891 150.452 140.93 152.622 140.727C155.432 140.566 158.75 141.596 160.756 139.787C162.59 138.131 161.934 135.168 163.431 133.249C164.734 131.58 167.325 131.191 169.522 131.59C171.72 131.99 173.719 133.009 175.854 133.633C177.988 134.258 180.488 134.433 182.322 133.256C183.08 132.699 183.693 131.995 184.116 131.194C184.54 130.394 184.763 129.517 184.771 128.627C184.793 128.268 184.789 127.907 184.762 127.548C184.305 127.57 183.847 127.536 183.4 127.447V127.447Z" fill="black"/>
<path d="M252.788 291.233H55.4998V343.54H252.788V291.233Z" fill="white"/>
<path d="M254.581 345.182H53.7063V289.591H254.581V345.182ZM57.2934 341.898H250.994V292.875H57.2933L57.2934 341.898Z" fill="#E4E4E4"/>
<path d="M214.464 309.22H93.8232C93.1448 309.22 92.4942 308.973 92.0146 308.534C91.5349 308.095 91.2654 307.499 91.2654 306.878C91.2654 306.257 91.5349 305.661 92.0146 305.222C92.4942 304.783 93.1448 304.536 93.8232 304.536H214.464C215.142 304.536 215.793 304.783 216.273 305.222C216.752 305.661 217.022 306.257 217.022 306.878C217.022 307.499 216.752 308.095 216.273 308.534C215.793 308.973 215.142 309.22 214.464 309.22V309.22Z" fill="#4F4F4F"/>
<path d="M214.464 319.729H93.8233C93.1457 319.728 92.4963 319.481 92.0176 319.041C91.5389 318.602 91.27 318.007 91.27 317.387C91.27 316.766 91.5389 316.171 92.0176 315.732C92.4963 315.293 93.1457 315.046 93.8233 315.045H214.464C215.142 315.046 215.791 315.293 216.27 315.732C216.748 316.171 217.017 316.766 217.017 317.387C217.017 318.007 216.748 318.602 216.27 319.041C215.791 319.481 215.142 319.728 214.464 319.729Z" fill="#EF5533"/>
<path d="M165.632 330.237H93.8232C93.1448 330.237 92.4942 329.991 92.0146 329.552C91.5349 329.112 91.2654 328.517 91.2654 327.896C91.2654 327.274 91.5349 326.679 92.0146 326.24C92.4942 325.8 93.1448 325.554 93.8232 325.554H165.632C166.311 325.554 166.961 325.8 167.441 326.24C167.921 326.679 168.19 327.274 168.19 327.896C168.19 328.517 167.921 329.112 167.441 329.552C166.961 329.991 166.311 330.237 165.632 330.237Z" fill="#4F4F4F"/>
<path d="M173.096 297.769C172.329 297.138 171.723 296.361 171.32 295.492C170.917 294.623 170.726 293.683 170.763 292.74C170.799 291.796 171.061 290.871 171.529 290.03C171.998 289.19 172.663 288.453 173.476 287.873L165.401 266.146L178.006 269.154L183.741 289.325C184.716 290.641 185.129 292.238 184.903 293.814C184.677 295.39 183.828 296.835 182.515 297.876C181.203 298.917 179.52 299.481 177.784 299.461C176.048 299.442 174.38 298.84 173.096 297.769V297.769Z" fill="#FFB6B6"/>
<path d="M167.518 283.287L154.45 239.057L153.306 185.17C153.248 182.964 153.974 180.801 155.374 179.006C156.775 177.21 158.774 175.88 161.072 175.215V175.215C162.791 174.709 164.619 174.592 166.399 174.874C168.178 175.155 169.857 175.826 171.292 176.831C172.726 177.835 173.874 179.142 174.638 180.641C175.401 182.139 175.757 183.785 175.675 185.436L173.57 227.837L183.937 278.451L167.518 283.287Z" fill="#4F4F4F"/>
<path d="M125.89 299.054C125.123 298.423 124.516 297.645 124.113 296.776C123.71 295.907 123.52 294.968 123.556 294.024C123.592 293.081 123.854 292.156 124.323 291.315C124.792 290.474 125.456 289.738 126.269 289.157L118.194 267.431L130.799 270.439L136.535 290.61C137.509 291.925 137.922 293.522 137.696 295.099C137.471 296.675 136.621 298.12 135.309 299.161C133.997 300.202 132.313 300.766 130.577 300.746C128.841 300.726 127.173 300.124 125.89 299.054V299.054Z" fill="#FFB6B6"/>
<path d="M118.326 281.225L112.735 235.747L120.548 182.269C120.747 180.908 121.243 179.597 122.006 178.414C122.769 177.232 123.785 176.202 124.991 175.386C126.198 174.569 127.572 173.984 129.031 173.663C130.489 173.343 132.004 173.295 133.484 173.521C134.963 173.747 136.378 174.243 137.644 174.98C138.91 175.717 140.002 176.679 140.854 177.81C141.705 178.941 142.3 180.217 142.602 181.562C142.905 182.907 142.909 184.295 142.614 185.641L133.502 227.259L135.357 278.727L118.326 281.225Z" fill="#4F4F4F"/>
<path d="M544.983 440.084H242.966V376.447H544.983V440.084Z" fill="white"/>
<path d="M286.554 397.488C285.774 397.488 285.025 397.772 284.473 398.277C283.921 398.783 283.611 399.468 283.611 400.183C283.611 400.897 283.921 401.582 284.473 402.088C285.025 402.593 285.774 402.877 286.554 402.877H501.408C502.187 402.876 502.934 402.591 503.485 402.086C504.036 401.581 504.345 400.896 504.345 400.183C504.345 399.469 504.036 398.784 503.485 398.279C502.934 397.774 502.187 397.49 501.408 397.488H286.554Z" fill="#4F4F4F"/>
<path d="M286.554 413.654C285.774 413.652 285.025 413.935 284.472 414.439C283.918 414.943 283.607 415.628 283.605 416.342C283.604 417.057 283.912 417.743 284.463 418.249C285.013 418.756 285.761 419.041 286.542 419.042H422.374C422.761 419.043 423.144 418.974 423.502 418.839C423.86 418.704 424.185 418.505 424.459 418.255C424.732 418.005 424.95 417.708 425.098 417.38C425.246 417.053 425.322 416.702 425.322 416.348C425.322 415.994 425.246 415.643 425.098 415.316C424.95 414.989 424.732 414.692 424.459 414.441C424.185 414.191 423.86 413.993 423.502 413.858C423.144 413.723 422.761 413.653 422.374 413.654H286.554Z" fill="#EF5533"/>
<path d="M544.983 440.084H242.966V376.447H544.983V440.084ZM247.931 435.538H540.018V380.992H247.931V435.538Z" fill="#E5E5E5"/>
<path d="M69.0772 257.057C66.583 257.057 64.1448 256.38 62.071 255.111C59.9971 253.843 58.3808 252.039 57.4263 249.93C56.4718 247.82 56.222 245.498 56.7086 243.259C57.1952 241.019 58.3963 238.961 60.16 237.347C61.9236 235.732 64.1707 234.632 66.617 234.187C69.0633 233.741 71.5989 233.97 73.9033 234.844C76.2076 235.718 78.1772 237.198 79.5629 239.096C80.9486 240.995 81.6882 243.227 81.6882 245.511C81.6882 248.573 80.3595 251.51 77.9945 253.676C75.6295 255.841 72.4219 257.057 69.0772 257.057Z" fill="#F0F0F0"/>
<path d="M126.614 93.4388C123.861 93.4388 121.17 92.6914 118.882 91.2912C116.593 89.891 114.809 87.9009 113.755 85.5724C112.702 83.244 112.426 80.6818 112.963 78.2099C113.501 75.7381 114.826 73.4675 116.773 71.6854C118.719 69.9033 121.199 68.6897 123.899 68.198C126.599 67.7063 129.397 67.9587 131.94 68.9231C134.483 69.8876 136.657 71.5209 138.186 73.6164C139.716 75.712 140.532 78.1757 140.532 80.6959C140.532 82.3694 140.172 84.0264 139.472 85.5724C138.773 87.1184 137.748 88.5232 136.455 89.7065C135.163 90.8898 133.629 91.8284 131.94 92.4688C130.251 93.1092 128.442 93.4388 126.614 93.4388Z" fill="#F0F0F0"/>
<path d="M485.608 184.516C483.24 184.516 480.926 183.873 478.958 182.669C476.989 181.465 475.455 179.753 474.549 177.751C473.643 175.748 473.406 173.545 473.868 171.419C474.33 169.293 475.47 167.34 477.144 165.808C478.818 164.275 480.951 163.231 483.273 162.808C485.595 162.385 488.001 162.602 490.188 163.432C492.375 164.261 494.245 165.666 495.56 167.468C496.875 169.27 497.577 171.389 497.577 173.557C497.577 176.463 496.316 179.251 494.072 181.306C491.827 183.361 488.782 184.516 485.608 184.516Z" fill="#F0F0F0"/>
<path d="M409.826 114.659H226.357V241.507H409.826V114.659Z" fill="white"/>
<path d="M412.229 243.707H223.955V112.459H412.229V243.707ZM228.76 239.308H407.423V116.859H228.76V239.308Z" fill="#E4E4E4"/>
<path d="M407.742 117.25H229.48L407.742 240.274V117.25Z" fill="#F0F0F0"/>
<path d="M510.916 466.681C505.576 466.681 500.356 465.231 495.916 462.514C491.475 459.798 488.014 455.937 485.971 451.42C483.927 446.903 483.393 441.932 484.434 437.137C485.476 432.341 488.048 427.936 491.824 424.479C495.6 421.022 500.411 418.667 505.649 417.713C510.886 416.759 516.315 417.249 521.249 419.12C526.183 420.991 530.4 424.16 533.367 428.225C536.334 432.29 537.917 437.07 537.917 441.959C537.917 445.206 537.219 448.421 535.862 451.42C534.505 454.419 532.516 457.144 530.009 459.44C527.502 461.736 524.525 463.557 521.249 464.799C517.973 466.041 514.462 466.681 510.916 466.681Z" fill="#4F4F4F"/>
<path d="M521.57 439.521H513.58V432.205C513.58 431.558 513.299 430.938 512.8 430.481C512.3 430.024 511.623 429.767 510.916 429.767C510.21 429.767 509.532 430.024 509.033 430.481C508.533 430.938 508.253 431.558 508.253 432.205V439.521H500.262C499.557 439.522 498.881 439.78 498.382 440.237C497.884 440.694 497.604 441.314 497.604 441.96C497.604 442.606 497.884 443.225 498.382 443.682C498.881 444.14 499.557 444.397 500.262 444.398H508.253V451.714C508.253 452.361 508.533 452.981 509.033 453.438C509.532 453.896 510.21 454.153 510.916 454.153C511.623 454.153 512.3 453.896 512.8 453.438C513.299 452.981 513.58 452.361 513.58 451.714V444.398H521.57C521.92 444.399 522.267 444.336 522.591 444.214C522.915 444.092 523.209 443.912 523.457 443.686C523.705 443.459 523.901 443.19 524.035 442.894C524.17 442.598 524.239 442.28 524.239 441.96C524.239 441.639 524.17 441.322 524.035 441.025C523.901 440.729 523.705 440.46 523.457 440.234C523.209 440.007 522.915 439.828 522.591 439.705C522.267 439.583 521.92 439.52 521.57 439.521V439.521Z" fill="white"/>
<path d="M543.864 468.041H1.41832C1.12216 468.04 0.838407 467.932 0.62929 467.74C0.420172 467.548 0.302734 467.288 0.302734 467.017C0.302734 466.746 0.420172 466.486 0.62929 466.294C0.838407 466.101 1.12216 465.993 1.41832 465.992H543.864C544.16 465.993 544.444 466.101 544.653 466.294C544.862 466.486 544.98 466.746 544.98 467.017C544.98 467.288 544.862 467.548 544.653 467.74C544.444 467.932 544.16 468.04 543.864 468.041V468.041Z" fill="#4F4F4F"/>
</svg>
