<svg width="730" height="454" viewBox="0 0 730 454" fill="none" xmlns="http://www.w3.org/2000/svg">
<path d="M281.996 240.839C282.051 239.381 281.799 237.928 281.26 236.583C280.721 235.237 279.906 234.032 278.874 233.052C277.842 232.072 276.617 231.341 275.287 230.911C273.956 230.48 272.551 230.361 271.171 230.56L255.796 198.956L247.109 214.985L263.041 242.54C263.515 244.946 264.815 247.087 266.695 248.556C268.574 250.025 270.903 250.721 273.24 250.511C275.576 250.301 277.758 249.201 279.372 247.418C280.986 245.636 281.919 243.295 281.996 240.839L281.996 240.839Z" fill="#FFB7B7"/>
<path d="M210.317 439.85L222.383 439.849L228.123 391.088L210.315 391.089L210.317 439.85Z" fill="#FFB7B7"/>
<path d="M207.24 452.104L246.145 452.102V451.587C246.145 447.379 244.549 443.344 241.709 440.369C238.87 437.393 235.018 435.722 231.002 435.721H231.001L207.239 435.722L207.24 452.104Z" fill="#BBBBBB"/>
<path d="M144.908 439.85L156.974 439.849L162.714 391.088L144.906 391.089L144.908 439.85Z" fill="#FFB7B7"/>
<path d="M141.831 452.104L180.736 452.102V451.587C180.736 447.379 179.141 443.344 176.301 440.369C173.461 437.393 169.609 435.722 165.593 435.721H165.592L141.83 435.722L141.831 452.104Z" fill="#BBBBBB"/>
<path d="M263.463 213.333L268.73 222.531C268.73 222.531 259.952 222.531 258.196 236.328L251.173 227.13L263.463 213.333Z" fill="#E5E5E5"/>
<path d="M171.285 194.018C171.285 194.018 157.239 232.649 154.605 256.563C151.972 280.477 147.582 343.943 147.582 343.943L138.803 425.804L163.384 429.483L173.919 346.702L197.622 264.841L202.889 346.702L207.278 421.205L230.104 422.125L231.859 344.862L241.516 246.445L236.249 199.536L171.285 194.018Z" fill="#4F4F4F"/>
<path d="M210.79 77.3084C198.669 77.3084 188.843 67.0134 188.843 54.3138C188.843 41.6142 198.669 31.3191 210.79 31.3191C222.911 31.3191 232.737 41.6142 232.737 54.3138C232.737 67.0134 222.911 77.3084 210.79 77.3084Z" fill="#FFB7B7"/>
<path d="M188.404 76.7454L179.625 83.1829L168.213 203.675L239.321 205.515L229.664 121.815L220.886 97.9L214.549 89.1225L188.404 76.7454Z" fill="#E5E5E5"/>
<path d="M186.648 163.205L183.962 80.0029C183.962 80.0029 178.747 80.4242 176.992 83.1836C175.236 85.943 146.266 91.4617 146.266 91.4617L151.533 177.002C151.533 177.002 129.586 245.066 137.487 248.745C145.388 252.424 159.434 251.504 159.434 251.504L186.648 163.205Z" fill="#BBBBBB"/>
<path d="M229.225 152.627L219.913 96.5525L240.638 111.237L235.371 151.708L239.76 179.301C239.76 179.301 256.44 255.643 251.173 258.403C245.905 261.162 239.76 258.403 239.76 258.403L229.225 181.141V152.627Z" fill="#BBBBBB"/>
<path d="M234.493 109.397L240.638 111.237L243.272 148.029L247.661 180.221L268.73 219.772C268.73 219.772 258.196 212.413 253.806 233.569L230.603 191.243L234.493 109.397Z" fill="#BBBBBB"/>
<path d="M192.417 32.4048L188.279 30.6689C188.279 30.6689 196.932 20.6871 208.972 21.5552L205.586 17.6492C205.586 17.6492 213.863 14.1774 221.388 23.2911C225.343 28.0819 229.92 33.7134 232.773 40.0571H237.205L235.356 44.3247L241.83 48.5922L235.185 47.8256C235.581 50.1626 235.641 52.5484 235.365 54.9041C235.08 57.2606 233.932 59.4089 232.164 60.8955C232.164 60.8955 227.031 49.7643 227.031 48.0284V52.3682C227.031 52.3682 222.893 48.4623 222.893 45.8584L220.635 48.8964L219.507 44.1225L205.586 48.8964L207.843 44.9905L199.19 46.2925L202.576 41.5185L189.178 61.2316C189.178 61.2316 181.506 38.9146 192.417 32.4048Z" fill="black"/>
<path d="M186.742 233.296C186.525 231.855 186.009 230.481 185.231 229.27C184.452 228.06 183.43 227.044 182.236 226.292C181.042 225.541 179.705 225.073 178.32 224.921C176.935 224.769 175.535 224.938 174.218 225.415L153.28 197.538L147.728 215.03L168.462 238.82C169.373 241.084 171.045 242.919 173.161 243.978C175.277 245.037 177.691 245.246 179.944 244.565C182.197 243.884 184.133 242.361 185.386 240.284C186.639 238.207 187.121 235.721 186.742 233.296V233.296Z" fill="#FFB7B7"/>
<path d="M151.094 223.45L158.994 233.568L169.529 214.253L165.14 205.975L151.094 223.45Z" fill="#E5E5E5"/>
<path d="M152.849 94.6808L145.826 91.0017C145.826 91.0017 140.559 98.36 139.681 104.798C138.803 111.237 134.414 119.515 134.414 124.114C134.414 128.713 122.123 171.943 122.123 171.943L150.216 231.729C150.216 231.729 156.361 209.654 169.529 207.815L147.582 175.622L159.873 152.627L152.849 94.6808Z" fill="#BBBBBB"/>
<path d="M0.886597 452.671H338.689C338.924 452.671 339.15 452.573 339.316 452.399C339.482 452.225 339.576 451.989 339.576 451.742C339.576 451.496 339.482 451.26 339.316 451.086C339.15 450.911 338.924 450.813 338.689 450.813H0.886597C0.651459 450.813 0.425964 450.911 0.259674 451.086C0.0934143 451.26 -3.05176e-05 451.496 -3.05176e-05 451.742C-3.05176e-05 451.989 0.0934143 452.225 0.259674 452.399C0.425964 452.573 0.651459 452.671 0.886597 452.671Z" fill="#4F4F4F"/>
<path d="M55.5674 453.1V385.9C55.5674 385.9 30.5721 433.542 55.5674 453.1Z" fill="#EF5533"/>
<path d="M54.0234 453.088L101.271 407.643C101.271 407.643 50.8709 420.57 54.0234 453.088Z" fill="#EF5533"/>
<path d="M281.597 238.815C272.326 238.815 264.81 230.94 264.81 221.226C264.81 211.512 272.326 203.638 281.597 203.638C290.869 203.638 298.385 211.512 298.385 221.226C298.385 230.94 290.869 238.815 281.597 238.815Z" fill="white"/>
<path d="M283.261 227.936C283.639 227.936 284.006 227.808 284.308 227.571L284.327 227.556L288.272 224.394C288.455 224.248 288.609 224.065 288.724 223.856C288.84 223.647 288.915 223.416 288.945 223.177C288.975 222.938 288.96 222.694 288.901 222.461C288.841 222.228 288.738 222.01 288.598 221.818C288.458 221.626 288.283 221.466 288.084 221.345C287.884 221.224 287.664 221.146 287.436 221.114C287.207 221.083 286.975 221.099 286.753 221.161C286.53 221.224 286.322 221.332 286.139 221.479L283.584 223.532L277.545 215.278C277.405 215.086 277.23 214.926 277.031 214.805C276.832 214.685 276.612 214.606 276.384 214.575C276.155 214.543 275.924 214.559 275.701 214.621C275.479 214.684 275.27 214.791 275.088 214.938L275.087 214.938L275.125 214.993L275.086 214.938C274.718 215.235 274.477 215.673 274.416 216.155C274.355 216.638 274.48 217.126 274.762 217.513L281.865 227.217C282.029 227.441 282.241 227.622 282.482 227.746C282.724 227.87 282.99 227.934 283.259 227.934L283.261 227.936Z" fill="#4F4F4F"/>
<path d="M405.66 216.934H729.276V138.904H405.66V216.934Z" fill="#F3F3F3"/>
<path d="M682.571 164.705C683.407 164.706 684.207 165.055 684.798 165.674C685.388 166.294 685.719 167.133 685.719 168.008C685.719 168.883 685.388 169.723 684.798 170.342C684.207 170.962 683.407 171.31 682.571 171.312H452.352C451.517 171.31 450.716 170.962 450.126 170.342C449.536 169.723 449.204 168.883 449.204 168.008C449.204 167.133 449.536 166.294 450.126 165.674C450.716 165.055 451.517 164.706 452.352 164.705H682.571Z" fill="#EF5533"/>
<path d="M682.571 184.527C682.985 184.526 683.395 184.61 683.778 184.775C684.161 184.941 684.509 185.183 684.803 185.489C685.096 185.795 685.329 186.159 685.488 186.56C685.648 186.96 685.73 187.389 685.731 187.823C685.732 188.257 685.651 188.687 685.493 189.088C685.336 189.489 685.104 189.854 684.812 190.161C684.52 190.469 684.173 190.713 683.791 190.88C683.408 191.047 682.998 191.133 682.584 191.134H537.037C536.623 191.135 536.212 191.05 535.829 190.884C535.446 190.718 535.098 190.475 534.804 190.168C534.511 189.861 534.278 189.497 534.119 189.096C533.961 188.695 533.879 188.265 533.879 187.83C533.879 187.396 533.961 186.966 534.119 186.565C534.278 186.164 534.511 185.799 534.804 185.492C535.098 185.185 535.446 184.942 535.829 184.776C536.212 184.611 536.623 184.526 537.037 184.527H682.571Z" fill="#4F4F4F"/>
<path d="M405.66 216.934H729.276V138.904H405.66V216.934ZM723.957 211.361H410.98V144.477H723.957V211.361Z" fill="#F3F3F3"/>
<path d="M405.66 335.839H729.276V257.808H405.66V335.839Z" fill="#F3F3F3"/>
<path d="M682.571 283.608C683.407 283.61 684.207 283.959 684.798 284.578C685.388 285.197 685.719 286.037 685.719 286.912C685.719 287.787 685.388 288.627 684.798 289.246C684.207 289.866 683.407 290.214 682.571 290.216H452.352C451.517 290.214 450.716 289.866 450.126 289.246C449.536 288.627 449.204 287.787 449.204 286.912C449.204 286.037 449.536 285.197 450.126 284.578C450.716 283.959 451.517 283.61 452.352 283.608H682.571Z" fill="#EF5533"/>
<path d="M682.571 303.43C682.985 303.43 683.395 303.514 683.778 303.679C684.161 303.844 684.509 304.087 684.803 304.393C685.096 304.699 685.329 305.063 685.488 305.463C685.648 305.864 685.73 306.293 685.731 306.727C685.732 307.161 685.651 307.591 685.493 307.992C685.336 308.393 685.104 308.758 684.812 309.065C684.52 309.373 684.173 309.617 683.791 309.784C683.408 309.95 682.998 310.037 682.584 310.038H537.037C536.623 310.038 536.212 309.954 535.829 309.788C535.446 309.622 535.098 309.379 534.804 309.072C534.511 308.765 534.278 308.401 534.119 308C533.961 307.598 533.879 307.168 533.879 306.734C533.879 306.3 533.961 305.87 534.119 305.469C534.278 305.067 534.511 304.703 534.804 304.396C535.098 304.089 535.446 303.846 535.829 303.68C536.212 303.515 536.623 303.43 537.037 303.43H682.571Z" fill="#4F4F4F"/>
<path d="M405.66 335.839H729.276V257.808H405.66V335.839ZM723.957 330.265H410.98V263.381H723.957V330.265Z" fill="#E5E5E5"/>
<path d="M403 98.0307H726.617V20H403V98.0307Z" fill="#F3F3F3"/>
<path d="M679.911 45.8005C680.747 45.802 681.547 46.1507 682.138 46.7701C682.728 47.3895 683.059 48.229 683.059 49.1042C683.059 49.9794 682.728 50.8189 682.138 51.4383C681.547 52.0577 680.747 52.4064 679.911 52.4079H449.692C448.857 52.4064 448.056 52.0577 447.466 51.4383C446.876 50.8189 446.544 49.9794 446.544 49.1042C446.544 48.229 446.876 47.3895 447.466 46.7701C448.056 46.1507 448.857 45.802 449.692 45.8005H679.911Z" fill="#4F4F4F"/>
<path d="M679.911 65.6226C680.748 65.6207 681.55 65.967 682.143 66.5853C682.736 67.2035 683.07 68.0431 683.071 68.9193C683.073 69.7955 682.743 70.6365 682.152 71.2574C681.562 71.8782 680.761 72.2281 679.925 72.2299H534.378C533.963 72.2306 533.553 72.1457 533.169 71.98C532.786 71.8143 532.438 71.5711 532.145 71.2642C531.851 70.9574 531.618 70.593 531.46 70.1918C531.301 69.7906 531.219 69.3606 531.219 68.9262C531.219 68.4919 531.301 68.0619 531.46 67.6607C531.618 67.2595 531.851 66.8951 532.145 66.5882C532.438 66.2814 532.786 66.0381 533.169 65.8724C533.553 65.7067 533.963 65.6218 534.378 65.6226H679.911Z" fill="#EF5533"/>
<path d="M403 98.0307H726.617V20H403V98.0307ZM721.297 92.457H408.32V25.5736H721.297V92.457Z" fill="#E5E5E5"/>
<path d="M329.787 35.1771C320.516 35.1771 313 27.3024 313 17.5885C313 7.87466 320.516 0 329.787 0C339.059 0 346.575 7.87466 346.575 17.5885C346.575 27.3024 339.059 35.1771 329.787 35.1771Z" fill="white"/>
<path d="M331.451 24.2979C331.829 24.2985 332.196 24.1705 332.498 23.9331L332.517 23.9184L336.462 20.7564C336.645 20.6096 336.798 20.4266 336.914 20.2177C337.029 20.0089 337.104 19.7783 337.134 19.5392C337.164 19.3 337.149 19.057 337.089 18.8239C337.03 18.5909 336.927 18.3724 336.787 18.181C336.647 17.9895 336.472 17.8289 336.273 17.7082C336.074 17.5874 335.854 17.5091 335.625 17.4775C335.397 17.4459 335.165 17.4617 334.943 17.524C334.72 17.5864 334.512 17.694 334.329 17.8408L331.774 19.8939L325.735 11.6399C325.595 11.4485 325.42 11.2879 325.221 11.1673C325.022 11.0466 324.802 10.9683 324.574 10.9367C324.346 10.9051 324.114 10.9209 323.891 10.9833C323.669 11.0456 323.461 11.1531 323.278 11.2999L323.277 11.3003L323.315 11.3548L323.276 11.3003C322.908 11.597 322.667 12.0347 322.606 12.5175C322.545 13.0002 322.67 13.4885 322.952 13.8751L330.055 23.5793C330.219 23.8029 330.431 23.9838 330.672 24.1081C330.914 24.2323 331.18 24.2965 331.449 24.2957L331.451 24.2979Z" fill="#4F4F4F"/>
<path d="M329.787 154.081C320.516 154.081 313 146.206 313 136.492C313 126.778 320.516 118.904 329.787 118.904C339.059 118.904 346.575 126.778 346.575 136.492C346.575 146.206 339.059 154.081 329.787 154.081Z" fill="white"/>
<path d="M331.451 143.202C331.829 143.203 332.196 143.075 332.498 142.837L332.517 142.822L336.462 139.66C336.645 139.514 336.798 139.331 336.914 139.122C337.029 138.913 337.104 138.682 337.134 138.443C337.164 138.204 337.149 137.961 337.089 137.728C337.03 137.495 336.927 137.276 336.787 137.085C336.647 136.894 336.472 136.733 336.273 136.612C336.074 136.491 335.854 136.413 335.625 136.381C335.397 136.35 335.165 136.366 334.943 136.428C334.72 136.49 334.512 136.598 334.329 136.745L331.774 138.798L325.735 130.544C325.595 130.353 325.42 130.192 325.221 130.071C325.022 129.951 324.802 129.872 324.574 129.841C324.346 129.809 324.114 129.825 323.891 129.887C323.669 129.95 323.461 130.057 323.278 130.204L323.277 130.204L323.315 130.259L323.276 130.204C322.908 130.501 322.667 130.939 322.606 131.422C322.545 131.904 322.67 132.393 322.952 132.779L330.055 142.483C330.219 142.707 330.431 142.888 330.672 143.012C330.914 143.136 331.18 143.201 331.449 143.2L331.451 143.202Z" fill="#4F4F4F"/>
</svg>
