<svg width="560" height="451" viewBox="0 0 560 451" fill="none" xmlns="http://www.w3.org/2000/svg">
<g clip-path="url(#clip0_120_2)">
<path d="M448.424 451C386.802 451 336.847 446.608 336.847 441.191C336.847 435.774 386.802 431.382 448.424 431.382C510.046 431.382 560 435.774 560 441.191C560 446.608 510.046 451 448.424 451Z" fill="#E6E6E6"/>
<path d="M474.713 100.069C455.295 90.5091 431.11 96.5663 407.491 100.77C407.271 95.6792 404.607 89.4833 407.398 85.9316C410.788 81.6165 410.476 77.0827 408.436 72.5227C403.219 60.8621 410.694 48.4546 418.241 38.1379C419.942 35.8178 422.092 33.9949 424.516 32.8172C426.94 31.6395 429.57 31.1402 432.192 31.36L446.172 32.5159C449.574 32.7972 452.821 34.2744 455.478 36.7499C458.135 39.2254 460.075 42.5812 461.04 46.3681C464.378 51.6235 466.165 56.8643 465.04 62.0779C470.04 66.0332 470.88 70.8078 468.633 76.1902C466.728 79.5792 466.748 82.8781 468.72 86.0857C471.309 90.1751 473.292 94.7349 474.588 99.5782L474.713 100.069Z" fill="#2F2E41"/>
<path d="M13.2697 389.882H409.025C412.544 389.882 415.92 388.264 418.408 385.383C420.897 382.502 422.295 378.596 422.295 374.522C278.834 355.222 138.069 355.222 -0.00025177 374.522C-0.00025177 378.596 1.39782 382.502 3.88641 385.383C6.375 388.264 9.75027 389.882 13.2697 389.882Z" fill="#2F2E41"/>
<path d="M-0.00025177 375.425L422.295 374.522L373.352 279.197L373.118 278.745V68.6608C373.118 66.1109 372.685 63.5858 371.842 61.2299C370.999 58.874 369.763 56.7334 368.205 54.9303C366.648 53.1271 364.798 51.6969 362.763 50.7211C360.728 49.7454 358.547 49.2433 356.344 49.2435H68.2929C66.09 49.2433 63.9086 49.7454 61.8733 50.7211C59.838 51.6969 57.9887 53.1271 56.431 54.9303C54.8733 56.7334 53.6377 58.874 52.7948 61.2299C51.9518 63.5858 51.518 66.1109 51.5182 68.6608V280.191L-0.00025177 375.425Z" fill="#3F3D56"/>
<path d="M-9.91821e-05 375.425L422.295 374.522L373.352 279.197L373.118 278.745V68.6608C373.118 66.1109 372.685 63.5858 371.842 61.2299C370.999 58.874 369.763 56.7334 368.205 54.9303C366.648 53.1272 364.798 51.6969 362.763 50.7211C360.728 49.7454 358.546 49.2433 356.344 49.2435H68.2931C66.0901 49.2433 63.9087 49.7454 61.8734 50.7211C59.8382 51.6969 57.9889 53.1272 56.4312 54.9303C54.8734 56.7334 53.6378 58.874 52.7949 61.2299C51.9519 63.5858 51.5182 66.1109 51.5183 68.6608V280.191L-9.91821e-05 375.425Z" fill="#3F3D56"/>
<path d="M356.726 62.7968C358.175 62.7986 359.564 63.4656 360.588 64.6513C361.612 65.8371 362.189 67.4447 362.19 69.1216V260.674C362.188 262.351 361.612 263.959 360.588 265.145C359.564 266.33 358.175 266.997 356.726 266.999H65.5689C64.1203 266.997 62.7315 266.33 61.7072 265.145C60.6828 263.959 60.1066 262.351 60.1048 260.674V69.1216C60.1065 67.4447 60.6827 65.8371 61.7071 64.6514C62.7314 63.4657 64.1203 62.7987 65.5689 62.7968H356.726Z" fill="white"/>
<path d="M355.506 292.299C355.954 292.299 356.392 292.448 356.769 292.728C357.146 293.008 357.446 293.406 357.634 293.876L372.715 331.826C372.879 332.238 372.951 332.693 372.923 333.146C372.896 333.6 372.771 334.038 372.559 334.421C372.347 334.804 372.056 335.118 371.711 335.337C371.367 335.555 370.98 335.669 370.587 335.669H53.448C53.0488 335.669 52.6563 335.551 52.3077 335.326C51.959 335.101 51.6659 334.776 51.4561 334.383C51.2463 333.99 51.1268 333.542 51.1089 333.08C51.091 332.619 51.1754 332.159 51.354 331.746L67.7462 293.797C67.9396 293.346 68.2382 292.966 68.6083 292.701C68.9784 292.437 69.4051 292.297 69.8402 292.299H355.506Z" fill="#2F2E41"/>
<path d="M212.318 59.6344C210.378 59.6344 208.806 57.814 208.806 55.5684C208.806 53.3228 210.378 51.5024 212.318 51.5024C214.258 51.5024 215.831 53.3228 215.831 55.5684C215.831 57.814 214.258 59.6344 212.318 59.6344Z" fill="white"/>
<path d="M243.491 342.898C244.005 342.898 244.506 343.095 244.914 343.458C245.323 343.82 245.617 344.328 245.751 344.903L249.534 361.167C249.628 361.569 249.64 361.99 249.57 362.398C249.501 362.807 249.351 363.191 249.132 363.521C248.913 363.851 248.632 364.119 248.31 364.303C247.987 364.487 247.633 364.583 247.273 364.583H175.332C174.959 364.583 174.591 364.48 174.259 364.281C173.927 364.083 173.641 363.796 173.425 363.444C173.208 363.092 173.068 362.685 173.015 362.258C172.962 361.83 172.998 361.394 173.12 360.985L177.983 344.722C178.143 344.189 178.442 343.727 178.838 343.401C179.235 343.074 179.709 342.898 180.196 342.898H243.491Z" fill="#2F2E41"/>
<path d="M51.5188 275.583V279.197H373.353L373.111 278.746V275.583H51.5188Z" fill="#2F2E41"/>
<path d="M60.4952 126.497C30.3179 126.497 5.85443 98.1798 5.85443 63.2486C5.85443 28.3173 30.3179 0 60.4952 0C90.6724 0 115.136 28.3173 115.136 63.2486C115.136 98.1798 90.6724 126.497 60.4952 126.497Z" fill="#EF5533"/>
<path d="M37.8583 90.8068H83.1321C83.9599 90.8059 84.7536 90.4248 85.339 89.7472C85.9244 89.0696 86.2536 88.1509 86.2544 87.1926V55.5683C86.2535 54.6101 85.9243 53.6914 85.3389 53.0138C84.7536 52.3362 83.9599 51.9551 83.1321 51.9541H37.8583C37.0304 51.9551 36.2368 52.3362 35.6514 53.0138C35.0661 53.6914 34.7368 54.6101 34.7359 55.5683V87.1926C34.7367 88.1509 35.066 89.0696 35.6514 89.7472C36.2367 90.4248 37.0304 90.8059 37.8583 90.8068ZM83.1321 55.5683V87.1926H37.856L37.8583 55.5683H83.1321Z" fill="white"/>
<path d="M46.4446 55.5682H74.5457V41.1114C74.5457 30.6403 68.6364 23.0404 60.4952 23.0404C52.3539 23.0404 46.4447 30.6403 46.4447 41.1114L46.4446 55.5682ZM71.4233 51.954H49.5669V41.1114C49.5669 32.5996 54.0607 26.6546 60.4951 26.6546C66.9296 26.6546 71.4233 32.5996 71.4233 41.1114V51.954Z" fill="white"/>
<path d="M60.495 74.0913C58.7706 74.0913 57.3727 72.4732 57.3727 70.4771C57.3727 68.481 58.7706 66.8629 60.495 66.8629C62.2194 66.8629 63.6174 68.481 63.6174 70.4771C63.6174 72.4732 62.2194 74.0913 60.495 74.0913Z" fill="white"/>
<path d="M98.6392 202.027H323.656C324.761 202.025 325.82 201.516 326.601 200.612C327.382 199.708 327.822 198.482 327.823 197.203V132.593C327.822 131.314 327.382 130.088 326.601 129.184C325.82 128.28 324.761 127.771 323.656 127.77H98.6392C97.5344 127.771 96.4753 128.28 95.6941 129.184C94.9129 130.088 94.4735 131.314 94.4722 132.593V197.203C94.4735 198.482 94.9129 199.708 95.6941 200.612C96.4753 201.516 97.5344 202.025 98.6392 202.027ZM323.656 129.699C324.319 129.7 324.954 130.005 325.423 130.548C325.892 131.09 326.155 131.826 326.156 132.593V197.203C326.155 197.97 325.892 198.706 325.423 199.249C324.954 199.791 324.319 200.096 323.656 200.097H98.6392C97.9763 200.096 97.3408 199.791 96.8721 199.249C96.4034 198.706 96.1397 197.97 96.139 197.203V132.593C96.1397 131.826 96.4034 131.09 96.8721 130.547C97.3408 130.005 97.9763 129.7 98.6392 129.699H323.656Z" fill="#E6E6E6"/>
<path d="M288.693 182.067C279.318 182.067 271.719 173.27 271.719 162.419C271.719 151.568 279.318 142.771 288.693 142.771C298.067 142.771 305.667 151.568 305.667 162.419C305.667 173.27 298.067 182.067 288.693 182.067Z" fill="#E6E6E6"/>
<path d="M249.491 149.32C249.863 149.32 250.231 149.404 250.575 149.568C250.919 149.732 251.231 149.973 251.494 150.278C251.757 150.582 251.966 150.943 252.109 151.341C252.251 151.738 252.324 152.165 252.324 152.595C252.324 153.025 252.251 153.452 252.109 153.849C251.966 154.247 251.757 154.608 251.494 154.912C251.231 155.217 250.919 155.458 250.575 155.622C250.231 155.786 249.863 155.87 249.491 155.87H116.124C115.373 155.87 114.654 155.525 114.123 154.911C113.593 154.296 113.295 153.463 113.295 152.595C113.295 151.726 113.593 150.894 114.123 150.279C114.654 149.665 115.373 149.32 116.124 149.32H249.491Z" fill="#E6E6E6"/>
<path d="M249.491 168.968C250.241 168.968 250.961 169.313 251.491 169.927C252.022 170.541 252.32 171.374 252.32 172.243C252.32 173.111 252.022 173.944 251.491 174.558C250.961 175.173 250.241 175.518 249.491 175.518H192.103C191.352 175.518 190.633 175.173 190.102 174.558C189.572 173.944 189.274 173.111 189.274 172.243C189.274 171.374 189.572 170.541 190.102 169.927C190.633 169.313 191.352 168.968 192.103 168.968H249.491Z" fill="#E6E6E6"/>
<path d="M373.906 170.293L415.502 195.891L416.029 174.559C402.452 171.936 389.535 167.368 377.592 159.932L373.242 147.49C372.767 146.135 371.997 144.945 371.006 144.038C370.015 143.131 368.837 142.538 367.588 142.318C366.339 142.097 365.061 142.256 363.882 142.779C362.702 143.302 361.66 144.171 360.858 145.302C359.684 146.955 359.098 149.063 359.217 151.198C359.336 153.334 360.152 155.337 361.499 156.802L373.906 170.293Z" fill="#FFB8B8"/>
<path d="M475.542 318.087C475.846 316.799 475.91 315.451 475.732 314.132C475.553 312.813 475.135 311.553 474.505 310.434L465.367 294.202C463.206 290.362 459.89 287.589 456.062 286.42C452.234 285.251 448.168 285.77 444.652 287.875C448.492 295.442 447.956 302.079 443.325 307.848C450.515 311.91 457.159 317.154 463.053 323.416C464.129 324.265 465.365 324.804 466.657 324.988C467.95 325.173 469.262 324.997 470.484 324.476C471.706 323.954 472.802 323.103 473.682 321.991C474.562 320.88 475.2 319.542 475.542 318.087Z" fill="#2F2E41"/>
<path d="M372.012 296.864C373.395 299.531 375.346 301.743 377.68 303.286C380.014 304.828 382.651 305.651 385.338 305.675L446.041 306.207L448.674 288.532L421.821 279.39L444.462 259.277L419.715 225.756L374.766 274.249C372.139 277.083 370.432 280.876 369.931 284.992C369.43 289.108 370.164 293.299 372.012 296.864Z" fill="#2F2E41"/>
<path d="M455.519 417.742H469.735C482.5 316.465 495.492 214.904 457.099 176.997L411.817 185.53L417.609 230.022L442.882 263.543L455.519 417.742Z" fill="#2F2E41"/>
<path d="M443.022 440.684C444.135 441.035 445.299 441.11 446.439 440.903C447.579 440.696 448.668 440.212 449.634 439.483L465.07 437.082C468.387 434.58 470.783 430.742 471.793 426.311C472.803 421.88 472.355 417.173 470.537 413.103C464 417.548 458.265 416.928 453.282 411.567C449.761 419.796 443.96 419.294 438.42 426.227C437.686 427.473 437.22 428.903 437.061 430.399C436.901 431.895 437.053 433.414 437.503 434.828C437.954 436.242 438.689 437.512 439.649 438.53C440.609 439.549 441.766 440.287 443.022 440.684Z" fill="#2F2E41"/>
<path d="M421.821 109.345L448.147 102.031C443.775 91.6713 443.415 80.1437 445.515 67.9004L427.613 67.2909C427.052 82.5158 425.355 96.7397 421.821 109.345Z" fill="#FFB8B8"/>
<path d="M414.585 203.881C433.75 218.998 447.291 204.398 457.625 181.873C456.189 168.09 458.514 151.595 462.82 133.673C464.735 125.767 464.02 117.318 460.816 109.994C457.613 102.669 452.153 97.0006 445.515 94.108L422.874 105.079C403.649 123.218 399.865 142.866 407.078 163.589L414.585 203.881Z" fill="#EF5533"/>
<path d="M469.735 124.582L490.797 137.381L453.413 162.979L448.211 177.832C447.864 178.823 447.695 179.886 447.714 180.955C447.733 182.024 447.94 183.078 448.323 184.052C448.706 185.026 449.255 185.899 449.939 186.619C450.623 187.338 451.426 187.889 452.299 188.238C453.292 188.634 454.351 188.759 455.393 188.603C456.435 188.447 457.431 188.013 458.304 187.337C459.177 186.66 459.903 185.759 460.424 184.704C460.946 183.648 461.25 182.468 461.311 181.254L461.837 170.903L509.352 152.753C510.953 152.141 512.412 151.116 513.62 149.755C514.828 148.394 515.753 146.732 516.324 144.896C517.156 142.22 517.198 139.3 516.444 136.592C515.69 133.885 514.182 131.544 512.155 129.935L473.948 99.5934L469.735 124.582Z" fill="#FFB8B8"/>
<path d="M448.674 127.02C457.458 122.564 465.445 127.405 475.527 131.286L477.107 98.984C467.096 92.8078 457.551 91.1426 448.674 95.9367V127.02Z" fill="#FF720C"/>
<path d="M438.166 83.2915C428.883 83.2915 421.358 74.5805 421.358 63.835C421.358 53.0895 428.883 44.3785 438.166 44.3785C447.45 44.3785 454.975 53.0895 454.975 63.835C454.975 74.5805 447.45 83.2915 438.166 83.2915Z" fill="#FFB8B8"/>
<path d="M418.058 61.38C434.7 63.2667 447.381 60.1162 455.486 51.1458V43.9216H419.471L418.058 61.38Z" fill="#2F2E41"/>
</g>
<defs>
<clipPath id="clip0_120_2">
<rect width="560" height="451" fill="white"/>
</clipPath>
</defs>
</svg>
